<?xml version="1.0" encoding="UTF-8" standalone="no"?>
<!DOCTYPE svg PUBLIC "-//W3C//DTD SVG 1.1//EN"
 "http://www.w3.org/Graphics/SVG/1.1/DTD/svg11.dtd">
<!-- Generated by graphviz version 2.38.0 (20140413.2041)
 -->
<!-- Title: control/al4san_context.h Pages: 1 -->
<!--zoomable 218 -->
<svg id="main" version="1.1" xmlns="http://www.w3.org/2000/svg" xmlns:xlink="http://www.w3.org/1999/xlink" xml:space="preserve" onload="init(evt)">
<style type="text/css"><![CDATA[
.edge:hover path { stroke: red; }
.edge:hover polygon { stroke: red; fill: red; }
]]></style>
<script type="text/javascript"><![CDATA[
var edges = document.getElementsByTagName('g');
if (edges && edges.length) {
  for (var i=0;i<edges.length;i++) {
    if (edges[i].id.substr(0,4)=='edge') {
      edges[i].setAttribute('class','edge');
    }
  }
}
]]></script>
        <defs>
                <circle id="rim" cx="0" cy="0" r="7"/>
                <circle id="rim2" cx="0" cy="0" r="3.5"/>
                <g id="zoomPlus">
                        <use xlink:href="#rim" fill="#404040">
                                <set attributeName="fill" to="#808080" begin="zoomplus.mouseover" end="zoomplus.mouseout"/>
                        </use>
                        <path d="M-4,0h8M0,-4v8" fill="none" stroke="white" stroke-width="1.5" pointer-events="none"/>
                </g>
                <g id="zoomMin">
                        <use xlink:href="#rim" fill="#404040">
                                <set attributeName="fill" to="#808080" begin="zoomminus.mouseover" end="zoomminus.mouseout"/>
                        </use>
                        <path d="M-4,0h8" fill="none" stroke="white" stroke-width="1.5" pointer-events="none"/>
                </g>
                <g id="dirArrow">
                        <path fill="none" stroke="white" stroke-width="1.5" d="M0,-3.0v7 M-2.5,-0.5L0,-3.0L2.5,-0.5"/>
                </g>
               <g id="resetDef">
                       <use xlink:href="#rim2" fill="#404040">
                               <set attributeName="fill" to="#808080" begin="reset.mouseover" end="reset.mouseout"/>
                       </use>
               </g>
        </defs>

<script type="text/javascript">
var viewWidth = 1091;
var viewHeight = 218;
var sectionId = 'dynsection-1';
</script>
<script xlink:href="svgpan.js"/>
<svg id="graph" class="graph">
<g id="viewport">
<title>control/al4san_context.h</title>
<polygon fill="white" stroke="none" points="-4,4 -4,-214 1087,-214 1087,4 -4,4"/>
<!-- Node1 -->
<g id="node1" class="node"><title>Node1</title>
<polygon fill="#bfbfbf" stroke="black" points="171,-190.5 171,-209.5 294,-209.5 294,-190.5 171,-190.5"/>
<text text-anchor="middle" x="232.5" y="-197.5" font-family="Helvetica,sans-Serif" font-size="10.00">control/al4san_context.h</text>
</g>
<!-- Node2 -->
<g id="node2" class="node"><title>Node2</title>
<g id="a_node2"><a xlink:href="al4san__common_8h.html" target="_top" xlink:title="control/al4san_common.h">
<polygon fill="white" stroke="black" points="244.5,-134.5 244.5,-153.5 372.5,-153.5 372.5,-134.5 244.5,-134.5"/>
<text text-anchor="middle" x="308.5" y="-141.5" font-family="Helvetica,sans-Serif" font-size="10.00">control/al4san_common.h</text>
</a>
</g>
</g>
<!-- Node1&#45;&gt;Node2 -->
<g id="edge1" class="edge"><title>Node1&#45;&gt;Node2</title>
<path fill="none" stroke="midnightblue" d="M253.076,-184.38C266.812,-174.62 284.425,-162.106 296.067,-153.834"/>
<polygon fill="midnightblue" stroke="midnightblue" points="250.835,-181.679 244.711,-190.324 254.89,-187.385 250.835,-181.679"/>
</g>
<!-- Node5 -->
<g id="node5" class="node"><title>Node5</title>
<g id="a_node5"><a xlink:href="context_8c.html" target="_top" xlink:title="control/context.c">
<polygon fill="white" stroke="black" points="0,-73 0,-92 89,-92 89,-73 0,-73"/>
<text text-anchor="middle" x="44.5" y="-80" font-family="Helvetica,sans-Serif" font-size="10.00">control/context.c</text>
</a>
</g>
</g>
<!-- Node1&#45;&gt;Node5 -->
<g id="edge15" class="edge"><title>Node1&#45;&gt;Node5</title>
<path fill="none" stroke="midnightblue" d="M209.727,-185.009C170.377,-160.834 90.7816,-111.934 58.5381,-92.1245"/>
<polygon fill="midnightblue" stroke="midnightblue" points="208.017,-188.066 218.369,-190.319 211.681,-182.102 208.017,-188.066"/>
</g>
<!-- Node3 -->
<g id="node3" class="node"><title>Node3</title>
<g id="a_node3"><a xlink:href="async_8c.html" target="_top" xlink:title="control/async.c">
<polygon fill="white" stroke="black" points="107,-73 107,-92 190,-92 190,-73 107,-73"/>
<text text-anchor="middle" x="148.5" y="-80" font-family="Helvetica,sans-Serif" font-size="10.00">control/async.c</text>
</a>
</g>
</g>
<!-- Node2&#45;&gt;Node3 -->
<g id="edge2" class="edge"><title>Node2&#45;&gt;Node3</title>
<path fill="none" stroke="midnightblue" d="M276.051,-130.933C244.953,-119.368 198.808,-102.208 171.382,-92.0091"/>
<polygon fill="midnightblue" stroke="midnightblue" points="274.983,-134.27 285.576,-134.475 277.423,-127.709 274.983,-134.27"/>
</g>
<!-- Node4 -->
<g id="node4" class="node"><title>Node4</title>
<g id="a_node4"><a xlink:href="auxiliary_8c.html" target="_top" xlink:title="control/auxiliary.c">
<polygon fill="white" stroke="black" points="208,-73 208,-92 301,-92 301,-73 208,-73"/>
<text text-anchor="middle" x="254.5" y="-80" font-family="Helvetica,sans-Serif" font-size="10.00">control/auxiliary.c</text>
</a>
</g>
</g>
<!-- Node2&#45;&gt;Node4 -->
<g id="edge3" class="edge"><title>Node2&#45;&gt;Node4</title>
<path fill="none" stroke="midnightblue" d="M293.977,-126.997C283.756,-115.736 270.477,-101.104 262.223,-92.0091"/>
<polygon fill="midnightblue" stroke="midnightblue" points="291.451,-129.422 300.763,-134.475 296.634,-124.718 291.451,-129.422"/>
</g>
<!-- Node2&#45;&gt;Node5 -->
<g id="edge4" class="edge"><title>Node2&#45;&gt;Node5</title>
<path fill="none" stroke="midnightblue" d="M255.184,-132.503C212.41,-123.872 150.904,-110.989 97.5,-98 89.9919,-96.1739 81.929,-94.0517 74.4141,-92.0037"/>
<polygon fill="midnightblue" stroke="midnightblue" points="254.603,-135.957 265.097,-134.495 255.982,-129.094 254.603,-135.957"/>
</g>
<!-- Node6 -->
<g id="node6" class="node"><title>Node6</title>
<g id="a_node6"><a xlink:href="control_8c.html" target="_top" xlink:title="control/control.c">
<polygon fill="white" stroke="black" points="319.5,-73 319.5,-92 405.5,-92 405.5,-73 319.5,-73"/>
<text text-anchor="middle" x="362.5" y="-80" font-family="Helvetica,sans-Serif" font-size="10.00">control/control.c</text>
</a>
</g>
</g>
<!-- Node2&#45;&gt;Node6 -->
<g id="edge5" class="edge"><title>Node2&#45;&gt;Node6</title>
<path fill="none" stroke="midnightblue" d="M323.023,-126.997C333.244,-115.736 346.523,-101.104 354.777,-92.0091"/>
<polygon fill="midnightblue" stroke="midnightblue" points="320.366,-124.718 316.237,-134.475 325.549,-129.422 320.366,-124.718"/>
</g>
<!-- Node7 -->
<g id="node7" class="node"><title>Node7</title>
<g id="a_node7"><a xlink:href="al4san__f77_8c.html" target="_top" xlink:title="control/al4san_f77.c">
<polygon fill="white" stroke="black" points="423.5,-73 423.5,-92 527.5,-92 527.5,-73 423.5,-73"/>
<text text-anchor="middle" x="475.5" y="-80" font-family="Helvetica,sans-Serif" font-size="10.00">control/al4san_f77.c</text>
</a>
</g>
</g>
<!-- Node2&#45;&gt;Node7 -->
<g id="edge6" class="edge"><title>Node2&#45;&gt;Node7</title>
<path fill="none" stroke="midnightblue" d="M341.948,-131.083C374.41,-119.517 422.867,-102.252 451.617,-92.0091"/>
<polygon fill="midnightblue" stroke="midnightblue" points="340.672,-127.822 332.427,-134.475 343.022,-134.416 340.672,-127.822"/>
</g>
<!-- Node8 -->
<g id="node8" class="node"><title>Node8</title>
<g id="a_node8"><a xlink:href="task_8c.html" target="_top" xlink:title="control/task.c">
<polygon fill="white" stroke="black" points="545.5,-73 545.5,-92 621.5,-92 621.5,-73 545.5,-73"/>
<text text-anchor="middle" x="583.5" y="-80" font-family="Helvetica,sans-Serif" font-size="10.00">control/task.c</text>
</a>
</g>
</g>
<!-- Node2&#45;&gt;Node8 -->
<g id="edge7" class="edge"><title>Node2&#45;&gt;Node8</title>
<path fill="none" stroke="midnightblue" d="M369.686,-132.714C415.814,-124.527 480.488,-112.127 536.5,-98 543.29,-96.2876 550.552,-94.1845 557.287,-92.1167"/>
<polygon fill="midnightblue" stroke="midnightblue" points="368.792,-129.317 359.55,-134.498 370.005,-136.211 368.792,-129.317"/>
</g>
<!-- Node9 -->
<g id="node9" class="node"><title>Node9</title>
<g id="a_node9"><a xlink:href="al4san__runtime_8h.html" target="_top" xlink:title="AL4SAN StarPU runtime main header. ">
<polygon fill="white" stroke="black" points="639.5,-67.5 639.5,-97.5 767.5,-97.5 767.5,-67.5 639.5,-67.5"/>
<text text-anchor="start" x="647.5" y="-85.5" font-family="Helvetica,sans-Serif" font-size="10.00">build/runtime/starpu</text>
<text text-anchor="middle" x="703.5" y="-74.5" font-family="Helvetica,sans-Serif" font-size="10.00">/include/al4san_runtime.h</text>
</a>
</g>
</g>
<!-- Node2&#45;&gt;Node9 -->
<g id="edge8" class="edge"><title>Node2&#45;&gt;Node9</title>
<path fill="none" stroke="midnightblue" d="M382.719,-133.853C448.102,-125.503 545.84,-112.312 630.5,-98 633.43,-97.5046 636.423,-96.9812 639.444,-96.4389"/>
<polygon fill="midnightblue" stroke="midnightblue" points="381.988,-130.418 372.51,-135.151 382.871,-137.362 381.988,-130.418"/>
</g>
<!-- Node10 -->
<g id="node10" class="node"><title>Node10</title>
<g id="a_node10"><a xlink:href="runtime__async_8c.html" target="_top" xlink:title="runtime/starpu/control\l/runtime_async.c">
<polygon fill="white" stroke="black" points="325,-0.5 325,-30.5 436,-30.5 436,-0.5 325,-0.5"/>
<text text-anchor="start" x="333" y="-18.5" font-family="Helvetica,sans-Serif" font-size="10.00">runtime/starpu/control</text>
<text text-anchor="middle" x="380.5" y="-7.5" font-family="Helvetica,sans-Serif" font-size="10.00">/runtime_async.c</text>
</a>
</g>
</g>
<!-- Node9&#45;&gt;Node10 -->
<g id="edge9" class="edge"><title>Node9&#45;&gt;Node10</title>
<path fill="none" stroke="midnightblue" d="M629.55,-66.8218C546.68,-50.6186 524.453,-47.4851 445.5,-31 442.444,-30.3619 439.31,-29.6972 436.148,-29.0185"/>
<polygon fill="midnightblue" stroke="midnightblue" points="628.922,-70.2651 639.409,-68.7549 630.269,-63.396 628.922,-70.2651"/>
</g>
<!-- Node11 -->
<g id="node11" class="node"><title>Node11</title>
<g id="a_node11"><a xlink:href="runtime__context_8c.html" target="_top" xlink:title="runtime/starpu/control\l/runtime_context.c">
<polygon fill="white" stroke="black" points="454,-0.5 454,-30.5 565,-30.5 565,-0.5 454,-0.5"/>
<text text-anchor="start" x="462" y="-18.5" font-family="Helvetica,sans-Serif" font-size="10.00">runtime/starpu/control</text>
<text text-anchor="middle" x="509.5" y="-7.5" font-family="Helvetica,sans-Serif" font-size="10.00">/runtime_context.c</text>
</a>
</g>
</g>
<!-- Node9&#45;&gt;Node11 -->
<g id="edge10" class="edge"><title>Node9&#45;&gt;Node11</title>
<path fill="none" stroke="midnightblue" d="M651.543,-64.0917C620.226,-53.5988 580.857,-40.4082 551.513,-30.5765"/>
<polygon fill="midnightblue" stroke="midnightblue" points="650.811,-67.5376 661.405,-67.396 653.035,-60.9003 650.811,-67.5376"/>
</g>
<!-- Node12 -->
<g id="node12" class="node"><title>Node12</title>
<g id="a_node12"><a xlink:href="runtime__control_8c.html" target="_top" xlink:title="runtime/starpu/control\l/runtime_control.c">
<polygon fill="white" stroke="black" points="583,-0.5 583,-30.5 694,-30.5 694,-0.5 583,-0.5"/>
<text text-anchor="start" x="591" y="-18.5" font-family="Helvetica,sans-Serif" font-size="10.00">runtime/starpu/control</text>
<text text-anchor="middle" x="638.5" y="-7.5" font-family="Helvetica,sans-Serif" font-size="10.00">/runtime_control.c</text>
</a>
</g>
</g>
<!-- Node9&#45;&gt;Node12 -->
<g id="edge11" class="edge"><title>Node9&#45;&gt;Node12</title>
<path fill="none" stroke="midnightblue" d="M682.311,-60.3115C672.561,-50.5612 661.259,-39.259 652.577,-30.5765"/>
<polygon fill="midnightblue" stroke="midnightblue" points="679.85,-62.7998 689.396,-67.396 684.8,-57.85 679.85,-62.7998"/>
</g>
<!-- Node13 -->
<g id="node13" class="node"><title>Node13</title>
<g id="a_node13"><a xlink:href="runtime__options_8c.html" target="_top" xlink:title="runtime/starpu/control\l/runtime_options.c">
<polygon fill="white" stroke="black" points="712,-0.5 712,-30.5 823,-30.5 823,-0.5 712,-0.5"/>
<text text-anchor="start" x="720" y="-18.5" font-family="Helvetica,sans-Serif" font-size="10.00">runtime/starpu/control</text>
<text text-anchor="middle" x="767.5" y="-7.5" font-family="Helvetica,sans-Serif" font-size="10.00">/runtime_options.c</text>
</a>
</g>
</g>
<!-- Node9&#45;&gt;Node13 -->
<g id="edge12" class="edge"><title>Node9&#45;&gt;Node13</title>
<path fill="none" stroke="midnightblue" d="M724.645,-60.0243C734.181,-50.3398 745.175,-39.1739 753.64,-30.5765"/>
<polygon fill="midnightblue" stroke="midnightblue" points="721.909,-57.8146 717.387,-67.396 726.897,-62.7259 721.909,-57.8146"/>
</g>
<!-- Node14 -->
<g id="node14" class="node"><title>Node14</title>
<g id="a_node14"><a xlink:href="runtime__workspace_8c.html" target="_top" xlink:title="runtime/starpu/control\l/runtime_workspace.c">
<polygon fill="white" stroke="black" points="841,-0.5 841,-30.5 954,-30.5 954,-0.5 841,-0.5"/>
<text text-anchor="start" x="849" y="-18.5" font-family="Helvetica,sans-Serif" font-size="10.00">runtime/starpu/control</text>
<text text-anchor="middle" x="897.5" y="-7.5" font-family="Helvetica,sans-Serif" font-size="10.00">/runtime_workspace.c</text>
</a>
</g>
</g>
<!-- Node9&#45;&gt;Node14 -->
<g id="edge13" class="edge"><title>Node9&#45;&gt;Node14</title>
<path fill="none" stroke="midnightblue" d="M755.457,-64.0917C786.774,-53.5988 826.143,-40.4082 855.487,-30.5765"/>
<polygon fill="midnightblue" stroke="midnightblue" points="753.965,-60.9003 745.595,-67.396 756.189,-67.5376 753.965,-60.9003"/>
</g>
<!-- Node15 -->
<g id="node15" class="node"><title>Node15</title>
<g id="a_node15"><a xlink:href="runtime__task_8c.html" target="_top" xlink:title="runtime/starpu/control\l/runtime_task.c">
<polygon fill="white" stroke="black" points="972,-0.5 972,-30.5 1083,-30.5 1083,-0.5 972,-0.5"/>
<text text-anchor="start" x="980" y="-18.5" font-family="Helvetica,sans-Serif" font-size="10.00">runtime/starpu/control</text>
<text text-anchor="middle" x="1027.5" y="-7.5" font-family="Helvetica,sans-Serif" font-size="10.00">/runtime_task.c</text>
</a>
</g>
</g>
<!-- Node9&#45;&gt;Node15 -->
<g id="edge14" class="edge"><title>Node9&#45;&gt;Node15</title>
<path fill="none" stroke="midnightblue" d="M777.871,-67.688C829.933,-57.8644 901.066,-44.1327 963.5,-31 966.176,-30.4372 968.912,-29.8525 971.675,-29.2549"/>
<polygon fill="midnightblue" stroke="midnightblue" points="776.9,-64.3091 767.721,-69.5993 778.196,-71.1882 776.9,-64.3091"/>
</g>
</g>
</svg>
        <g id="navigator" transform="translate(0 0)" fill="#404254">
                <rect fill="#f2f5e9" fill-opacity="0.5" stroke="#606060" stroke-width=".5" x="0" y="0" width="60" height="60"/>
                <use id="zoomplus" xlink:href="#zoomPlus" x="17" y="9" onmousedown="handleZoom(evt,'in')"/>
                <use id="zoomminus" xlink:href="#zoomMin" x="42" y="9" onmousedown="handleZoom(evt,'out')"/>
                <use id="reset" xlink:href="#resetDef" x="30" y="36" onmousedown="handleReset()"/>
                <g id="arrowUp" xlink:href="#dirArrow" transform="translate(30 24)" onmousedown="handlePan(0,-1)">
                  <use xlink:href="#rim" fill="#404040">
                        <set attributeName="fill" to="#808080" begin="arrowUp.mouseover" end="arrowUp.mouseout"/>
                  </use>
                  <path fill="none" stroke="white" stroke-width="1.5" d="M0,-3.0v7 M-2.5,-0.5L0,-3.0L2.5,-0.5"/>
                </g>
                <g id="arrowRight" xlink:href="#dirArrow" transform="rotate(90) translate(36 -43)" onmousedown="handlePan(1,0)">
                  <use xlink:href="#rim" fill="#404040">
                        <set attributeName="fill" to="#808080" begin="arrowRight.mouseover" end="arrowRight.mouseout"/>
                  </use>
                  <path fill="none" stroke="white" stroke-width="1.5" d="M0,-3.0v7 M-2.5,-0.5L0,-3.0L2.5,-0.5"/>
                </g>
                <g id="arrowDown" xlink:href="#dirArrow" transform="rotate(180) translate(-30 -48)" onmousedown="handlePan(0,1)">
                  <use xlink:href="#rim" fill="#404040">
                        <set attributeName="fill" to="#808080" begin="arrowDown.mouseover" end="arrowDown.mouseout"/>
                  </use>
                  <path fill="none" stroke="white" stroke-width="1.5" d="M0,-3.0v7 M-2.5,-0.5L0,-3.0L2.5,-0.5"/>
                </g>
                <g id="arrowLeft" xlink:href="#dirArrow" transform="rotate(270) translate(-36 17)" onmousedown="handlePan(-1,0)">
                  <use xlink:href="#rim" fill="#404040">
                        <set attributeName="fill" to="#808080" begin="arrowLeft.mouseover" end="arrowLeft.mouseout"/>
                  </use>
                  <path fill="none" stroke="white" stroke-width="1.5" d="M0,-3.0v7 M-2.5,-0.5L0,-3.0L2.5,-0.5"/>
                </g>
        </g>
        <svg viewBox="0 0 15 15" width="100%" height="30px" preserveAspectRatio="xMaxYMin meet">
         <g id="arrow_out" transform="scale(0.3 0.3)">
          <a xlink:href="al4san__context_8h__dep__incl_org.svg" target="_base">
           <rect id="button" ry="5" rx="5" y="6" x="6" height="38" width="38"
                fill="#f2f5e9" fill-opacity="0.5" stroke="#606060" stroke-width="1.0"/>
           <path id="arrow"
             d="M 11.500037,31.436501 C 11.940474,20.09759 22.043105,11.32322 32.158766,21.979434 L 37.068811,17.246167 C 37.068811,17.246167 37.088388,32 37.088388,32 L 22.160133,31.978069 C 22.160133,31.978069 26.997745,27.140456 26.997745,27.140456 C 18.528582,18.264221 13.291696,25.230495 11.500037,31.436501 z"
             style="fill:#404040;"/>
          </a>
         </g>
        </svg>
</svg>
