<?xml version="1.0" encoding="UTF-8" standalone="no"?>
<!DOCTYPE svg PUBLIC "-//W3C//DTD SVG 1.1//EN"
 "http://www.w3.org/Graphics/SVG/1.1/DTD/svg11.dtd">
<!-- Generated by graphviz version 2.38.0 (20140413.2041)
 -->
<!-- Title: control/al4san_context.h Pages: 1 -->
<svg width="390pt" height="196pt"
 viewBox="0.00 0.00 389.50 196.00" xmlns="http://www.w3.org/2000/svg" xmlns:xlink="http://www.w3.org/1999/xlink">
<g id="graph0" class="graph" transform="scale(1 1) rotate(0) translate(4 192)">
<title>control/al4san_context.h</title>
<polygon fill="white" stroke="none" points="-4,4 -4,-192 385.5,-192 385.5,4 -4,4"/>
<!-- Node1 -->
<g id="node1" class="node"><title>Node1</title>
<polygon fill="#bfbfbf" stroke="black" points="32,-168.5 32,-187.5 155,-187.5 155,-168.5 32,-168.5"/>
<text text-anchor="middle" x="93.5" y="-175.5" font-family="Helvetica,sans-Serif" font-size="10.00">control/al4san_context.h</text>
</g>
<!-- Node2 -->
<g id="node2" class="node"><title>Node2</title>
<g id="a_node2"><a xlink:href="struct_8h.html" target="_top" xlink:title="al4san/struct.h">
<polygon fill="white" stroke="black" points="53,-112.5 53,-131.5 134,-131.5 134,-112.5 53,-112.5"/>
<text text-anchor="middle" x="93.5" y="-119.5" font-family="Helvetica,sans-Serif" font-size="10.00">al4san/struct.h</text>
</a>
</g>
</g>
<!-- Node1&#45;&gt;Node2 -->
<g id="edge1" class="edge"><title>Node1&#45;&gt;Node2</title>
<path fill="none" stroke="midnightblue" d="M93.5,-168.083C93.5,-161.006 93.5,-150.861 93.5,-141.986"/>
<polygon fill="midnightblue" stroke="midnightblue" points="97.0001,-141.751 93.5,-131.751 90.0001,-141.751 97.0001,-141.751"/>
</g>
<!-- Node3 -->
<g id="node3" class="node"><title>Node3</title>
<g id="a_node3"><a xlink:href="config_8h.html" target="_top" xlink:title="al4san/config.h">
<polygon fill="white" stroke="black" points="0,-0.5 0,-19.5 83,-19.5 83,-0.5 0,-0.5"/>
<text text-anchor="middle" x="41.5" y="-7.5" font-family="Helvetica,sans-Serif" font-size="10.00">al4san/config.h</text>
</a>
</g>
</g>
<!-- Node2&#45;&gt;Node3 -->
<g id="edge2" class="edge"><title>Node2&#45;&gt;Node3</title>
<path fill="none" stroke="midnightblue" d="M89.4196,-112.368C80.9521,-94.4563 61.3183,-52.9233 49.9846,-28.9482"/>
<polygon fill="midnightblue" stroke="midnightblue" points="52.9995,-27.1363 45.5614,-19.5914 46.671,-30.128 52.9995,-27.1363"/>
</g>
<!-- Node4 -->
<g id="node4" class="node"><title>Node4</title>
<g id="a_node4"><a xlink:href="types_8h.html" target="_top" xlink:title="al4san/types.h">
<polygon fill="white" stroke="black" points="124.5,-56.5 124.5,-75.5 204.5,-75.5 204.5,-56.5 124.5,-56.5"/>
<text text-anchor="middle" x="164.5" y="-63.5" font-family="Helvetica,sans-Serif" font-size="10.00">al4san/types.h</text>
</a>
</g>
</g>
<!-- Node2&#45;&gt;Node4 -->
<g id="edge3" class="edge"><title>Node2&#45;&gt;Node4</title>
<path fill="none" stroke="midnightblue" d="M104.907,-112.324C115.609,-104.185 131.841,-91.8395 144.663,-82.0874"/>
<polygon fill="midnightblue" stroke="midnightblue" points="147.044,-84.6734 152.885,-75.8339 142.807,-79.1018 147.044,-84.6734"/>
</g>
<!-- Node4&#45;&gt;Node3 -->
<g id="edge4" class="edge"><title>Node4&#45;&gt;Node3</title>
<path fill="none" stroke="midnightblue" d="M145.01,-56.4435C124.858,-47.5961 93.1771,-33.6875 70.1692,-23.5865"/>
<polygon fill="midnightblue" stroke="midnightblue" points="71.462,-20.3316 60.8985,-19.5164 68.648,-26.7411 71.462,-20.3316"/>
</g>
<!-- Node5 -->
<g id="node5" class="node"><title>Node5</title>
<polygon fill="white" stroke="#bfbfbf" points="101.5,-0.5 101.5,-19.5 153.5,-19.5 153.5,-0.5 101.5,-0.5"/>
<text text-anchor="middle" x="127.5" y="-7.5" font-family="Helvetica,sans-Serif" font-size="10.00">stddef.h</text>
</g>
<!-- Node4&#45;&gt;Node5 -->
<g id="edge5" class="edge"><title>Node4&#45;&gt;Node5</title>
<path fill="none" stroke="midnightblue" d="M158.39,-56.083C153.218,-48.5341 145.654,-37.4948 139.306,-28.2298"/>
<polygon fill="midnightblue" stroke="midnightblue" points="142.036,-26.0221 133.496,-19.7511 136.261,-29.9787 142.036,-26.0221"/>
</g>
<!-- Node6 -->
<g id="node6" class="node"><title>Node6</title>
<polygon fill="white" stroke="#bfbfbf" points="172,-0.5 172,-19.5 231,-19.5 231,-0.5 172,-0.5"/>
<text text-anchor="middle" x="201.5" y="-7.5" font-family="Helvetica,sans-Serif" font-size="10.00">inttypes.h</text>
</g>
<!-- Node4&#45;&gt;Node6 -->
<g id="edge6" class="edge"><title>Node4&#45;&gt;Node6</title>
<path fill="none" stroke="midnightblue" d="M170.61,-56.083C175.782,-48.5341 183.346,-37.4948 189.694,-28.2298"/>
<polygon fill="midnightblue" stroke="midnightblue" points="192.739,-29.9787 195.504,-19.7511 186.964,-26.0221 192.739,-29.9787"/>
</g>
<!-- Node7 -->
<g id="node7" class="node"><title>Node7</title>
<polygon fill="white" stroke="#bfbfbf" points="249.5,-0.5 249.5,-19.5 301.5,-19.5 301.5,-0.5 249.5,-0.5"/>
<text text-anchor="middle" x="275.5" y="-7.5" font-family="Helvetica,sans-Serif" font-size="10.00">stdarg.h</text>
</g>
<!-- Node4&#45;&gt;Node7 -->
<g id="edge7" class="edge"><title>Node4&#45;&gt;Node7</title>
<path fill="none" stroke="midnightblue" d="M182.334,-56.324C200.216,-47.6247 227.975,-34.1202 248.546,-24.113"/>
<polygon fill="midnightblue" stroke="midnightblue" points="250.249,-27.1765 257.71,-19.6545 247.187,-20.8819 250.249,-27.1765"/>
</g>
<!-- Node8 -->
<g id="node8" class="node"><title>Node8</title>
<polygon fill="white" stroke="#bfbfbf" points="319.5,-0.5 319.5,-19.5 381.5,-19.5 381.5,-0.5 319.5,-0.5"/>
<text text-anchor="middle" x="350.5" y="-7.5" font-family="Helvetica,sans-Serif" font-size="10.00">complex.h</text>
</g>
<!-- Node4&#45;&gt;Node8 -->
<g id="edge8" class="edge"><title>Node4&#45;&gt;Node8</title>
<path fill="none" stroke="midnightblue" d="M193.972,-56.4435C225.671,-47.2406 276.232,-32.5617 311.275,-22.3879"/>
<polygon fill="midnightblue" stroke="midnightblue" points="312.538,-25.6658 321.166,-19.5164 310.586,-18.9434 312.538,-25.6658"/>
</g>
</g>
</svg>
