<?xml version="1.0" encoding="UTF-8" standalone="no"?>
<!DOCTYPE svg PUBLIC "-//W3C//DTD SVG 1.1//EN"
 "http://www.w3.org/Graphics/SVG/1.1/DTD/svg11.dtd">
<!-- Generated by graphviz version 2.38.0 (20140413.2041)
 -->
<!-- Title: control/al4san_auxiliary.h Pages: 1 -->
<svg width="893pt" height="218pt"
 viewBox="0.00 0.00 893.00 218.00" xmlns="http://www.w3.org/2000/svg" xmlns:xlink="http://www.w3.org/1999/xlink">
<g id="graph0" class="graph" transform="scale(1 1) rotate(0) translate(4 214)">
<title>control/al4san_auxiliary.h</title>
<polygon fill="white" stroke="none" points="-4,4 -4,-214 889,-214 889,4 -4,4"/>
<!-- Node1 -->
<g id="node1" class="node"><title>Node1</title>
<polygon fill="#bfbfbf" stroke="black" points="308,-190.5 308,-209.5 435,-209.5 435,-190.5 308,-190.5"/>
<text text-anchor="middle" x="371.5" y="-197.5" font-family="Helvetica,sans-Serif" font-size="10.00">control/al4san_auxiliary.h</text>
</g>
<!-- Node2 -->
<g id="node2" class="node"><title>Node2</title>
<g id="a_node2"><a xlink:href="al4san__common_8h.html" target="_top" xlink:title="control/al4san_common.h">
<polygon fill="white" stroke="black" points="307.5,-134.5 307.5,-153.5 435.5,-153.5 435.5,-134.5 307.5,-134.5"/>
<text text-anchor="middle" x="371.5" y="-141.5" font-family="Helvetica,sans-Serif" font-size="10.00">control/al4san_common.h</text>
</a>
</g>
</g>
<!-- Node1&#45;&gt;Node2 -->
<g id="edge1" class="edge"><title>Node1&#45;&gt;Node2</title>
<path fill="none" stroke="midnightblue" d="M371.5,-179.805C371.5,-170.91 371.5,-160.78 371.5,-153.751"/>
<polygon fill="midnightblue" stroke="midnightblue" points="368,-180.083 371.5,-190.083 375,-180.083 368,-180.083"/>
</g>
<!-- Node4 -->
<g id="node4" class="node"><title>Node4</title>
<g id="a_node4"><a xlink:href="auxiliary_8c.html" target="_top" xlink:title="control/auxiliary.c">
<polygon fill="white" stroke="black" points="0,-73 0,-92 93,-92 93,-73 0,-73"/>
<text text-anchor="middle" x="46.5" y="-80" font-family="Helvetica,sans-Serif" font-size="10.00">control/auxiliary.c</text>
</a>
</g>
</g>
<!-- Node1&#45;&gt;Node4 -->
<g id="edge15" class="edge"><title>Node1&#45;&gt;Node4</title>
<path fill="none" stroke="midnightblue" d="M337.861,-187.045C272.163,-163.697 128.211,-112.539 70.8214,-92.1434"/>
<polygon fill="midnightblue" stroke="midnightblue" points="336.743,-190.362 347.338,-190.413 339.087,-183.766 336.743,-190.362"/>
</g>
<!-- Node5 -->
<g id="node5" class="node"><title>Node5</title>
<g id="a_node5"><a xlink:href="context_8c.html" target="_top" xlink:title="control/context.c">
<polygon fill="white" stroke="black" points="111,-73 111,-92 200,-92 200,-73 111,-73"/>
<text text-anchor="middle" x="155.5" y="-80" font-family="Helvetica,sans-Serif" font-size="10.00">control/context.c</text>
</a>
</g>
</g>
<!-- Node1&#45;&gt;Node5 -->
<g id="edge16" class="edge"><title>Node1&#45;&gt;Node5</title>
<path fill="none" stroke="midnightblue" d="M346.188,-185.465C301.284,-161.454 208.909,-112.059 171.629,-92.1245"/>
<polygon fill="midnightblue" stroke="midnightblue" points="344.796,-188.69 355.265,-190.319 348.097,-182.517 344.796,-188.69"/>
</g>
<!-- Node6 -->
<g id="node6" class="node"><title>Node6</title>
<g id="a_node6"><a xlink:href="control_8c.html" target="_top" xlink:title="control/control.c">
<polygon fill="white" stroke="black" points="587.5,-73 587.5,-92 673.5,-92 673.5,-73 587.5,-73"/>
<text text-anchor="middle" x="630.5" y="-80" font-family="Helvetica,sans-Serif" font-size="10.00">control/control.c</text>
</a>
</g>
</g>
<!-- Node1&#45;&gt;Node6 -->
<g id="edge17" class="edge"><title>Node1&#45;&gt;Node6</title>
<path fill="none" stroke="midnightblue" d="M400.177,-186.212C453.364,-162.493 565.99,-112.268 611.16,-92.1245"/>
<polygon fill="midnightblue" stroke="midnightblue" points="398.675,-183.049 390.967,-190.319 401.526,-189.442 398.675,-183.049"/>
</g>
<!-- Node8 -->
<g id="node8" class="node"><title>Node8</title>
<g id="a_node8"><a xlink:href="task_8c.html" target="_top" xlink:title="control/task.c">
<polygon fill="white" stroke="black" points="691.5,-73 691.5,-92 767.5,-92 767.5,-73 691.5,-73"/>
<text text-anchor="middle" x="729.5" y="-80" font-family="Helvetica,sans-Serif" font-size="10.00">control/task.c</text>
</a>
</g>
</g>
<!-- Node1&#45;&gt;Node8 -->
<g id="edge18" class="edge"><title>Node1&#45;&gt;Node8</title>
<path fill="none" stroke="midnightblue" d="M407.668,-187.331C479.62,-164.118 639.232,-112.623 702.709,-92.1434"/>
<polygon fill="midnightblue" stroke="midnightblue" points="406.558,-184.012 398.116,-190.413 408.707,-190.674 406.558,-184.012"/>
</g>
<!-- Node3 -->
<g id="node3" class="node"><title>Node3</title>
<g id="a_node3"><a xlink:href="async_8c.html" target="_top" xlink:title="control/async.c">
<polygon fill="white" stroke="black" points="218,-73 218,-92 301,-92 301,-73 218,-73"/>
<text text-anchor="middle" x="259.5" y="-80" font-family="Helvetica,sans-Serif" font-size="10.00">control/async.c</text>
</a>
</g>
</g>
<!-- Node2&#45;&gt;Node3 -->
<g id="edge2" class="edge"><title>Node2&#45;&gt;Node3</title>
<path fill="none" stroke="midnightblue" d="M346.487,-129.712C324.795,-118.188 294.051,-101.855 275.517,-92.0091"/>
<polygon fill="midnightblue" stroke="midnightblue" points="344.98,-132.874 355.453,-134.475 348.264,-126.693 344.98,-132.874"/>
</g>
<!-- Node2&#45;&gt;Node4 -->
<g id="edge3" class="edge"><title>Node2&#45;&gt;Node4</title>
<path fill="none" stroke="midnightblue" d="M300.675,-133.03C246.015,-124.893 168.642,-112.413 101.5,-98 93.4864,-96.2797 84.8877,-94.1507 76.9256,-92.0589"/>
<polygon fill="midnightblue" stroke="midnightblue" points="300.205,-136.498 310.609,-134.498 301.228,-129.573 300.205,-136.498"/>
</g>
<!-- Node2&#45;&gt;Node5 -->
<g id="edge4" class="edge"><title>Node2&#45;&gt;Node5</title>
<path fill="none" stroke="midnightblue" d="M330.657,-131.749C288.692,-120.189 224.297,-102.451 186.39,-92.0091"/>
<polygon fill="midnightblue" stroke="midnightblue" points="329.982,-135.194 340.552,-134.475 331.841,-128.445 329.982,-135.194"/>
</g>
<!-- Node2&#45;&gt;Node6 -->
<g id="edge5" class="edge"><title>Node2&#45;&gt;Node6</title>
<path fill="none" stroke="midnightblue" d="M424.077,-132.447C466.033,-123.814 526.231,-110.957 578.5,-98 585.868,-96.1734 593.78,-94.051 601.153,-92.003"/>
<polygon fill="midnightblue" stroke="midnightblue" points="423.18,-129.058 414.086,-134.493 424.585,-135.915 423.18,-129.058"/>
</g>
<!-- Node7 -->
<g id="node7" class="node"><title>Node7</title>
<g id="a_node7"><a xlink:href="al4san__f77_8c.html" target="_top" xlink:title="control/al4san_f77.c">
<polygon fill="white" stroke="black" points="319.5,-73 319.5,-92 423.5,-92 423.5,-73 319.5,-73"/>
<text text-anchor="middle" x="371.5" y="-80" font-family="Helvetica,sans-Serif" font-size="10.00">control/al4san_f77.c</text>
</a>
</g>
</g>
<!-- Node2&#45;&gt;Node7 -->
<g id="edge6" class="edge"><title>Node2&#45;&gt;Node7</title>
<path fill="none" stroke="midnightblue" d="M371.5,-124.317C371.5,-113.496 371.5,-100.398 371.5,-92.0091"/>
<polygon fill="midnightblue" stroke="midnightblue" points="368,-124.475 371.5,-134.475 375,-124.475 368,-124.475"/>
</g>
<!-- Node2&#45;&gt;Node8 -->
<g id="edge7" class="edge"><title>Node2&#45;&gt;Node8</title>
<path fill="none" stroke="midnightblue" d="M446.063,-135.51C509.438,-128.359 602.59,-115.993 682.5,-98 689.664,-96.3868 697.319,-94.2211 704.327,-92.0562"/>
<polygon fill="midnightblue" stroke="midnightblue" points="445.315,-132.071 435.763,-136.655 446.089,-139.028 445.315,-132.071"/>
</g>
<!-- Node9 -->
<g id="node9" class="node"><title>Node9</title>
<g id="a_node9"><a xlink:href="al4san__runtime_8h.html" target="_top" xlink:title="AL4SAN StarPU runtime main header. ">
<polygon fill="white" stroke="black" points="441.5,-67.5 441.5,-97.5 569.5,-97.5 569.5,-67.5 441.5,-67.5"/>
<text text-anchor="start" x="449.5" y="-85.5" font-family="Helvetica,sans-Serif" font-size="10.00">build/runtime/starpu</text>
<text text-anchor="middle" x="505.5" y="-74.5" font-family="Helvetica,sans-Serif" font-size="10.00">/include/al4san_runtime.h</text>
</a>
</g>
</g>
<!-- Node2&#45;&gt;Node9 -->
<g id="edge8" class="edge"><title>Node2&#45;&gt;Node9</title>
<path fill="none" stroke="midnightblue" d="M400.033,-130.331C421.713,-120.704 451.522,-107.468 473.919,-97.523"/>
<polygon fill="midnightblue" stroke="midnightblue" points="398.418,-127.218 390.699,-134.475 401.259,-133.616 398.418,-127.218"/>
</g>
<!-- Node10 -->
<g id="node10" class="node"><title>Node10</title>
<g id="a_node10"><a xlink:href="runtime__async_8c.html" target="_top" xlink:title="runtime/starpu/control\l/runtime_async.c">
<polygon fill="white" stroke="black" points="127,-0.5 127,-30.5 238,-30.5 238,-0.5 127,-0.5"/>
<text text-anchor="start" x="135" y="-18.5" font-family="Helvetica,sans-Serif" font-size="10.00">runtime/starpu/control</text>
<text text-anchor="middle" x="182.5" y="-7.5" font-family="Helvetica,sans-Serif" font-size="10.00">/runtime_async.c</text>
</a>
</g>
</g>
<!-- Node9&#45;&gt;Node10 -->
<g id="edge9" class="edge"><title>Node9&#45;&gt;Node10</title>
<path fill="none" stroke="midnightblue" d="M431.55,-66.8218C348.68,-50.6186 326.453,-47.4851 247.5,-31 244.444,-30.3619 241.31,-29.6972 238.148,-29.0185"/>
<polygon fill="midnightblue" stroke="midnightblue" points="430.922,-70.2651 441.409,-68.7549 432.269,-63.396 430.922,-70.2651"/>
</g>
<!-- Node11 -->
<g id="node11" class="node"><title>Node11</title>
<g id="a_node11"><a xlink:href="runtime__context_8c.html" target="_top" xlink:title="runtime/starpu/control\l/runtime_context.c">
<polygon fill="white" stroke="black" points="256,-0.5 256,-30.5 367,-30.5 367,-0.5 256,-0.5"/>
<text text-anchor="start" x="264" y="-18.5" font-family="Helvetica,sans-Serif" font-size="10.00">runtime/starpu/control</text>
<text text-anchor="middle" x="311.5" y="-7.5" font-family="Helvetica,sans-Serif" font-size="10.00">/runtime_context.c</text>
</a>
</g>
</g>
<!-- Node9&#45;&gt;Node11 -->
<g id="edge10" class="edge"><title>Node9&#45;&gt;Node11</title>
<path fill="none" stroke="midnightblue" d="M453.543,-64.0917C422.226,-53.5988 382.857,-40.4082 353.513,-30.5765"/>
<polygon fill="midnightblue" stroke="midnightblue" points="452.811,-67.5376 463.405,-67.396 455.035,-60.9003 452.811,-67.5376"/>
</g>
<!-- Node12 -->
<g id="node12" class="node"><title>Node12</title>
<g id="a_node12"><a xlink:href="runtime__control_8c.html" target="_top" xlink:title="runtime/starpu/control\l/runtime_control.c">
<polygon fill="white" stroke="black" points="385,-0.5 385,-30.5 496,-30.5 496,-0.5 385,-0.5"/>
<text text-anchor="start" x="393" y="-18.5" font-family="Helvetica,sans-Serif" font-size="10.00">runtime/starpu/control</text>
<text text-anchor="middle" x="440.5" y="-7.5" font-family="Helvetica,sans-Serif" font-size="10.00">/runtime_control.c</text>
</a>
</g>
</g>
<!-- Node9&#45;&gt;Node12 -->
<g id="edge11" class="edge"><title>Node9&#45;&gt;Node12</title>
<path fill="none" stroke="midnightblue" d="M484.311,-60.3115C474.561,-50.5612 463.259,-39.259 454.577,-30.5765"/>
<polygon fill="midnightblue" stroke="midnightblue" points="481.85,-62.7998 491.396,-67.396 486.8,-57.85 481.85,-62.7998"/>
</g>
<!-- Node13 -->
<g id="node13" class="node"><title>Node13</title>
<g id="a_node13"><a xlink:href="runtime__options_8c.html" target="_top" xlink:title="runtime/starpu/control\l/runtime_options.c">
<polygon fill="white" stroke="black" points="514,-0.5 514,-30.5 625,-30.5 625,-0.5 514,-0.5"/>
<text text-anchor="start" x="522" y="-18.5" font-family="Helvetica,sans-Serif" font-size="10.00">runtime/starpu/control</text>
<text text-anchor="middle" x="569.5" y="-7.5" font-family="Helvetica,sans-Serif" font-size="10.00">/runtime_options.c</text>
</a>
</g>
</g>
<!-- Node9&#45;&gt;Node13 -->
<g id="edge12" class="edge"><title>Node9&#45;&gt;Node13</title>
<path fill="none" stroke="midnightblue" d="M526.645,-60.0243C536.181,-50.3398 547.175,-39.1739 555.64,-30.5765"/>
<polygon fill="midnightblue" stroke="midnightblue" points="523.909,-57.8146 519.387,-67.396 528.897,-62.7259 523.909,-57.8146"/>
</g>
<!-- Node14 -->
<g id="node14" class="node"><title>Node14</title>
<g id="a_node14"><a xlink:href="runtime__workspace_8c.html" target="_top" xlink:title="runtime/starpu/control\l/runtime_workspace.c">
<polygon fill="white" stroke="black" points="643,-0.5 643,-30.5 756,-30.5 756,-0.5 643,-0.5"/>
<text text-anchor="start" x="651" y="-18.5" font-family="Helvetica,sans-Serif" font-size="10.00">runtime/starpu/control</text>
<text text-anchor="middle" x="699.5" y="-7.5" font-family="Helvetica,sans-Serif" font-size="10.00">/runtime_workspace.c</text>
</a>
</g>
</g>
<!-- Node9&#45;&gt;Node14 -->
<g id="edge13" class="edge"><title>Node9&#45;&gt;Node14</title>
<path fill="none" stroke="midnightblue" d="M557.457,-64.0917C588.774,-53.5988 628.143,-40.4082 657.487,-30.5765"/>
<polygon fill="midnightblue" stroke="midnightblue" points="555.965,-60.9003 547.595,-67.396 558.189,-67.5376 555.965,-60.9003"/>
</g>
<!-- Node15 -->
<g id="node15" class="node"><title>Node15</title>
<g id="a_node15"><a xlink:href="runtime__task_8c.html" target="_top" xlink:title="runtime/starpu/control\l/runtime_task.c">
<polygon fill="white" stroke="black" points="774,-0.5 774,-30.5 885,-30.5 885,-0.5 774,-0.5"/>
<text text-anchor="start" x="782" y="-18.5" font-family="Helvetica,sans-Serif" font-size="10.00">runtime/starpu/control</text>
<text text-anchor="middle" x="829.5" y="-7.5" font-family="Helvetica,sans-Serif" font-size="10.00">/runtime_task.c</text>
</a>
</g>
</g>
<!-- Node9&#45;&gt;Node15 -->
<g id="edge14" class="edge"><title>Node9&#45;&gt;Node15</title>
<path fill="none" stroke="midnightblue" d="M579.543,-66.8074C663.214,-50.5564 685.735,-47.7092 765.5,-31 768.176,-30.4394 770.913,-29.8565 773.676,-29.2603"/>
<polygon fill="midnightblue" stroke="midnightblue" points="578.735,-63.3989 569.59,-68.7476 580.075,-70.2696 578.735,-63.3989"/>
</g>
</g>
</svg>
