<?xml version="1.0" encoding="UTF-8" standalone="no"?>
<!DOCTYPE svg PUBLIC "-//W3C//DTD SVG 1.1//EN"
 "http://www.w3.org/Graphics/SVG/1.1/DTD/svg11.dtd">
<!-- Generated by graphviz version 2.38.0 (20140413.2041)
 -->
<!-- Title: build/runtime/starpu/include/al4san_runtime.h Pages: 1 -->
<svg width="766pt" height="106pt"
 viewBox="0.00 0.00 766.00 106.00" xmlns="http://www.w3.org/2000/svg" xmlns:xlink="http://www.w3.org/1999/xlink">
<g id="graph0" class="graph" transform="scale(1 1) rotate(0) translate(4 102)">
<title>build/runtime/starpu/include/al4san_runtime.h</title>
<polygon fill="white" stroke="none" points="-4,4 -4,-102 762,-102 762,4 -4,4"/>
<!-- Node1 -->
<g id="node1" class="node"><title>Node1</title>
<polygon fill="#bfbfbf" stroke="black" points="313.5,-67.5 313.5,-97.5 441.5,-97.5 441.5,-67.5 313.5,-67.5"/>
<text text-anchor="start" x="321.5" y="-85.5" font-family="Helvetica,sans-Serif" font-size="10.00">build/runtime/starpu</text>
<text text-anchor="middle" x="377.5" y="-74.5" font-family="Helvetica,sans-Serif" font-size="10.00">/include/al4san_runtime.h</text>
</g>
<!-- Node2 -->
<g id="node2" class="node"><title>Node2</title>
<g id="a_node2"><a xlink:href="runtime__async_8c.html" target="_top" xlink:title="runtime/starpu/control\l/runtime_async.c">
<polygon fill="white" stroke="black" points="0,-0.5 0,-30.5 111,-30.5 111,-0.5 0,-0.5"/>
<text text-anchor="start" x="8" y="-18.5" font-family="Helvetica,sans-Serif" font-size="10.00">runtime/starpu/control</text>
<text text-anchor="middle" x="55.5" y="-7.5" font-family="Helvetica,sans-Serif" font-size="10.00">/runtime_async.c</text>
</a>
</g>
</g>
<!-- Node1&#45;&gt;Node2 -->
<g id="edge1" class="edge"><title>Node1&#45;&gt;Node2</title>
<path fill="none" stroke="midnightblue" d="M303.182,-67.5552C251.57,-57.7236 181.253,-44.0361 119.5,-31 116.825,-30.4352 114.089,-29.8489 111.326,-29.2501"/>
<polygon fill="midnightblue" stroke="midnightblue" points="302.769,-71.0393 313.247,-69.4688 304.077,-64.1625 302.769,-71.0393"/>
</g>
<!-- Node3 -->
<g id="node3" class="node"><title>Node3</title>
<g id="a_node3"><a xlink:href="runtime__context_8c.html" target="_top" xlink:title="runtime/starpu/control\l/runtime_context.c">
<polygon fill="white" stroke="black" points="129,-0.5 129,-30.5 240,-30.5 240,-0.5 129,-0.5"/>
<text text-anchor="start" x="137" y="-18.5" font-family="Helvetica,sans-Serif" font-size="10.00">runtime/starpu/control</text>
<text text-anchor="middle" x="184.5" y="-7.5" font-family="Helvetica,sans-Serif" font-size="10.00">/runtime_context.c</text>
</a>
</g>
</g>
<!-- Node1&#45;&gt;Node3 -->
<g id="edge2" class="edge"><title>Node1&#45;&gt;Node3</title>
<path fill="none" stroke="midnightblue" d="M325.811,-64.0917C294.655,-53.5988 255.489,-40.4082 226.296,-30.5765"/>
<polygon fill="midnightblue" stroke="midnightblue" points="325.028,-67.5211 335.622,-67.396 327.262,-60.8872 325.028,-67.5211"/>
</g>
<!-- Node4 -->
<g id="node4" class="node"><title>Node4</title>
<g id="a_node4"><a xlink:href="runtime__control_8c.html" target="_top" xlink:title="runtime/starpu/control\l/runtime_control.c">
<polygon fill="white" stroke="black" points="258,-0.5 258,-30.5 369,-30.5 369,-0.5 258,-0.5"/>
<text text-anchor="start" x="266" y="-18.5" font-family="Helvetica,sans-Serif" font-size="10.00">runtime/starpu/control</text>
<text text-anchor="middle" x="313.5" y="-7.5" font-family="Helvetica,sans-Serif" font-size="10.00">/runtime_control.c</text>
</a>
</g>
</g>
<!-- Node1&#45;&gt;Node4 -->
<g id="edge3" class="edge"><title>Node1&#45;&gt;Node4</title>
<path fill="none" stroke="midnightblue" d="M356.355,-60.0243C346.819,-50.3398 335.825,-39.1739 327.36,-30.5765"/>
<polygon fill="midnightblue" stroke="midnightblue" points="354.103,-62.7259 363.613,-67.396 359.091,-57.8146 354.103,-62.7259"/>
</g>
<!-- Node5 -->
<g id="node5" class="node"><title>Node5</title>
<g id="a_node5"><a xlink:href="runtime__options_8c.html" target="_top" xlink:title="runtime/starpu/control\l/runtime_options.c">
<polygon fill="white" stroke="black" points="387,-0.5 387,-30.5 498,-30.5 498,-0.5 387,-0.5"/>
<text text-anchor="start" x="395" y="-18.5" font-family="Helvetica,sans-Serif" font-size="10.00">runtime/starpu/control</text>
<text text-anchor="middle" x="442.5" y="-7.5" font-family="Helvetica,sans-Serif" font-size="10.00">/runtime_options.c</text>
</a>
</g>
</g>
<!-- Node1&#45;&gt;Node5 -->
<g id="edge4" class="edge"><title>Node1&#45;&gt;Node5</title>
<path fill="none" stroke="midnightblue" d="M398.689,-60.3115C408.439,-50.5612 419.741,-39.259 428.423,-30.5765"/>
<polygon fill="midnightblue" stroke="midnightblue" points="396.2,-57.85 391.604,-67.396 401.15,-62.7998 396.2,-57.85"/>
</g>
<!-- Node6 -->
<g id="node6" class="node"><title>Node6</title>
<g id="a_node6"><a xlink:href="runtime__workspace_8c.html" target="_top" xlink:title="runtime/starpu/control\l/runtime_workspace.c">
<polygon fill="white" stroke="black" points="516,-0.5 516,-30.5 629,-30.5 629,-0.5 516,-0.5"/>
<text text-anchor="start" x="524" y="-18.5" font-family="Helvetica,sans-Serif" font-size="10.00">runtime/starpu/control</text>
<text text-anchor="middle" x="572.5" y="-7.5" font-family="Helvetica,sans-Serif" font-size="10.00">/runtime_workspace.c</text>
</a>
</g>
</g>
<!-- Node1&#45;&gt;Node6 -->
<g id="edge5" class="edge"><title>Node1&#45;&gt;Node6</title>
<path fill="none" stroke="midnightblue" d="M429.317,-64.2278C460.861,-53.7131 500.648,-40.4508 530.27,-30.5765"/>
<polygon fill="midnightblue" stroke="midnightblue" points="428.192,-60.9132 419.812,-67.396 430.406,-67.554 428.192,-60.9132"/>
</g>
<!-- Node7 -->
<g id="node7" class="node"><title>Node7</title>
<g id="a_node7"><a xlink:href="runtime__task_8c.html" target="_top" xlink:title="runtime/starpu/control\l/runtime_task.c">
<polygon fill="white" stroke="black" points="647,-0.5 647,-30.5 758,-30.5 758,-0.5 647,-0.5"/>
<text text-anchor="start" x="655" y="-18.5" font-family="Helvetica,sans-Serif" font-size="10.00">runtime/starpu/control</text>
<text text-anchor="middle" x="702.5" y="-7.5" font-family="Helvetica,sans-Serif" font-size="10.00">/runtime_task.c</text>
</a>
</g>
</g>
<!-- Node1&#45;&gt;Node7 -->
<g id="edge6" class="edge"><title>Node1&#45;&gt;Node7</title>
<path fill="none" stroke="midnightblue" d="M451.568,-67.8155C503.883,-57.9921 575.593,-44.2086 638.5,-31 641.176,-30.4381 643.913,-29.8542 646.675,-29.2572"/>
<polygon fill="midnightblue" stroke="midnightblue" points="450.887,-64.3822 441.702,-69.6643 452.176,-71.2625 450.887,-64.3822"/>
</g>
</g>
</svg>
