<?xml version="1.0" encoding="UTF-8" standalone="no"?>
<!DOCTYPE svg PUBLIC "-//W3C//DTD SVG 1.1//EN"
 "http://www.w3.org/Graphics/SVG/1.1/DTD/svg11.dtd">
<!-- Generated by graphviz version 2.38.0 (20140413.2041)
 -->
<!-- Title: control/al4san_common.h Pages: 1 -->
<!--zoomable 252 -->
<svg id="main" version="1.1" xmlns="http://www.w3.org/2000/svg" xmlns:xlink="http://www.w3.org/1999/xlink" xml:space="preserve" onload="init(evt)">
<style type="text/css"><![CDATA[
.edge:hover path { stroke: red; }
.edge:hover polygon { stroke: red; fill: red; }
]]></style>
<script type="text/javascript"><![CDATA[
var edges = document.getElementsByTagName('g');
if (edges && edges.length) {
  for (var i=0;i<edges.length;i++) {
    if (edges[i].id.substr(0,4)=='edge') {
      edges[i].setAttribute('class','edge');
    }
  }
}
]]></script>
        <defs>
                <circle id="rim" cx="0" cy="0" r="7"/>
                <circle id="rim2" cx="0" cy="0" r="3.5"/>
                <g id="zoomPlus">
                        <use xlink:href="#rim" fill="#404040">
                                <set attributeName="fill" to="#808080" begin="zoomplus.mouseover" end="zoomplus.mouseout"/>
                        </use>
                        <path d="M-4,0h8M0,-4v8" fill="none" stroke="white" stroke-width="1.5" pointer-events="none"/>
                </g>
                <g id="zoomMin">
                        <use xlink:href="#rim" fill="#404040">
                                <set attributeName="fill" to="#808080" begin="zoomminus.mouseover" end="zoomminus.mouseout"/>
                        </use>
                        <path d="M-4,0h8" fill="none" stroke="white" stroke-width="1.5" pointer-events="none"/>
                </g>
                <g id="dirArrow">
                        <path fill="none" stroke="white" stroke-width="1.5" d="M0,-3.0v7 M-2.5,-0.5L0,-3.0L2.5,-0.5"/>
                </g>
               <g id="resetDef">
                       <use xlink:href="#rim2" fill="#404040">
                               <set attributeName="fill" to="#808080" begin="reset.mouseover" end="reset.mouseout"/>
                       </use>
               </g>
        </defs>

<script type="text/javascript">
var viewWidth = 590;
var viewHeight = 252;
var sectionId = 'dynsection-0';
</script>
<script xlink:href="svgpan.js"/>
<svg id="graph" class="graph">
<g id="viewport">
<title>control/al4san_common.h</title>
<polygon fill="white" stroke="none" points="-4,4 -4,-248 586,-248 586,4 -4,4"/>
<!-- Node1 -->
<g id="node1" class="node"><title>Node1</title>
<polygon fill="#bfbfbf" stroke="black" points="124.5,-224.5 124.5,-243.5 252.5,-243.5 252.5,-224.5 124.5,-224.5"/>
<text text-anchor="middle" x="188.5" y="-231.5" font-family="Helvetica,sans-Serif" font-size="10.00">control/al4san_common.h</text>
</g>
<!-- Node2 -->
<g id="node2" class="node"><title>Node2</title>
<polygon fill="white" stroke="#bfbfbf" points="0,-168.5 0,-187.5 51,-187.5 51,-168.5 0,-168.5"/>
<text text-anchor="middle" x="25.5" y="-175.5" font-family="Helvetica,sans-Serif" font-size="10.00">unistd.h</text>
</g>
<!-- Node1&#45;&gt;Node2 -->
<g id="edge1" class="edge"><title>Node1&#45;&gt;Node2</title>
<path fill="none" stroke="midnightblue" d="M162.672,-224.444C135.251,-215.359 91.7225,-200.939 61.0676,-190.783"/>
<polygon fill="midnightblue" stroke="midnightblue" points="61.8003,-187.339 51.207,-187.516 59.5989,-193.984 61.8003,-187.339"/>
</g>
<!-- Node3 -->
<g id="node3" class="node"><title>Node3</title>
<polygon fill="white" stroke="#bfbfbf" points="53.5,-0.5 53.5,-19.5 105.5,-19.5 105.5,-0.5 53.5,-0.5"/>
<text text-anchor="middle" x="79.5" y="-7.5" font-family="Helvetica,sans-Serif" font-size="10.00">stdarg.h</text>
</g>
<!-- Node1&#45;&gt;Node3 -->
<g id="edge2" class="edge"><title>Node1&#45;&gt;Node3</title>
<path fill="none" stroke="midnightblue" d="M153.519,-224.429C134.108,-217.791 111.355,-206.509 98.5,-188 64.7622,-139.423 70.8472,-64.5642 76.0702,-29.8609"/>
<polygon fill="midnightblue" stroke="midnightblue" points="79.5675,-30.1651 77.7497,-19.7274 72.6617,-29.0205 79.5675,-30.1651"/>
</g>
<!-- Node4 -->
<g id="node4" class="node"><title>Node4</title>
<polygon fill="white" stroke="#bfbfbf" points="108,-168.5 108,-187.5 161,-187.5 161,-168.5 108,-168.5"/>
<text text-anchor="middle" x="134.5" y="-175.5" font-family="Helvetica,sans-Serif" font-size="10.00">al4san.h</text>
</g>
<!-- Node1&#45;&gt;Node4 -->
<g id="edge3" class="edge"><title>Node1&#45;&gt;Node4</title>
<path fill="none" stroke="midnightblue" d="M179.583,-224.083C171.72,-216.22 160.069,-204.569 150.581,-195.081"/>
<polygon fill="midnightblue" stroke="midnightblue" points="152.797,-192.347 143.251,-187.751 147.847,-197.297 152.797,-192.347"/>
</g>
<!-- Node5 -->
<g id="node5" class="node"><title>Node5</title>
<g id="a_node5"><a xlink:href="al4san__auxiliary_8h.html" target="_top" xlink:title="control/al4san_auxiliary.h">
<polygon fill="white" stroke="black" points="179,-168.5 179,-187.5 306,-187.5 306,-168.5 179,-168.5"/>
<text text-anchor="middle" x="242.5" y="-175.5" font-family="Helvetica,sans-Serif" font-size="10.00">control/al4san_auxiliary.h</text>
</a>
</g>
</g>
<!-- Node1&#45;&gt;Node5 -->
<g id="edge4" class="edge"><title>Node1&#45;&gt;Node5</title>
<path fill="none" stroke="midnightblue" d="M197.417,-224.083C205.28,-216.22 216.931,-204.569 226.419,-195.081"/>
<polygon fill="midnightblue" stroke="midnightblue" points="229.153,-197.297 233.749,-187.751 224.203,-192.347 229.153,-197.297"/>
</g>
<!-- Node12 -->
<g id="node12" class="node"><title>Node12</title>
<g id="a_node12"><a xlink:href="al4san__context_8h.html" target="_top" xlink:title="control/al4san_context.h">
<polygon fill="white" stroke="black" points="324,-168.5 324,-187.5 447,-187.5 447,-168.5 324,-168.5"/>
<text text-anchor="middle" x="385.5" y="-175.5" font-family="Helvetica,sans-Serif" font-size="10.00">control/al4san_context.h</text>
</a>
</g>
</g>
<!-- Node1&#45;&gt;Node12 -->
<g id="edge13" class="edge"><title>Node1&#45;&gt;Node12</title>
<path fill="none" stroke="midnightblue" d="M219.715,-224.444C253.433,-215.201 307.3,-200.436 344.432,-190.257"/>
<polygon fill="midnightblue" stroke="midnightblue" points="345.712,-193.536 354.431,-187.516 343.861,-186.785 345.712,-193.536"/>
</g>
<!-- Node13 -->
<g id="node13" class="node"><title>Node13</title>
<g id="a_node13"><a xlink:href="al4san__async_8h.html" target="_top" xlink:title="control/al4san_async.h">
<polygon fill="white" stroke="black" points="465,-168.5 465,-187.5 582,-187.5 582,-168.5 465,-168.5"/>
<text text-anchor="middle" x="523.5" y="-175.5" font-family="Helvetica,sans-Serif" font-size="10.00">control/al4san_async.h</text>
</a>
</g>
</g>
<!-- Node1&#45;&gt;Node13 -->
<g id="edge15" class="edge"><title>Node1&#45;&gt;Node13</title>
<path fill="none" stroke="midnightblue" d="M241.582,-224.444C301.002,-214.865 397.22,-199.356 460.429,-189.167"/>
<polygon fill="midnightblue" stroke="midnightblue" points="461.351,-192.563 470.667,-187.516 460.237,-185.653 461.351,-192.563"/>
</g>
<!-- Node6 -->
<g id="node6" class="node"><title>Node6</title>
<g id="a_node6"><a xlink:href="struct_8h.html" target="_top" xlink:title="al4san/struct.h">
<polygon fill="white" stroke="black" points="345,-112.5 345,-131.5 426,-131.5 426,-112.5 345,-112.5"/>
<text text-anchor="middle" x="385.5" y="-119.5" font-family="Helvetica,sans-Serif" font-size="10.00">al4san/struct.h</text>
</a>
</g>
</g>
<!-- Node5&#45;&gt;Node6 -->
<g id="edge5" class="edge"><title>Node5&#45;&gt;Node6</title>
<path fill="none" stroke="midnightblue" d="M265.159,-168.444C288.902,-159.478 326.409,-145.314 353.238,-135.183"/>
<polygon fill="midnightblue" stroke="midnightblue" points="354.829,-138.324 362.947,-131.516 352.356,-131.775 354.829,-138.324"/>
</g>
<!-- Node7 -->
<g id="node7" class="node"><title>Node7</title>
<g id="a_node7"><a xlink:href="config_8h.html" target="_top" xlink:title="al4san/config.h">
<polygon fill="white" stroke="black" points="352,-0.5 352,-19.5 435,-19.5 435,-0.5 352,-0.5"/>
<text text-anchor="middle" x="393.5" y="-7.5" font-family="Helvetica,sans-Serif" font-size="10.00">al4san/config.h</text>
</a>
</g>
</g>
<!-- Node6&#45;&gt;Node7 -->
<g id="edge6" class="edge"><title>Node6&#45;&gt;Node7</title>
<path fill="none" stroke="midnightblue" d="M386.128,-112.368C387.419,-94.617 390.397,-53.6664 392.147,-29.5974"/>
<polygon fill="midnightblue" stroke="midnightblue" points="395.641,-29.819 392.875,-19.5914 388.659,-29.3112 395.641,-29.819"/>
</g>
<!-- Node8 -->
<g id="node8" class="node"><title>Node8</title>
<g id="a_node8"><a xlink:href="types_8h.html" target="_top" xlink:title="al4san/types.h">
<polygon fill="white" stroke="black" points="229.5,-56.5 229.5,-75.5 309.5,-75.5 309.5,-56.5 229.5,-56.5"/>
<text text-anchor="middle" x="269.5" y="-63.5" font-family="Helvetica,sans-Serif" font-size="10.00">al4san/types.h</text>
</a>
</g>
</g>
<!-- Node6&#45;&gt;Node8 -->
<g id="edge7" class="edge"><title>Node6&#45;&gt;Node8</title>
<path fill="none" stroke="midnightblue" d="M367.119,-112.444C348.284,-103.675 318.769,-89.9355 297.121,-79.8579"/>
<polygon fill="midnightblue" stroke="midnightblue" points="298.338,-76.5637 287.795,-75.5164 295.383,-82.9098 298.338,-76.5637"/>
</g>
<!-- Node8&#45;&gt;Node3 -->
<g id="edge11" class="edge"><title>Node8&#45;&gt;Node3</title>
<path fill="none" stroke="midnightblue" d="M239.394,-56.4435C205.87,-46.9158 151.695,-31.5187 115.839,-21.328"/>
<polygon fill="midnightblue" stroke="midnightblue" points="116.37,-17.8403 105.794,-18.473 114.456,-24.5736 116.37,-17.8403"/>
</g>
<!-- Node8&#45;&gt;Node7 -->
<g id="edge8" class="edge"><title>Node8&#45;&gt;Node7</title>
<path fill="none" stroke="midnightblue" d="M289.148,-56.4435C309.465,-47.5961 341.403,-33.6875 364.598,-23.5865"/>
<polygon fill="midnightblue" stroke="midnightblue" points="366.173,-26.7181 373.944,-19.5164 363.378,-20.3002 366.173,-26.7181"/>
</g>
<!-- Node9 -->
<g id="node9" class="node"><title>Node9</title>
<polygon fill="white" stroke="#bfbfbf" points="281.5,-0.5 281.5,-19.5 333.5,-19.5 333.5,-0.5 281.5,-0.5"/>
<text text-anchor="middle" x="307.5" y="-7.5" font-family="Helvetica,sans-Serif" font-size="10.00">stddef.h</text>
</g>
<!-- Node8&#45;&gt;Node9 -->
<g id="edge9" class="edge"><title>Node8&#45;&gt;Node9</title>
<path fill="none" stroke="midnightblue" d="M275.775,-56.083C281.142,-48.4554 289.018,-37.2645 295.579,-27.9408"/>
<polygon fill="midnightblue" stroke="midnightblue" points="298.449,-29.9434 301.342,-19.7511 292.725,-25.9149 298.449,-29.9434"/>
</g>
<!-- Node10 -->
<g id="node10" class="node"><title>Node10</title>
<polygon fill="white" stroke="#bfbfbf" points="124,-0.5 124,-19.5 183,-19.5 183,-0.5 124,-0.5"/>
<text text-anchor="middle" x="153.5" y="-7.5" font-family="Helvetica,sans-Serif" font-size="10.00">inttypes.h</text>
</g>
<!-- Node8&#45;&gt;Node10 -->
<g id="edge10" class="edge"><title>Node8&#45;&gt;Node10</title>
<path fill="none" stroke="midnightblue" d="M251.119,-56.4435C232.284,-47.6751 202.769,-33.9355 181.121,-23.8579"/>
<polygon fill="midnightblue" stroke="midnightblue" points="182.338,-20.5637 171.795,-19.5164 179.383,-26.9098 182.338,-20.5637"/>
</g>
<!-- Node11 -->
<g id="node11" class="node"><title>Node11</title>
<polygon fill="white" stroke="#bfbfbf" points="201.5,-0.5 201.5,-19.5 263.5,-19.5 263.5,-0.5 201.5,-0.5"/>
<text text-anchor="middle" x="232.5" y="-7.5" font-family="Helvetica,sans-Serif" font-size="10.00">complex.h</text>
</g>
<!-- Node8&#45;&gt;Node11 -->
<g id="edge12" class="edge"><title>Node8&#45;&gt;Node11</title>
<path fill="none" stroke="midnightblue" d="M263.39,-56.083C258.218,-48.5341 250.654,-37.4948 244.306,-28.2298"/>
<polygon fill="midnightblue" stroke="midnightblue" points="247.036,-26.0221 238.496,-19.7511 241.261,-29.9787 247.036,-26.0221"/>
</g>
<!-- Node12&#45;&gt;Node6 -->
<g id="edge14" class="edge"><title>Node12&#45;&gt;Node6</title>
<path fill="none" stroke="midnightblue" d="M385.5,-168.083C385.5,-161.006 385.5,-150.861 385.5,-141.986"/>
<polygon fill="midnightblue" stroke="midnightblue" points="389,-141.751 385.5,-131.751 382,-141.751 389,-141.751"/>
</g>
<!-- Node13&#45;&gt;Node6 -->
<g id="edge16" class="edge"><title>Node13&#45;&gt;Node6</title>
<path fill="none" stroke="midnightblue" d="M501.633,-168.444C478.721,-159.478 442.525,-145.314 416.634,-135.183"/>
<polygon fill="midnightblue" stroke="midnightblue" points="417.852,-131.901 407.264,-131.516 415.301,-138.42 417.852,-131.901"/>
</g>
</g>
</svg>
        <g id="navigator" transform="translate(0 0)" fill="#404254">
                <rect fill="#f2f5e9" fill-opacity="0.5" stroke="#606060" stroke-width=".5" x="0" y="0" width="60" height="60"/>
                <use id="zoomplus" xlink:href="#zoomPlus" x="17" y="9" onmousedown="handleZoom(evt,'in')"/>
                <use id="zoomminus" xlink:href="#zoomMin" x="42" y="9" onmousedown="handleZoom(evt,'out')"/>
                <use id="reset" xlink:href="#resetDef" x="30" y="36" onmousedown="handleReset()"/>
                <g id="arrowUp" xlink:href="#dirArrow" transform="translate(30 24)" onmousedown="handlePan(0,-1)">
                  <use xlink:href="#rim" fill="#404040">
                        <set attributeName="fill" to="#808080" begin="arrowUp.mouseover" end="arrowUp.mouseout"/>
                  </use>
                  <path fill="none" stroke="white" stroke-width="1.5" d="M0,-3.0v7 M-2.5,-0.5L0,-3.0L2.5,-0.5"/>
                </g>
                <g id="arrowRight" xlink:href="#dirArrow" transform="rotate(90) translate(36 -43)" onmousedown="handlePan(1,0)">
                  <use xlink:href="#rim" fill="#404040">
                        <set attributeName="fill" to="#808080" begin="arrowRight.mouseover" end="arrowRight.mouseout"/>
                  </use>
                  <path fill="none" stroke="white" stroke-width="1.5" d="M0,-3.0v7 M-2.5,-0.5L0,-3.0L2.5,-0.5"/>
                </g>
                <g id="arrowDown" xlink:href="#dirArrow" transform="rotate(180) translate(-30 -48)" onmousedown="handlePan(0,1)">
                  <use xlink:href="#rim" fill="#404040">
                        <set attributeName="fill" to="#808080" begin="arrowDown.mouseover" end="arrowDown.mouseout"/>
                  </use>
                  <path fill="none" stroke="white" stroke-width="1.5" d="M0,-3.0v7 M-2.5,-0.5L0,-3.0L2.5,-0.5"/>
                </g>
                <g id="arrowLeft" xlink:href="#dirArrow" transform="rotate(270) translate(-36 17)" onmousedown="handlePan(-1,0)">
                  <use xlink:href="#rim" fill="#404040">
                        <set attributeName="fill" to="#808080" begin="arrowLeft.mouseover" end="arrowLeft.mouseout"/>
                  </use>
                  <path fill="none" stroke="white" stroke-width="1.5" d="M0,-3.0v7 M-2.5,-0.5L0,-3.0L2.5,-0.5"/>
                </g>
        </g>
        <svg viewBox="0 0 15 15" width="100%" height="30px" preserveAspectRatio="xMaxYMin meet">
         <g id="arrow_out" transform="scale(0.3 0.3)">
          <a xlink:href="al4san__common_8h__incl_org.svg" target="_base">
           <rect id="button" ry="5" rx="5" y="6" x="6" height="38" width="38"
                fill="#f2f5e9" fill-opacity="0.5" stroke="#606060" stroke-width="1.0"/>
           <path id="arrow"
             d="M 11.500037,31.436501 C 11.940474,20.09759 22.043105,11.32322 32.158766,21.979434 L 37.068811,17.246167 C 37.068811,17.246167 37.088388,32 37.088388,32 L 22.160133,31.978069 C 22.160133,31.978069 26.997745,27.140456 26.997745,27.140456 C 18.528582,18.264221 13.291696,25.230495 11.500037,31.436501 z"
             style="fill:#404040;"/>
          </a>
         </g>
        </svg>
</svg>
