<?xml version="1.0" encoding="UTF-8" standalone="no"?>
<!DOCTYPE svg PUBLIC "-//W3C//DTD SVG 1.1//EN"
 "http://www.w3.org/Graphics/SVG/1.1/DTD/svg11.dtd">
<!-- Generated by graphviz version 2.38.0 (20140413.2041)
 -->
<!-- Title: build/runtime/starpu/include/al4san_runtime.h Pages: 1 -->
<svg width="801pt" height="319pt"
 viewBox="0.00 0.00 800.50 319.00" xmlns="http://www.w3.org/2000/svg" xmlns:xlink="http://www.w3.org/1999/xlink">
<g id="graph0" class="graph" transform="scale(1 1) rotate(0) translate(4 315)">
<title>build/runtime/starpu/include/al4san_runtime.h</title>
<polygon fill="white" stroke="none" points="-4,4 -4,-315 796.5,-315 796.5,4 -4,4"/>
<!-- Node1 -->
<g id="node1" class="node"><title>Node1</title>
<polygon fill="#bfbfbf" stroke="black" points="152,-280.5 152,-310.5 280,-310.5 280,-280.5 152,-280.5"/>
<text text-anchor="start" x="160" y="-298.5" font-family="Helvetica,sans-Serif" font-size="10.00">build/runtime/starpu</text>
<text text-anchor="middle" x="216" y="-287.5" font-family="Helvetica,sans-Serif" font-size="10.00">/include/al4san_runtime.h</text>
</g>
<!-- Node2 -->
<g id="node2" class="node"><title>Node2</title>
<g id="a_node2"><a xlink:href="config_8h.html" target="_top" xlink:title="al4san/config.h">
<polygon fill="white" stroke="black" points="142.5,-0.5 142.5,-19.5 225.5,-19.5 225.5,-0.5 142.5,-0.5"/>
<text text-anchor="middle" x="184" y="-7.5" font-family="Helvetica,sans-Serif" font-size="10.00">al4san/config.h</text>
</a>
</g>
</g>
<!-- Node1&#45;&gt;Node2 -->
<g id="edge1" class="edge"><title>Node1&#45;&gt;Node2</title>
<path fill="none" stroke="midnightblue" d="M151.778,-287.391C88.1068,-276.357 0,-248.528 0,-179 0,-179 0,-179 0,-121 0,-58.9847 77.954,-31.0972 132.382,-19.184"/>
<polygon fill="midnightblue" stroke="midnightblue" points="133.165,-22.5962 142.248,-17.1408 131.746,-15.7417 133.165,-22.5962"/>
</g>
<!-- Node3 -->
<g id="node3" class="node"><title>Node3</title>
<polygon fill="white" stroke="#bfbfbf" points="28,-168.5 28,-187.5 80,-187.5 80,-168.5 28,-168.5"/>
<text text-anchor="middle" x="54" y="-175.5" font-family="Helvetica,sans-Serif" font-size="10.00">starpu.h</text>
</g>
<!-- Node1&#45;&gt;Node3 -->
<g id="edge2" class="edge"><title>Node1&#45;&gt;Node3</title>
<path fill="none" stroke="midnightblue" d="M151.828,-291.053C118.086,-285.634 79.2214,-272.948 57,-244 47.0129,-230.99 47.389,-211.83 49.5859,-197.68"/>
<polygon fill="midnightblue" stroke="midnightblue" points="53.0688,-198.109 51.5749,-187.62 46.2017,-196.751 53.0688,-198.109"/>
</g>
<!-- Node4 -->
<g id="node4" class="node"><title>Node4</title>
<polygon fill="white" stroke="#bfbfbf" points="66.5,-224.5 66.5,-243.5 157.5,-243.5 157.5,-224.5 66.5,-224.5"/>
<text text-anchor="middle" x="112" y="-231.5" font-family="Helvetica,sans-Serif" font-size="10.00">starpu_profiling.h</text>
</g>
<!-- Node1&#45;&gt;Node4 -->
<g id="edge3" class="edge"><title>Node1&#45;&gt;Node4</title>
<path fill="none" stroke="midnightblue" d="M191.353,-280.399C174.683,-270.862 152.769,-258.325 136.195,-248.842"/>
<polygon fill="midnightblue" stroke="midnightblue" points="137.551,-245.586 127.133,-243.658 134.075,-251.662 137.551,-245.586"/>
</g>
<!-- Node5 -->
<g id="node5" class="node"><title>Node5</title>
<g id="a_node5"><a xlink:href="runtime__task_8h.html" target="_top" xlink:title="runtime_task.h">
<polygon fill="white" stroke="black" points="175.5,-224.5 175.5,-243.5 256.5,-243.5 256.5,-224.5 175.5,-224.5"/>
<text text-anchor="middle" x="216" y="-231.5" font-family="Helvetica,sans-Serif" font-size="10.00">runtime_task.h</text>
</a>
</g>
</g>
<!-- Node1&#45;&gt;Node5 -->
<g id="edge4" class="edge"><title>Node1&#45;&gt;Node5</title>
<path fill="none" stroke="midnightblue" d="M216,-280.399C216,-272.466 216,-262.458 216,-253.858"/>
<polygon fill="midnightblue" stroke="midnightblue" points="219.5,-253.658 216,-243.658 212.5,-253.658 219.5,-253.658"/>
</g>
<!-- Node6 -->
<g id="node6" class="node"><title>Node6</title>
<g id="a_node6"><a xlink:href="runtime__codelet_8h_source.html" target="_top" xlink:title="runtime_codelet.h">
<polygon fill="white" stroke="black" points="98,-168.5 98,-187.5 192,-187.5 192,-168.5 98,-168.5"/>
<text text-anchor="middle" x="145" y="-175.5" font-family="Helvetica,sans-Serif" font-size="10.00">runtime_codelet.h</text>
</a>
</g>
</g>
<!-- Node1&#45;&gt;Node6 -->
<g id="edge25" class="edge"><title>Node1&#45;&gt;Node6</title>
<path fill="none" stroke="midnightblue" d="M237.235,-280.463C256.048,-266.241 278.584,-243.602 265,-224 256.062,-211.102 220.542,-198.756 190.447,-190.269"/>
<polygon fill="midnightblue" stroke="midnightblue" points="191.064,-186.809 180.495,-187.543 189.215,-193.561 191.064,-186.809"/>
</g>
<!-- Node7 -->
<g id="node7" class="node"><title>Node7</title>
<g id="a_node7"><a xlink:href="al4san__common_8h.html" target="_top" xlink:title="control/al4san_common.h">
<polygon fill="white" stroke="black" points="422,-224.5 422,-243.5 550,-243.5 550,-224.5 422,-224.5"/>
<text text-anchor="middle" x="486" y="-231.5" font-family="Helvetica,sans-Serif" font-size="10.00">control/al4san_common.h</text>
</a>
</g>
</g>
<!-- Node1&#45;&gt;Node7 -->
<g id="edge8" class="edge"><title>Node1&#45;&gt;Node7</title>
<path fill="none" stroke="midnightblue" d="M279.644,-280.475C327.954,-269.829 393.371,-255.413 437.494,-245.689"/>
<polygon fill="midnightblue" stroke="midnightblue" points="438.387,-249.077 447.4,-243.506 436.881,-242.241 438.387,-249.077"/>
</g>
<!-- Node19 -->
<g id="node19" class="node"><title>Node19</title>
<g id="a_node19"><a xlink:href="runtime__workspace_8h.html" target="_top" xlink:title="Al4san StarPU workspace header. ">
<polygon fill="white" stroke="black" points="568,-224.5 568,-243.5 678,-243.5 678,-224.5 568,-224.5"/>
<text text-anchor="middle" x="623" y="-231.5" font-family="Helvetica,sans-Serif" font-size="10.00">runtime_workspace.h</text>
</a>
</g>
</g>
<!-- Node1&#45;&gt;Node19 -->
<g id="edge26" class="edge"><title>Node1&#45;&gt;Node19</title>
<path fill="none" stroke="midnightblue" d="M280.041,-285.138C355.883,-274.05 481.518,-255.683 557.844,-244.525"/>
<polygon fill="midnightblue" stroke="midnightblue" points="558.429,-247.977 567.817,-243.067 557.416,-241.051 558.429,-247.977"/>
</g>
<!-- Node5&#45;&gt;Node3 -->
<g id="edge5" class="edge"><title>Node5&#45;&gt;Node3</title>
<path fill="none" stroke="midnightblue" d="M190.331,-224.444C163.077,-215.359 119.816,-200.939 89.3494,-190.783"/>
<polygon fill="midnightblue" stroke="midnightblue" points="90.1429,-187.358 79.5493,-187.516 87.9293,-193.999 90.1429,-187.358"/>
</g>
<!-- Node5&#45;&gt;Node6 -->
<g id="edge6" class="edge"><title>Node5&#45;&gt;Node6</title>
<path fill="none" stroke="midnightblue" d="M204.593,-224.324C193.891,-216.185 177.659,-203.839 164.837,-194.087"/>
<polygon fill="midnightblue" stroke="midnightblue" points="166.693,-191.102 156.615,-187.834 162.456,-196.673 166.693,-191.102"/>
</g>
<!-- Node6&#45;&gt;Node2 -->
<g id="edge7" class="edge"><title>Node6&#45;&gt;Node2</title>
<path fill="none" stroke="midnightblue" d="M147.097,-168.075C153.236,-141.945 171.264,-65.2106 179.636,-29.577"/>
<polygon fill="midnightblue" stroke="midnightblue" points="183.107,-30.1036 181.987,-19.5681 176.293,-28.5025 183.107,-30.1036"/>
</g>
<!-- Node8 -->
<g id="node8" class="node"><title>Node8</title>
<polygon fill="white" stroke="#bfbfbf" points="631.5,-168.5 631.5,-187.5 682.5,-187.5 682.5,-168.5 631.5,-168.5"/>
<text text-anchor="middle" x="657" y="-175.5" font-family="Helvetica,sans-Serif" font-size="10.00">unistd.h</text>
</g>
<!-- Node7&#45;&gt;Node8 -->
<g id="edge9" class="edge"><title>Node7&#45;&gt;Node8</title>
<path fill="none" stroke="midnightblue" d="M513.095,-224.444C542.413,-215.185 589.279,-200.385 621.516,-190.205"/>
<polygon fill="midnightblue" stroke="midnightblue" points="622.946,-193.424 631.428,-187.075 620.838,-186.749 622.946,-193.424"/>
</g>
<!-- Node9 -->
<g id="node9" class="node"><title>Node9</title>
<polygon fill="white" stroke="#bfbfbf" points="623,-0.5 623,-19.5 675,-19.5 675,-0.5 623,-0.5"/>
<text text-anchor="middle" x="649" y="-7.5" font-family="Helvetica,sans-Serif" font-size="10.00">stdarg.h</text>
</g>
<!-- Node7&#45;&gt;Node9 -->
<g id="edge10" class="edge"><title>Node7&#45;&gt;Node9</title>
<path fill="none" stroke="midnightblue" d="M541.463,-224.467C598.892,-215.067 681.566,-199.73 691,-188 729.538,-140.085 685.164,-62.6742 661.702,-28.3464"/>
<polygon fill="midnightblue" stroke="midnightblue" points="664.347,-26.0242 655.725,-19.867 658.626,-30.0571 664.347,-26.0242"/>
</g>
<!-- Node10 -->
<g id="node10" class="node"><title>Node10</title>
<polygon fill="white" stroke="#bfbfbf" points="739.5,-168.5 739.5,-187.5 792.5,-187.5 792.5,-168.5 739.5,-168.5"/>
<text text-anchor="middle" x="766" y="-175.5" font-family="Helvetica,sans-Serif" font-size="10.00">al4san.h</text>
</g>
<!-- Node7&#45;&gt;Node10 -->
<g id="edge11" class="edge"><title>Node7&#45;&gt;Node10</title>
<path fill="none" stroke="midnightblue" d="M533.695,-224.454C581.995,-215.698 658.806,-201.494 725,-188 726.285,-187.738 727.593,-187.468 728.912,-187.193"/>
<polygon fill="midnightblue" stroke="midnightblue" points="730.066,-190.526 739.118,-185.022 728.609,-183.68 730.066,-190.526"/>
</g>
<!-- Node11 -->
<g id="node11" class="node"><title>Node11</title>
<g id="a_node11"><a xlink:href="al4san__auxiliary_8h.html" target="_top" xlink:title="control/al4san_auxiliary.h">
<polygon fill="white" stroke="black" points="210.5,-168.5 210.5,-187.5 337.5,-187.5 337.5,-168.5 210.5,-168.5"/>
<text text-anchor="middle" x="274" y="-175.5" font-family="Helvetica,sans-Serif" font-size="10.00">control/al4san_auxiliary.h</text>
</a>
</g>
</g>
<!-- Node7&#45;&gt;Node11 -->
<g id="edge12" class="edge"><title>Node7&#45;&gt;Node11</title>
<path fill="none" stroke="midnightblue" d="M452.408,-224.444C415.813,-215.122 357.162,-200.183 317.174,-189.997"/>
<polygon fill="midnightblue" stroke="midnightblue" points="317.989,-186.593 307.435,-187.516 316.261,-193.377 317.989,-186.593"/>
</g>
<!-- Node17 -->
<g id="node17" class="node"><title>Node17</title>
<g id="a_node17"><a xlink:href="al4san__context_8h.html" target="_top" xlink:title="control/al4san_context.h">
<polygon fill="white" stroke="black" points="355.5,-168.5 355.5,-187.5 478.5,-187.5 478.5,-168.5 355.5,-168.5"/>
<text text-anchor="middle" x="417" y="-175.5" font-family="Helvetica,sans-Serif" font-size="10.00">control/al4san_context.h</text>
</a>
</g>
</g>
<!-- Node7&#45;&gt;Node17 -->
<g id="edge21" class="edge"><title>Node7&#45;&gt;Node17</title>
<path fill="none" stroke="midnightblue" d="M474.914,-224.324C464.514,-216.185 448.739,-203.839 436.278,-194.087"/>
<polygon fill="midnightblue" stroke="midnightblue" points="438.32,-191.241 428.288,-187.834 434.006,-196.753 438.32,-191.241"/>
</g>
<!-- Node18 -->
<g id="node18" class="node"><title>Node18</title>
<g id="a_node18"><a xlink:href="al4san__async_8h.html" target="_top" xlink:title="control/al4san_async.h">
<polygon fill="white" stroke="black" points="496.5,-168.5 496.5,-187.5 613.5,-187.5 613.5,-168.5 496.5,-168.5"/>
<text text-anchor="middle" x="555" y="-175.5" font-family="Helvetica,sans-Serif" font-size="10.00">control/al4san_async.h</text>
</a>
</g>
</g>
<!-- Node7&#45;&gt;Node18 -->
<g id="edge23" class="edge"><title>Node7&#45;&gt;Node18</title>
<path fill="none" stroke="midnightblue" d="M497.086,-224.324C507.486,-216.185 523.261,-203.839 535.722,-194.087"/>
<polygon fill="midnightblue" stroke="midnightblue" points="537.994,-196.753 543.712,-187.834 533.68,-191.241 537.994,-196.753"/>
</g>
<!-- Node12 -->
<g id="node12" class="node"><title>Node12</title>
<g id="a_node12"><a xlink:href="struct_8h.html" target="_top" xlink:title="al4san/struct.h">
<polygon fill="white" stroke="black" points="363.5,-112.5 363.5,-131.5 444.5,-131.5 444.5,-112.5 363.5,-112.5"/>
<text text-anchor="middle" x="404" y="-119.5" font-family="Helvetica,sans-Serif" font-size="10.00">al4san/struct.h</text>
</a>
</g>
</g>
<!-- Node11&#45;&gt;Node12 -->
<g id="edge13" class="edge"><title>Node11&#45;&gt;Node12</title>
<path fill="none" stroke="midnightblue" d="M294.599,-168.444C315.993,-159.557 349.681,-145.563 374.024,-135.451"/>
<polygon fill="midnightblue" stroke="midnightblue" points="375.605,-138.585 383.497,-131.516 372.92,-132.12 375.605,-138.585"/>
</g>
<!-- Node12&#45;&gt;Node2 -->
<g id="edge14" class="edge"><title>Node12&#45;&gt;Node2</title>
<path fill="none" stroke="midnightblue" d="M386.737,-112.368C348.342,-93.1711 255.684,-46.8418 210.148,-24.074"/>
<polygon fill="midnightblue" stroke="midnightblue" points="211.692,-20.9331 201.183,-19.5914 208.562,-27.1941 211.692,-20.9331"/>
</g>
<!-- Node13 -->
<g id="node13" class="node"><title>Node13</title>
<g id="a_node13"><a xlink:href="types_8h.html" target="_top" xlink:title="al4san/types.h">
<polygon fill="white" stroke="black" points="364,-56.5 364,-75.5 444,-75.5 444,-56.5 364,-56.5"/>
<text text-anchor="middle" x="404" y="-63.5" font-family="Helvetica,sans-Serif" font-size="10.00">al4san/types.h</text>
</a>
</g>
</g>
<!-- Node12&#45;&gt;Node13 -->
<g id="edge15" class="edge"><title>Node12&#45;&gt;Node13</title>
<path fill="none" stroke="midnightblue" d="M404,-112.083C404,-105.006 404,-94.8611 404,-85.9865"/>
<polygon fill="midnightblue" stroke="midnightblue" points="407.5,-85.751 404,-75.7511 400.5,-85.7511 407.5,-85.751"/>
</g>
<!-- Node13&#45;&gt;Node2 -->
<g id="edge16" class="edge"><title>Node13&#45;&gt;Node2</title>
<path fill="none" stroke="midnightblue" d="M369.14,-56.4435C331.084,-47.1024 270.042,-32.1194 228.54,-21.9326"/>
<polygon fill="midnightblue" stroke="midnightblue" points="229.243,-18.5012 218.697,-19.5164 227.574,-25.2994 229.243,-18.5012"/>
</g>
<!-- Node13&#45;&gt;Node9 -->
<g id="edge19" class="edge"><title>Node13&#45;&gt;Node9</title>
<path fill="none" stroke="midnightblue" d="M442.821,-56.4435C489.512,-46.1524 567.272,-29.0136 612.774,-18.9844"/>
<polygon fill="midnightblue" stroke="midnightblue" points="613.778,-22.3472 622.791,-16.7767 612.272,-15.5113 613.778,-22.3472"/>
</g>
<!-- Node14 -->
<g id="node14" class="node"><title>Node14</title>
<polygon fill="white" stroke="#bfbfbf" points="453,-0.5 453,-19.5 505,-19.5 505,-0.5 453,-0.5"/>
<text text-anchor="middle" x="479" y="-7.5" font-family="Helvetica,sans-Serif" font-size="10.00">stddef.h</text>
</g>
<!-- Node13&#45;&gt;Node14 -->
<g id="edge17" class="edge"><title>Node13&#45;&gt;Node14</title>
<path fill="none" stroke="midnightblue" d="M416.05,-56.324C427.463,-48.1066 444.831,-35.6017 458.435,-25.8069"/>
<polygon fill="midnightblue" stroke="midnightblue" points="460.66,-28.5174 466.731,-19.8339 456.57,-22.8366 460.66,-28.5174"/>
</g>
<!-- Node15 -->
<g id="node15" class="node"><title>Node15</title>
<polygon fill="white" stroke="#bfbfbf" points="295.5,-0.5 295.5,-19.5 354.5,-19.5 354.5,-0.5 295.5,-0.5"/>
<text text-anchor="middle" x="325" y="-7.5" font-family="Helvetica,sans-Serif" font-size="10.00">inttypes.h</text>
</g>
<!-- Node13&#45;&gt;Node15 -->
<g id="edge18" class="edge"><title>Node13&#45;&gt;Node15</title>
<path fill="none" stroke="midnightblue" d="M391.307,-56.324C379.099,-47.979 360.422,-35.2122 345.997,-25.3524"/>
<polygon fill="midnightblue" stroke="midnightblue" points="347.892,-22.4082 337.661,-19.6545 343.942,-28.1871 347.892,-22.4082"/>
</g>
<!-- Node16 -->
<g id="node16" class="node"><title>Node16</title>
<polygon fill="white" stroke="#bfbfbf" points="373,-0.5 373,-19.5 435,-19.5 435,-0.5 373,-0.5"/>
<text text-anchor="middle" x="404" y="-7.5" font-family="Helvetica,sans-Serif" font-size="10.00">complex.h</text>
</g>
<!-- Node13&#45;&gt;Node16 -->
<g id="edge20" class="edge"><title>Node13&#45;&gt;Node16</title>
<path fill="none" stroke="midnightblue" d="M404,-56.083C404,-49.0059 404,-38.8611 404,-29.9865"/>
<polygon fill="midnightblue" stroke="midnightblue" points="407.5,-29.751 404,-19.7511 400.5,-29.7511 407.5,-29.751"/>
</g>
<!-- Node17&#45;&gt;Node12 -->
<g id="edge22" class="edge"><title>Node17&#45;&gt;Node12</title>
<path fill="none" stroke="midnightblue" d="M414.853,-168.083C413.131,-160.927 410.653,-150.635 408.5,-141.691"/>
<polygon fill="midnightblue" stroke="midnightblue" points="411.85,-140.654 406.107,-131.751 405.045,-142.293 411.85,-140.654"/>
</g>
<!-- Node18&#45;&gt;Node12 -->
<g id="edge24" class="edge"><title>Node18&#45;&gt;Node12</title>
<path fill="none" stroke="midnightblue" d="M531.074,-168.444C505.781,-159.399 465.698,-145.064 437.32,-134.916"/>
<polygon fill="midnightblue" stroke="midnightblue" points="438.409,-131.588 427.814,-131.516 436.052,-138.179 438.409,-131.588"/>
</g>
</g>
</svg>
