<?xml version="1.0" encoding="UTF-8" standalone="no"?>
<!DOCTYPE svg PUBLIC "-//W3C//DTD SVG 1.1//EN"
 "http://www.w3.org/Graphics/SVG/1.1/DTD/svg11.dtd">
<!-- Generated by graphviz version 2.38.0 (20140413.2041)
 -->
<!-- Title: control/async.c Pages: 1 -->
<svg width="684pt" height="308pt"
 viewBox="0.00 0.00 683.79 308.00" xmlns="http://www.w3.org/2000/svg" xmlns:xlink="http://www.w3.org/1999/xlink">
<g id="graph0" class="graph" transform="scale(1 1) rotate(0) translate(4 304)">
<title>control/async.c</title>
<polygon fill="white" stroke="none" points="-4,4 -4,-304 679.791,-304 679.791,4 -4,4"/>
<!-- Node1 -->
<g id="node1" class="node"><title>Node1</title>
<polygon fill="#bfbfbf" stroke="black" points="261.791,-280.5 261.791,-299.5 344.791,-299.5 344.791,-280.5 261.791,-280.5"/>
<text text-anchor="middle" x="303.291" y="-287.5" font-family="Helvetica,sans-Serif" font-size="10.00">control/async.c</text>
</g>
<!-- Node2 -->
<g id="node2" class="node"><title>Node2</title>
<polygon fill="white" stroke="#bfbfbf" points="173.291,-224.5 173.291,-243.5 221.291,-243.5 221.291,-224.5 173.291,-224.5"/>
<text text-anchor="middle" x="197.291" y="-231.5" font-family="Helvetica,sans-Serif" font-size="10.00">stdlib.h</text>
</g>
<!-- Node1&#45;&gt;Node2 -->
<g id="edge1" class="edge"><title>Node1&#45;&gt;Node2</title>
<path fill="none" stroke="midnightblue" d="M286.26,-280.324C269.261,-271.664 242.914,-258.242 223.298,-248.249"/>
<polygon fill="midnightblue" stroke="midnightblue" points="224.778,-245.075 214.279,-243.655 221.601,-251.312 224.778,-245.075"/>
</g>
<!-- Node3 -->
<g id="node3" class="node"><title>Node3</title>
<g id="a_node3"><a xlink:href="al4san__common_8h.html" target="_top" xlink:title="control/al4san_common.h">
<polygon fill="white" stroke="black" points="239.291,-224.5 239.291,-243.5 367.291,-243.5 367.291,-224.5 239.291,-224.5"/>
<text text-anchor="middle" x="303.291" y="-231.5" font-family="Helvetica,sans-Serif" font-size="10.00">control/al4san_common.h</text>
</a>
</g>
</g>
<!-- Node1&#45;&gt;Node3 -->
<g id="edge2" class="edge"><title>Node1&#45;&gt;Node3</title>
<path fill="none" stroke="midnightblue" d="M303.291,-280.083C303.291,-273.006 303.291,-262.861 303.291,-253.986"/>
<polygon fill="midnightblue" stroke="midnightblue" points="306.791,-253.751 303.291,-243.751 299.791,-253.751 306.791,-253.751"/>
</g>
<!-- Node16 -->
<g id="node16" class="node"><title>Node16</title>
<g id="a_node16"><a xlink:href="runtime_8h.html" target="_top" xlink:title="al4san/runtime.h">
<polygon fill="white" stroke="black" points="586.791,-168.5 586.791,-187.5 675.791,-187.5 675.791,-168.5 586.791,-168.5"/>
<text text-anchor="middle" x="631.291" y="-175.5" font-family="Helvetica,sans-Serif" font-size="10.00">al4san/runtime.h</text>
</a>
</g>
</g>
<!-- Node1&#45;&gt;Node16 -->
<g id="edge19" class="edge"><title>Node1&#45;&gt;Node16</title>
<path fill="none" stroke="midnightblue" d="M328.755,-280.46C386.882,-260.966 529.434,-213.159 595.989,-190.839"/>
<polygon fill="midnightblue" stroke="midnightblue" points="597.248,-194.108 605.616,-187.61 595.022,-187.472 597.248,-194.108"/>
</g>
<!-- Node4 -->
<g id="node4" class="node"><title>Node4</title>
<polygon fill="white" stroke="#bfbfbf" points="517.791,-168.5 517.791,-187.5 568.791,-187.5 568.791,-168.5 517.791,-168.5"/>
<text text-anchor="middle" x="543.291" y="-175.5" font-family="Helvetica,sans-Serif" font-size="10.00">unistd.h</text>
</g>
<!-- Node3&#45;&gt;Node4 -->
<g id="edge3" class="edge"><title>Node3&#45;&gt;Node4</title>
<path fill="none" stroke="midnightblue" d="M344.228,-224.462C383.573,-216.156 444.948,-202.94 507.634,-188.089"/>
<polygon fill="midnightblue" stroke="midnightblue" points="508.785,-191.413 517.702,-185.692 507.164,-184.603 508.785,-191.413"/>
</g>
<!-- Node5 -->
<g id="node5" class="node"><title>Node5</title>
<polygon fill="white" stroke="#bfbfbf" points="31.2906,-0.5 31.2906,-19.5 83.2906,-19.5 83.2906,-0.5 31.2906,-0.5"/>
<text text-anchor="middle" x="57.2906" y="-7.5" font-family="Helvetica,sans-Serif" font-size="10.00">stdarg.h</text>
</g>
<!-- Node3&#45;&gt;Node5 -->
<g id="edge4" class="edge"><title>Node3&#45;&gt;Node5</title>
<path fill="none" stroke="midnightblue" d="M239.189,-225.078C156.829,-214.591 23.5135,-196.444 16.2906,-188 -23.8172,-141.114 21.3054,-62.5379 44.8263,-28.0749"/>
<polygon fill="midnightblue" stroke="midnightblue" points="47.9063,-29.7798 50.7988,-19.5874 42.1816,-25.7514 47.9063,-29.7798"/>
</g>
<!-- Node6 -->
<g id="node6" class="node"><title>Node6</title>
<polygon fill="white" stroke="#bfbfbf" points="25.7906,-168.5 25.7906,-187.5 78.7906,-187.5 78.7906,-168.5 25.7906,-168.5"/>
<text text-anchor="middle" x="52.2906" y="-175.5" font-family="Helvetica,sans-Serif" font-size="10.00">al4san.h</text>
</g>
<!-- Node3&#45;&gt;Node6 -->
<g id="edge5" class="edge"><title>Node3&#45;&gt;Node6</title>
<path fill="none" stroke="midnightblue" d="M259.308,-224.457C217.704,-216.238 153.286,-203.155 88.9212,-188.307"/>
<polygon fill="midnightblue" stroke="midnightblue" points="89.5447,-184.859 79.0123,-186.007 87.9619,-191.678 89.5447,-184.859"/>
</g>
<!-- Node7 -->
<g id="node7" class="node"><title>Node7</title>
<g id="a_node7"><a xlink:href="al4san__auxiliary_8h.html" target="_top" xlink:title="control/al4san_auxiliary.h">
<polygon fill="white" stroke="black" points="96.7906,-168.5 96.7906,-187.5 223.791,-187.5 223.791,-168.5 96.7906,-168.5"/>
<text text-anchor="middle" x="160.291" y="-175.5" font-family="Helvetica,sans-Serif" font-size="10.00">control/al4san_auxiliary.h</text>
</a>
</g>
</g>
<!-- Node3&#45;&gt;Node7 -->
<g id="edge6" class="edge"><title>Node3&#45;&gt;Node7</title>
<path fill="none" stroke="midnightblue" d="M280.632,-224.444C256.889,-215.478 219.381,-201.314 192.552,-191.183"/>
<polygon fill="midnightblue" stroke="midnightblue" points="193.435,-187.775 182.843,-187.516 190.962,-194.324 193.435,-187.775"/>
</g>
<!-- Node14 -->
<g id="node14" class="node"><title>Node14</title>
<g id="a_node14"><a xlink:href="al4san__context_8h.html" target="_top" xlink:title="control/al4san_context.h">
<polygon fill="white" stroke="black" points="241.791,-168.5 241.791,-187.5 364.791,-187.5 364.791,-168.5 241.791,-168.5"/>
<text text-anchor="middle" x="303.291" y="-175.5" font-family="Helvetica,sans-Serif" font-size="10.00">control/al4san_context.h</text>
</a>
</g>
</g>
<!-- Node3&#45;&gt;Node14 -->
<g id="edge15" class="edge"><title>Node3&#45;&gt;Node14</title>
<path fill="none" stroke="midnightblue" d="M303.291,-224.083C303.291,-217.006 303.291,-206.861 303.291,-197.986"/>
<polygon fill="midnightblue" stroke="midnightblue" points="306.791,-197.751 303.291,-187.751 299.791,-197.751 306.791,-197.751"/>
</g>
<!-- Node15 -->
<g id="node15" class="node"><title>Node15</title>
<g id="a_node15"><a xlink:href="al4san__async_8h.html" target="_top" xlink:title="control/al4san_async.h">
<polygon fill="white" stroke="black" points="382.791,-168.5 382.791,-187.5 499.791,-187.5 499.791,-168.5 382.791,-168.5"/>
<text text-anchor="middle" x="441.291" y="-175.5" font-family="Helvetica,sans-Serif" font-size="10.00">control/al4san_async.h</text>
</a>
</g>
</g>
<!-- Node3&#45;&gt;Node15 -->
<g id="edge17" class="edge"><title>Node3&#45;&gt;Node15</title>
<path fill="none" stroke="midnightblue" d="M325.157,-224.444C348.07,-215.478 384.266,-201.314 410.157,-191.183"/>
<polygon fill="midnightblue" stroke="midnightblue" points="411.489,-194.42 419.526,-187.516 408.939,-187.901 411.489,-194.42"/>
</g>
<!-- Node8 -->
<g id="node8" class="node"><title>Node8</title>
<g id="a_node8"><a xlink:href="struct_8h.html" target="_top" xlink:title="al4san/struct.h">
<polygon fill="white" stroke="black" points="266.791,-112.5 266.791,-131.5 347.791,-131.5 347.791,-112.5 266.791,-112.5"/>
<text text-anchor="middle" x="307.291" y="-119.5" font-family="Helvetica,sans-Serif" font-size="10.00">al4san/struct.h</text>
</a>
</g>
</g>
<!-- Node7&#45;&gt;Node8 -->
<g id="edge7" class="edge"><title>Node7&#45;&gt;Node8</title>
<path fill="none" stroke="midnightblue" d="M183.583,-168.444C208.098,-159.438 246.887,-145.189 274.49,-135.049"/>
<polygon fill="midnightblue" stroke="midnightblue" points="275.927,-138.25 284.107,-131.516 273.513,-131.679 275.927,-138.25"/>
</g>
<!-- Node9 -->
<g id="node9" class="node"><title>Node9</title>
<g id="a_node9"><a xlink:href="config_8h.html" target="_top" xlink:title="al4san/config.h">
<polygon fill="white" stroke="black" points="359.791,-0.5 359.791,-19.5 442.791,-19.5 442.791,-0.5 359.791,-0.5"/>
<text text-anchor="middle" x="401.291" y="-7.5" font-family="Helvetica,sans-Serif" font-size="10.00">al4san/config.h</text>
</a>
</g>
</g>
<!-- Node8&#45;&gt;Node9 -->
<g id="edge8" class="edge"><title>Node8&#45;&gt;Node9</title>
<path fill="none" stroke="midnightblue" d="M314.667,-112.368C330.317,-94.0547 367.067,-51.0489 387.308,-27.3624"/>
<polygon fill="midnightblue" stroke="midnightblue" points="390.113,-29.4676 393.949,-19.5914 384.791,-24.92 390.113,-29.4676"/>
</g>
<!-- Node10 -->
<g id="node10" class="node"><title>Node10</title>
<g id="a_node10"><a xlink:href="types_8h.html" target="_top" xlink:title="al4san/types.h">
<polygon fill="white" stroke="black" points="237.291,-56.5 237.291,-75.5 317.291,-75.5 317.291,-56.5 237.291,-56.5"/>
<text text-anchor="middle" x="277.291" y="-63.5" font-family="Helvetica,sans-Serif" font-size="10.00">al4san/types.h</text>
</a>
</g>
</g>
<!-- Node8&#45;&gt;Node10 -->
<g id="edge9" class="edge"><title>Node8&#45;&gt;Node10</title>
<path fill="none" stroke="midnightblue" d="M302.337,-112.083C298.187,-104.613 292.137,-93.7244 287.024,-84.5199"/>
<polygon fill="midnightblue" stroke="midnightblue" points="290.068,-82.7929 282.152,-75.7511 283.949,-86.1924 290.068,-82.7929"/>
</g>
<!-- Node10&#45;&gt;Node5 -->
<g id="edge13" class="edge"><title>Node10&#45;&gt;Node5</title>
<path fill="none" stroke="midnightblue" d="M242.431,-56.4435C201.662,-46.4367 134.516,-29.9554 93.2714,-19.8317"/>
<polygon fill="midnightblue" stroke="midnightblue" points="93.9213,-16.3874 83.3753,-17.4026 92.2526,-23.1856 93.9213,-16.3874"/>
</g>
<!-- Node10&#45;&gt;Node9 -->
<g id="edge10" class="edge"><title>Node10&#45;&gt;Node9</title>
<path fill="none" stroke="midnightblue" d="M296.939,-56.4435C317.255,-47.5961 349.193,-33.6875 372.388,-23.5865"/>
<polygon fill="midnightblue" stroke="midnightblue" points="373.963,-26.7181 381.734,-19.5164 371.169,-20.3002 373.963,-26.7181"/>
</g>
<!-- Node11 -->
<g id="node11" class="node"><title>Node11</title>
<polygon fill="white" stroke="#bfbfbf" points="289.291,-0.5 289.291,-19.5 341.291,-19.5 341.291,-0.5 289.291,-0.5"/>
<text text-anchor="middle" x="315.291" y="-7.5" font-family="Helvetica,sans-Serif" font-size="10.00">stddef.h</text>
</g>
<!-- Node10&#45;&gt;Node11 -->
<g id="edge11" class="edge"><title>Node10&#45;&gt;Node11</title>
<path fill="none" stroke="midnightblue" d="M283.566,-56.083C288.933,-48.4554 296.808,-37.2645 303.369,-27.9408"/>
<polygon fill="midnightblue" stroke="midnightblue" points="306.24,-29.9434 309.132,-19.7511 300.515,-25.9149 306.24,-29.9434"/>
</g>
<!-- Node12 -->
<g id="node12" class="node"><title>Node12</title>
<polygon fill="white" stroke="#bfbfbf" points="131.791,-0.5 131.791,-19.5 190.791,-19.5 190.791,-0.5 131.791,-0.5"/>
<text text-anchor="middle" x="161.291" y="-7.5" font-family="Helvetica,sans-Serif" font-size="10.00">inttypes.h</text>
</g>
<!-- Node10&#45;&gt;Node12 -->
<g id="edge12" class="edge"><title>Node10&#45;&gt;Node12</title>
<path fill="none" stroke="midnightblue" d="M258.91,-56.4435C240.074,-47.6751 210.559,-33.9355 188.911,-23.8579"/>
<polygon fill="midnightblue" stroke="midnightblue" points="190.128,-20.5637 179.585,-19.5164 187.174,-26.9098 190.128,-20.5637"/>
</g>
<!-- Node13 -->
<g id="node13" class="node"><title>Node13</title>
<polygon fill="white" stroke="#bfbfbf" points="209.291,-0.5 209.291,-19.5 271.291,-19.5 271.291,-0.5 209.291,-0.5"/>
<text text-anchor="middle" x="240.291" y="-7.5" font-family="Helvetica,sans-Serif" font-size="10.00">complex.h</text>
</g>
<!-- Node10&#45;&gt;Node13 -->
<g id="edge14" class="edge"><title>Node10&#45;&gt;Node13</title>
<path fill="none" stroke="midnightblue" d="M271.181,-56.083C266.008,-48.5341 258.444,-37.4948 252.096,-28.2298"/>
<polygon fill="midnightblue" stroke="midnightblue" points="254.826,-26.0221 246.287,-19.7511 249.052,-29.9787 254.826,-26.0221"/>
</g>
<!-- Node14&#45;&gt;Node8 -->
<g id="edge16" class="edge"><title>Node14&#45;&gt;Node8</title>
<path fill="none" stroke="midnightblue" d="M303.951,-168.083C304.475,-161.006 305.227,-150.861 305.884,-141.986"/>
<polygon fill="midnightblue" stroke="midnightblue" points="309.394,-141.982 306.642,-131.751 302.413,-141.465 309.394,-141.982"/>
</g>
<!-- Node15&#45;&gt;Node8 -->
<g id="edge18" class="edge"><title>Node15&#45;&gt;Node8</title>
<path fill="none" stroke="midnightblue" d="M420.058,-168.444C397.907,-159.517 362.972,-145.439 337.855,-135.317"/>
<polygon fill="midnightblue" stroke="midnightblue" points="339.007,-132.008 328.424,-131.516 336.391,-138.501 339.007,-132.008"/>
</g>
<!-- Node16&#45;&gt;Node8 -->
<g id="edge21" class="edge"><title>Node16&#45;&gt;Node8</title>
<path fill="none" stroke="midnightblue" d="M586.76,-169.426C583.894,-168.942 581.052,-168.464 578.291,-168 501.627,-155.126 412.727,-140.403 358.251,-131.405"/>
<polygon fill="midnightblue" stroke="midnightblue" points="358.596,-127.915 348.16,-129.739 357.456,-134.821 358.596,-127.915"/>
</g>
<!-- Node16&#45;&gt;Node9 -->
<g id="edge20" class="edge"><title>Node16&#45;&gt;Node9</title>
<path fill="none" stroke="midnightblue" d="M619.249,-168.309C581.988,-141.416 468.284,-59.3518 421.612,-25.6665"/>
<polygon fill="midnightblue" stroke="midnightblue" points="423.37,-22.6195 413.213,-19.6051 419.274,-28.2955 423.37,-22.6195"/>
</g>
</g>
</svg>
