<?xml version="1.0" encoding="UTF-8" standalone="no"?>
<!DOCTYPE svg PUBLIC "-//W3C//DTD SVG 1.1//EN"
 "http://www.w3.org/Graphics/SVG/1.1/DTD/svg11.dtd">
<!-- Generated by graphviz version 2.38.0 (20140413.2041)
 -->
<!-- Title: control/auxiliary.c Pages: 1 -->
<svg width="689pt" height="308pt"
 viewBox="0.00 0.00 689.00 308.00" xmlns="http://www.w3.org/2000/svg" xmlns:xlink="http://www.w3.org/1999/xlink">
<g id="graph0" class="graph" transform="scale(1 1) rotate(0) translate(4 304)">
<title>control/auxiliary.c</title>
<polygon fill="white" stroke="none" points="-4,4 -4,-304 685,-304 685,4 -4,4"/>
<!-- Node1 -->
<g id="node1" class="node"><title>Node1</title>
<polygon fill="#bfbfbf" stroke="black" points="479.5,-280.5 479.5,-299.5 572.5,-299.5 572.5,-280.5 479.5,-280.5"/>
<text text-anchor="middle" x="526" y="-287.5" font-family="Helvetica,sans-Serif" font-size="10.00">control/auxiliary.c</text>
</g>
<!-- Node2 -->
<g id="node2" class="node"><title>Node2</title>
<g id="a_node2"><a xlink:href="al4san__common_8h.html" target="_top" xlink:title="control/al4san_common.h">
<polygon fill="white" stroke="black" points="261,-224.5 261,-243.5 389,-243.5 389,-224.5 261,-224.5"/>
<text text-anchor="middle" x="325" y="-231.5" font-family="Helvetica,sans-Serif" font-size="10.00">control/al4san_common.h</text>
</a>
</g>
</g>
<!-- Node1&#45;&gt;Node2 -->
<g id="edge1" class="edge"><title>Node1&#45;&gt;Node2</title>
<path fill="none" stroke="midnightblue" d="M494.151,-280.444C459.602,-271.162 404.318,-256.309 366.417,-246.127"/>
<polygon fill="midnightblue" stroke="midnightblue" points="367.266,-242.731 356.7,-243.516 365.449,-249.491 367.266,-242.731"/>
</g>
<!-- Node6 -->
<g id="node6" class="node"><title>Node6</title>
<g id="a_node6"><a xlink:href="al4san__auxiliary_8h.html" target="_top" xlink:title="control/al4san_auxiliary.h">
<polygon fill="white" stroke="black" points="470.5,-168.5 470.5,-187.5 597.5,-187.5 597.5,-168.5 470.5,-168.5"/>
<text text-anchor="middle" x="534" y="-175.5" font-family="Helvetica,sans-Serif" font-size="10.00">control/al4san_auxiliary.h</text>
</a>
</g>
</g>
<!-- Node1&#45;&gt;Node6 -->
<g id="edge18" class="edge"><title>Node1&#45;&gt;Node6</title>
<path fill="none" stroke="midnightblue" d="M516.682,-280.403C504.622,-268.178 486.043,-244.928 494,-224 498.335,-212.598 507.031,-202.239 515.21,-194.343"/>
<polygon fill="midnightblue" stroke="midnightblue" points="517.642,-196.863 522.734,-187.573 512.959,-191.66 517.642,-196.863"/>
</g>
<!-- Node15 -->
<g id="node15" class="node"><title>Node15</title>
<polygon fill="white" stroke="#bfbfbf" points="503,-224.5 503,-243.5 549,-243.5 549,-224.5 503,-224.5"/>
<text text-anchor="middle" x="526" y="-231.5" font-family="Helvetica,sans-Serif" font-size="10.00">stdio.h</text>
</g>
<!-- Node1&#45;&gt;Node15 -->
<g id="edge19" class="edge"><title>Node1&#45;&gt;Node15</title>
<path fill="none" stroke="midnightblue" d="M526,-280.083C526,-273.006 526,-262.861 526,-253.986"/>
<polygon fill="midnightblue" stroke="midnightblue" points="529.5,-253.751 526,-243.751 522.5,-253.751 529.5,-253.751"/>
</g>
<!-- Node16 -->
<g id="node16" class="node"><title>Node16</title>
<polygon fill="white" stroke="#bfbfbf" points="567,-224.5 567,-243.5 615,-243.5 615,-224.5 567,-224.5"/>
<text text-anchor="middle" x="591" y="-231.5" font-family="Helvetica,sans-Serif" font-size="10.00">stdlib.h</text>
</g>
<!-- Node1&#45;&gt;Node16 -->
<g id="edge20" class="edge"><title>Node1&#45;&gt;Node16</title>
<path fill="none" stroke="midnightblue" d="M536.443,-280.324C546.146,-272.263 560.815,-260.077 572.5,-250.369"/>
<polygon fill="midnightblue" stroke="midnightblue" points="574.911,-252.916 580.367,-243.834 570.438,-247.532 574.911,-252.916"/>
</g>
<!-- Node17 -->
<g id="node17" class="node"><title>Node17</title>
<polygon fill="white" stroke="#bfbfbf" points="633,-224.5 633,-243.5 681,-243.5 681,-224.5 633,-224.5"/>
<text text-anchor="middle" x="657" y="-231.5" font-family="Helvetica,sans-Serif" font-size="10.00">limits.h</text>
</g>
<!-- Node1&#45;&gt;Node17 -->
<g id="edge21" class="edge"><title>Node1&#45;&gt;Node17</title>
<path fill="none" stroke="midnightblue" d="M546.757,-280.444C568.316,-271.557 602.263,-257.563 626.794,-247.451"/>
<polygon fill="midnightblue" stroke="midnightblue" points="628.428,-250.563 636.34,-243.516 625.761,-244.092 628.428,-250.563"/>
</g>
<!-- Node3 -->
<g id="node3" class="node"><title>Node3</title>
<polygon fill="white" stroke="#bfbfbf" points="401.5,-168.5 401.5,-187.5 452.5,-187.5 452.5,-168.5 401.5,-168.5"/>
<text text-anchor="middle" x="427" y="-175.5" font-family="Helvetica,sans-Serif" font-size="10.00">unistd.h</text>
</g>
<!-- Node2&#45;&gt;Node3 -->
<g id="edge2" class="edge"><title>Node2&#45;&gt;Node3</title>
<path fill="none" stroke="midnightblue" d="M341.388,-224.324C357.671,-215.703 382.867,-202.364 401.716,-192.386"/>
<polygon fill="midnightblue" stroke="midnightblue" points="403.452,-195.427 410.653,-187.655 400.177,-189.24 403.452,-195.427"/>
</g>
<!-- Node4 -->
<g id="node4" class="node"><title>Node4</title>
<polygon fill="white" stroke="#bfbfbf" points="0,-0.5 0,-19.5 52,-19.5 52,-0.5 0,-0.5"/>
<text text-anchor="middle" x="26" y="-7.5" font-family="Helvetica,sans-Serif" font-size="10.00">stdarg.h</text>
</g>
<!-- Node2&#45;&gt;Node4 -->
<g id="edge3" class="edge"><title>Node2&#45;&gt;Node4</title>
<path fill="none" stroke="midnightblue" d="M260.862,-231.44C187.493,-228.211 73.7642,-218.313 45,-188 3.92064,-144.709 14.0034,-66.0188 21.4378,-29.9643"/>
<polygon fill="midnightblue" stroke="midnightblue" points="24.9315,-30.3772 23.6903,-19.8553 18.0991,-28.8547 24.9315,-30.3772"/>
</g>
<!-- Node5 -->
<g id="node5" class="node"><title>Node5</title>
<polygon fill="white" stroke="#bfbfbf" points="54.5,-168.5 54.5,-187.5 107.5,-187.5 107.5,-168.5 54.5,-168.5"/>
<text text-anchor="middle" x="81" y="-175.5" font-family="Helvetica,sans-Serif" font-size="10.00">al4san.h</text>
</g>
<!-- Node2&#45;&gt;Node5 -->
<g id="edge4" class="edge"><title>Node2&#45;&gt;Node5</title>
<path fill="none" stroke="midnightblue" d="M282.857,-224.437C242.716,-216.168 180.352,-203.025 117.769,-188.356"/>
<polygon fill="midnightblue" stroke="midnightblue" points="118.262,-184.876 107.726,-185.989 116.656,-191.689 118.262,-184.876"/>
</g>
<!-- Node2&#45;&gt;Node6 -->
<g id="edge5" class="edge"><title>Node2&#45;&gt;Node6</title>
<path fill="none" stroke="midnightblue" d="M358.117,-224.444C394.118,-215.142 451.77,-200.246 491.186,-190.062"/>
<polygon fill="midnightblue" stroke="midnightblue" points="492.232,-193.407 501.038,-187.516 490.481,-186.629 492.232,-193.407"/>
</g>
<!-- Node13 -->
<g id="node13" class="node"><title>Node13</title>
<g id="a_node13"><a xlink:href="al4san__context_8h.html" target="_top" xlink:title="control/al4san_context.h">
<polygon fill="white" stroke="black" points="125.5,-168.5 125.5,-187.5 248.5,-187.5 248.5,-168.5 125.5,-168.5"/>
<text text-anchor="middle" x="187" y="-175.5" font-family="Helvetica,sans-Serif" font-size="10.00">control/al4san_context.h</text>
</a>
</g>
</g>
<!-- Node2&#45;&gt;Node13 -->
<g id="edge14" class="edge"><title>Node2&#45;&gt;Node13</title>
<path fill="none" stroke="midnightblue" d="M303.133,-224.444C280.221,-215.478 244.025,-201.314 218.134,-191.183"/>
<polygon fill="midnightblue" stroke="midnightblue" points="219.352,-187.901 208.764,-187.516 216.801,-194.42 219.352,-187.901"/>
</g>
<!-- Node14 -->
<g id="node14" class="node"><title>Node14</title>
<g id="a_node14"><a xlink:href="al4san__async_8h.html" target="_top" xlink:title="control/al4san_async.h">
<polygon fill="white" stroke="black" points="266.5,-168.5 266.5,-187.5 383.5,-187.5 383.5,-168.5 266.5,-168.5"/>
<text text-anchor="middle" x="325" y="-175.5" font-family="Helvetica,sans-Serif" font-size="10.00">control/al4san_async.h</text>
</a>
</g>
</g>
<!-- Node2&#45;&gt;Node14 -->
<g id="edge16" class="edge"><title>Node2&#45;&gt;Node14</title>
<path fill="none" stroke="midnightblue" d="M325,-224.083C325,-217.006 325,-206.861 325,-197.986"/>
<polygon fill="midnightblue" stroke="midnightblue" points="328.5,-197.751 325,-187.751 321.5,-197.751 328.5,-197.751"/>
</g>
<!-- Node7 -->
<g id="node7" class="node"><title>Node7</title>
<g id="a_node7"><a xlink:href="struct_8h.html" target="_top" xlink:title="al4san/struct.h">
<polygon fill="white" stroke="black" points="284.5,-112.5 284.5,-131.5 365.5,-131.5 365.5,-112.5 284.5,-112.5"/>
<text text-anchor="middle" x="325" y="-119.5" font-family="Helvetica,sans-Serif" font-size="10.00">al4san/struct.h</text>
</a>
</g>
</g>
<!-- Node6&#45;&gt;Node7 -->
<g id="edge6" class="edge"><title>Node6&#45;&gt;Node7</title>
<path fill="none" stroke="midnightblue" d="M500.883,-168.444C464.882,-159.142 407.23,-144.246 367.814,-134.062"/>
<polygon fill="midnightblue" stroke="midnightblue" points="368.519,-130.629 357.962,-131.516 366.768,-137.407 368.519,-130.629"/>
</g>
<!-- Node8 -->
<g id="node8" class="node"><title>Node8</title>
<g id="a_node8"><a xlink:href="config_8h.html" target="_top" xlink:title="al4san/config.h">
<polygon fill="white" stroke="black" points="298.5,-0.5 298.5,-19.5 381.5,-19.5 381.5,-0.5 298.5,-0.5"/>
<text text-anchor="middle" x="340" y="-7.5" font-family="Helvetica,sans-Serif" font-size="10.00">al4san/config.h</text>
</a>
</g>
</g>
<!-- Node7&#45;&gt;Node8 -->
<g id="edge7" class="edge"><title>Node7&#45;&gt;Node8</title>
<path fill="none" stroke="midnightblue" d="M326.177,-112.368C328.598,-94.617 334.182,-53.6664 337.464,-29.5974"/>
<polygon fill="midnightblue" stroke="midnightblue" points="340.945,-29.9726 338.828,-19.5914 334.009,-29.0268 340.945,-29.9726"/>
</g>
<!-- Node9 -->
<g id="node9" class="node"><title>Node9</title>
<g id="a_node9"><a xlink:href="types_8h.html" target="_top" xlink:title="al4san/types.h">
<polygon fill="white" stroke="black" points="176,-56.5 176,-75.5 256,-75.5 256,-56.5 176,-56.5"/>
<text text-anchor="middle" x="216" y="-63.5" font-family="Helvetica,sans-Serif" font-size="10.00">al4san/types.h</text>
</a>
</g>
</g>
<!-- Node7&#45;&gt;Node9 -->
<g id="edge8" class="edge"><title>Node7&#45;&gt;Node9</title>
<path fill="none" stroke="midnightblue" d="M307.487,-112.324C289.928,-103.625 262.669,-90.1202 242.469,-80.113"/>
<polygon fill="midnightblue" stroke="midnightblue" points="243.984,-76.9575 233.469,-75.6545 240.876,-83.23 243.984,-76.9575"/>
</g>
<!-- Node9&#45;&gt;Node4 -->
<g id="edge12" class="edge"><title>Node9&#45;&gt;Node4</title>
<path fill="none" stroke="midnightblue" d="M185.894,-56.4435C152.37,-46.9158 98.1954,-31.5187 62.3393,-21.328"/>
<polygon fill="midnightblue" stroke="midnightblue" points="62.8699,-17.8403 52.2939,-18.473 60.9561,-24.5736 62.8699,-17.8403"/>
</g>
<!-- Node9&#45;&gt;Node8 -->
<g id="edge9" class="edge"><title>Node9&#45;&gt;Node8</title>
<path fill="none" stroke="midnightblue" d="M235.648,-56.4435C255.965,-47.5961 287.903,-33.6875 311.098,-23.5865"/>
<polygon fill="midnightblue" stroke="midnightblue" points="312.673,-26.7181 320.444,-19.5164 309.878,-20.3002 312.673,-26.7181"/>
</g>
<!-- Node10 -->
<g id="node10" class="node"><title>Node10</title>
<polygon fill="white" stroke="#bfbfbf" points="228,-0.5 228,-19.5 280,-19.5 280,-0.5 228,-0.5"/>
<text text-anchor="middle" x="254" y="-7.5" font-family="Helvetica,sans-Serif" font-size="10.00">stddef.h</text>
</g>
<!-- Node9&#45;&gt;Node10 -->
<g id="edge10" class="edge"><title>Node9&#45;&gt;Node10</title>
<path fill="none" stroke="midnightblue" d="M222.275,-56.083C227.642,-48.4554 235.518,-37.2645 242.079,-27.9408"/>
<polygon fill="midnightblue" stroke="midnightblue" points="244.949,-29.9434 247.842,-19.7511 239.225,-25.9149 244.949,-29.9434"/>
</g>
<!-- Node11 -->
<g id="node11" class="node"><title>Node11</title>
<polygon fill="white" stroke="#bfbfbf" points="70.5,-0.5 70.5,-19.5 129.5,-19.5 129.5,-0.5 70.5,-0.5"/>
<text text-anchor="middle" x="100" y="-7.5" font-family="Helvetica,sans-Serif" font-size="10.00">inttypes.h</text>
</g>
<!-- Node9&#45;&gt;Node11 -->
<g id="edge11" class="edge"><title>Node9&#45;&gt;Node11</title>
<path fill="none" stroke="midnightblue" d="M197.619,-56.4435C178.784,-47.6751 149.269,-33.9355 127.621,-23.8579"/>
<polygon fill="midnightblue" stroke="midnightblue" points="128.838,-20.5637 118.295,-19.5164 125.883,-26.9098 128.838,-20.5637"/>
</g>
<!-- Node12 -->
<g id="node12" class="node"><title>Node12</title>
<polygon fill="white" stroke="#bfbfbf" points="148,-0.5 148,-19.5 210,-19.5 210,-0.5 148,-0.5"/>
<text text-anchor="middle" x="179" y="-7.5" font-family="Helvetica,sans-Serif" font-size="10.00">complex.h</text>
</g>
<!-- Node9&#45;&gt;Node12 -->
<g id="edge13" class="edge"><title>Node9&#45;&gt;Node12</title>
<path fill="none" stroke="midnightblue" d="M209.89,-56.083C204.718,-48.5341 197.154,-37.4948 190.806,-28.2298"/>
<polygon fill="midnightblue" stroke="midnightblue" points="193.536,-26.0221 184.996,-19.7511 187.761,-29.9787 193.536,-26.0221"/>
</g>
<!-- Node13&#45;&gt;Node7 -->
<g id="edge15" class="edge"><title>Node13&#45;&gt;Node7</title>
<path fill="none" stroke="midnightblue" d="M208.867,-168.444C231.779,-159.478 267.975,-145.314 293.866,-135.183"/>
<polygon fill="midnightblue" stroke="midnightblue" points="295.199,-138.42 303.236,-131.516 292.648,-131.901 295.199,-138.42"/>
</g>
<!-- Node14&#45;&gt;Node7 -->
<g id="edge17" class="edge"><title>Node14&#45;&gt;Node7</title>
<path fill="none" stroke="midnightblue" d="M325,-168.083C325,-161.006 325,-150.861 325,-141.986"/>
<polygon fill="midnightblue" stroke="midnightblue" points="328.5,-141.751 325,-131.751 321.5,-141.751 328.5,-141.751"/>
</g>
</g>
</svg>
