<?xml version="1.0" encoding="UTF-8" standalone="no"?>
<!DOCTYPE svg PUBLIC "-//W3C//DTD SVG 1.1//EN"
 "http://www.w3.org/Graphics/SVG/1.1/DTD/svg11.dtd">
<!-- Generated by graphviz version 2.38.0 (20140413.2041)
 -->
<!-- Title: build/include/al4san/config.h Pages: 1 -->
<!--zoomable 419 -->
<svg id="main" version="1.1" xmlns="http://www.w3.org/2000/svg" xmlns:xlink="http://www.w3.org/1999/xlink" xml:space="preserve" onload="init(evt)">
<style type="text/css"><![CDATA[
.edge:hover path { stroke: red; }
.edge:hover polygon { stroke: red; fill: red; }
]]></style>
<script type="text/javascript"><![CDATA[
var edges = document.getElementsByTagName('g');
if (edges && edges.length) {
  for (var i=0;i<edges.length;i++) {
    if (edges[i].id.substr(0,4)=='edge') {
      edges[i].setAttribute('class','edge');
    }
  }
}
]]></script>
        <defs>
                <circle id="rim" cx="0" cy="0" r="7"/>
                <circle id="rim2" cx="0" cy="0" r="3.5"/>
                <g id="zoomPlus">
                        <use xlink:href="#rim" fill="#404040">
                                <set attributeName="fill" to="#808080" begin="zoomplus.mouseover" end="zoomplus.mouseout"/>
                        </use>
                        <path d="M-4,0h8M0,-4v8" fill="none" stroke="white" stroke-width="1.5" pointer-events="none"/>
                </g>
                <g id="zoomMin">
                        <use xlink:href="#rim" fill="#404040">
                                <set attributeName="fill" to="#808080" begin="zoomminus.mouseover" end="zoomminus.mouseout"/>
                        </use>
                        <path d="M-4,0h8" fill="none" stroke="white" stroke-width="1.5" pointer-events="none"/>
                </g>
                <g id="dirArrow">
                        <path fill="none" stroke="white" stroke-width="1.5" d="M0,-3.0v7 M-2.5,-0.5L0,-3.0L2.5,-0.5"/>
                </g>
               <g id="resetDef">
                       <use xlink:href="#rim2" fill="#404040">
                               <set attributeName="fill" to="#808080" begin="reset.mouseover" end="reset.mouseout"/>
                       </use>
               </g>
        </defs>

<script type="text/javascript">
var viewWidth = 1094;
var viewHeight = 419;
var sectionId = 'dynsection-0';
</script>
<script xlink:href="svgpan.js"/>
<svg id="graph" class="graph">
<g id="viewport">
<title>build/include/al4san/config.h</title>
<polygon fill="white" stroke="none" points="-4,4 -4,-415 1089.5,-415 1089.5,4 -4,4"/>
<!-- Node1 -->
<g id="node1" class="node"><title>Node1</title>
<polygon fill="#bfbfbf" stroke="black" points="418,-380.5 418,-410.5 520,-410.5 520,-380.5 418,-380.5"/>
<text text-anchor="start" x="426" y="-398.5" font-family="Helvetica,sans-Serif" font-size="10.00">build/include/al4san</text>
<text text-anchor="middle" x="469" y="-387.5" font-family="Helvetica,sans-Serif" font-size="10.00">/config.h</text>
</g>
<!-- Node2 -->
<g id="node2" class="node"><title>Node2</title>
<g id="a_node2"><a xlink:href="runtime_8h.html" target="_top" xlink:title="include/al4san/runtime.h">
<polygon fill="white" stroke="black" points="88,-140 88,-159 210,-159 210,-140 88,-140"/>
<text text-anchor="middle" x="149" y="-147" font-family="Helvetica,sans-Serif" font-size="10.00">include/al4san/runtime.h</text>
</a>
</g>
</g>
<!-- Node1&#45;&gt;Node2 -->
<g id="edge1" class="edge"><title>Node1&#45;&gt;Node2</title>
<path fill="none" stroke="midnightblue" d="M407.928,-384.25C331.092,-367.616 202.918,-326.521 151,-232 137.985,-208.306 143.278,-174.6 146.804,-159.012"/>
<polygon fill="midnightblue" stroke="midnightblue" points="407.451,-387.726 417.955,-386.345 408.883,-380.874 407.451,-387.726"/>
</g>
<!-- Node7 -->
<g id="node7" class="node"><title>Node7</title>
<g id="a_node7"><a xlink:href="struct_8h.html" target="_top" xlink:title="include/al4san/struct.h">
<polygon fill="white" stroke="black" points="326.5,-268.5 326.5,-287.5 441.5,-287.5 441.5,-268.5 326.5,-268.5"/>
<text text-anchor="middle" x="384" y="-275.5" font-family="Helvetica,sans-Serif" font-size="10.00">include/al4san/struct.h</text>
</a>
</g>
</g>
<!-- Node1&#45;&gt;Node7 -->
<g id="edge6" class="edge"><title>Node1&#45;&gt;Node7</title>
<path fill="none" stroke="midnightblue" d="M466.697,-370.067C464.346,-355.593 459.596,-337.504 450,-324 438.271,-307.495 418.454,-295.18 403.589,-287.643"/>
<polygon fill="midnightblue" stroke="midnightblue" points="463.27,-370.848 468.068,-380.295 470.208,-369.918 463.27,-370.848"/>
</g>
<!-- Node12 -->
<g id="node12" class="node"><title>Node12</title>
<g id="a_node12"><a xlink:href="al4san__runtime_8h.html" target="_top" xlink:title="AL4SAN StarPU runtime main header. ">
<polygon fill="white" stroke="black" points="642,-67.5 642,-97.5 770,-97.5 770,-67.5 642,-67.5"/>
<text text-anchor="start" x="650" y="-85.5" font-family="Helvetica,sans-Serif" font-size="10.00">build/runtime/starpu</text>
<text text-anchor="middle" x="706" y="-74.5" font-family="Helvetica,sans-Serif" font-size="10.00">/include/al4san_runtime.h</text>
</a>
</g>
</g>
<!-- Node1&#45;&gt;Node12 -->
<g id="edge34" class="edge"><title>Node1&#45;&gt;Node12</title>
<path fill="none" stroke="midnightblue" d="M530.284,-394.437C611.05,-390.756 743,-370.709 743,-279 743,-279 743,-279 743,-215.5 743,-171.232 723.468,-121.609 712.786,-97.7814"/>
<polygon fill="midnightblue" stroke="midnightblue" points="530.074,-390.942 520.216,-394.824 530.343,-397.937 530.074,-390.942"/>
</g>
<!-- Node21 -->
<g id="node21" class="node"><title>Node21</title>
<g id="a_node21"><a xlink:href="types_8h.html" target="_top" xlink:title="include/al4san/types.h">
<polygon fill="white" stroke="black" points="327,-324.5 327,-343.5 441,-343.5 441,-324.5 327,-324.5"/>
<text text-anchor="middle" x="384" y="-331.5" font-family="Helvetica,sans-Serif" font-size="10.00">include/al4san/types.h</text>
</a>
</g>
</g>
<!-- Node1&#45;&gt;Node21 -->
<g id="edge32" class="edge"><title>Node1&#45;&gt;Node21</title>
<path fill="none" stroke="midnightblue" d="M440.404,-374.483C425.43,-364.001 407.869,-351.708 396.368,-343.658"/>
<polygon fill="midnightblue" stroke="midnightblue" points="438.657,-377.532 448.856,-380.399 442.671,-371.797 438.657,-377.532"/>
</g>
<!-- Node22 -->
<g id="node22" class="node"><title>Node22</title>
<g id="a_node22"><a xlink:href="runtime__codelet_8h_source.html" target="_top" xlink:title="runtime/starpu/include\l/runtime_codelet.h">
<polygon fill="white" stroke="black" points="601.5,-201.5 601.5,-231.5 714.5,-231.5 714.5,-201.5 601.5,-201.5"/>
<text text-anchor="start" x="609.5" y="-219.5" font-family="Helvetica,sans-Serif" font-size="10.00">runtime/starpu/include</text>
<text text-anchor="middle" x="658" y="-208.5" font-family="Helvetica,sans-Serif" font-size="10.00">/runtime_codelet.h</text>
</a>
</g>
</g>
<!-- Node1&#45;&gt;Node22 -->
<g id="edge35" class="edge"><title>Node1&#45;&gt;Node22</title>
<path fill="none" stroke="midnightblue" d="M491.88,-373.072C531.095,-336.347 610.099,-262.36 643.043,-231.507"/>
<polygon fill="midnightblue" stroke="midnightblue" points="489.054,-370.924 484.147,-380.315 493.839,-376.034 489.054,-370.924"/>
</g>
<!-- Node3 -->
<g id="node3" class="node"><title>Node3</title>
<g id="a_node3"><a xlink:href="async_8c.html" target="_top" xlink:title="control/async.c">
<polygon fill="white" stroke="black" points="104.5,-73 104.5,-92 187.5,-92 187.5,-73 104.5,-73"/>
<text text-anchor="middle" x="146" y="-80" font-family="Helvetica,sans-Serif" font-size="10.00">control/async.c</text>
</a>
</g>
</g>
<!-- Node2&#45;&gt;Node3 -->
<g id="edge2" class="edge"><title>Node2&#45;&gt;Node3</title>
<path fill="none" stroke="midnightblue" d="M148.125,-129.537C147.554,-117.17 146.836,-101.62 146.398,-92.1273"/>
<polygon fill="midnightblue" stroke="midnightblue" points="144.638,-129.906 148.595,-139.734 151.631,-129.583 144.638,-129.906"/>
</g>
<!-- Node4 -->
<g id="node4" class="node"><title>Node4</title>
<g id="a_node4"><a xlink:href="context_8c.html" target="_top" xlink:title="control/context.c">
<polygon fill="white" stroke="black" points="300.5,-73 300.5,-92 389.5,-92 389.5,-73 300.5,-73"/>
<text text-anchor="middle" x="345" y="-80" font-family="Helvetica,sans-Serif" font-size="10.00">control/context.c</text>
</a>
</g>
</g>
<!-- Node2&#45;&gt;Node4 -->
<g id="edge3" class="edge"><title>Node2&#45;&gt;Node4</title>
<path fill="none" stroke="midnightblue" d="M184.879,-136.601C223.74,-123.714 284.774,-103.473 319.177,-92.0637"/>
<polygon fill="midnightblue" stroke="midnightblue" points="183.417,-133.399 175.027,-139.869 185.621,-140.043 183.417,-133.399"/>
</g>
<!-- Node5 -->
<g id="node5" class="node"><title>Node5</title>
<g id="a_node5"><a xlink:href="control_8c.html" target="_top" xlink:title="control/control.c">
<polygon fill="white" stroke="black" points="0,-73 0,-92 86,-92 86,-73 0,-73"/>
<text text-anchor="middle" x="43" y="-80" font-family="Helvetica,sans-Serif" font-size="10.00">control/control.c</text>
</a>
</g>
</g>
<!-- Node2&#45;&gt;Node5 -->
<g id="edge4" class="edge"><title>Node2&#45;&gt;Node5</title>
<path fill="none" stroke="midnightblue" d="M126.075,-134.442C105.083,-121.57 74.6816,-102.927 57.0691,-92.1273"/>
<polygon fill="midnightblue" stroke="midnightblue" points="124.35,-137.49 134.704,-139.734 128.009,-131.523 124.35,-137.49"/>
</g>
<!-- Node6 -->
<g id="node6" class="node"><title>Node6</title>
<g id="a_node6"><a xlink:href="task_8c.html" target="_top" xlink:title="control/task.c">
<polygon fill="white" stroke="black" points="206,-73 206,-92 282,-92 282,-73 206,-73"/>
<text text-anchor="middle" x="244" y="-80" font-family="Helvetica,sans-Serif" font-size="10.00">control/task.c</text>
</a>
</g>
</g>
<!-- Node2&#45;&gt;Node6 -->
<g id="edge5" class="edge"><title>Node2&#45;&gt;Node6</title>
<path fill="none" stroke="midnightblue" d="M170.31,-133.92C189.091,-121.069 215.818,-102.782 231.391,-92.1273"/>
<polygon fill="midnightblue" stroke="midnightblue" points="168.089,-131.198 161.812,-139.734 172.042,-136.976 168.089,-131.198"/>
</g>
<!-- Node7&#45;&gt;Node2 -->
<g id="edge7" class="edge"><title>Node7&#45;&gt;Node2</title>
<path fill="none" stroke="midnightblue" d="M316.123,-270.368C261.908,-263.708 191.699,-251.582 171,-232 150.346,-212.46 148.361,-175.732 148.612,-159.087"/>
<polygon fill="midnightblue" stroke="midnightblue" points="316.045,-273.883 326.389,-271.588 316.872,-266.932 316.045,-273.883"/>
</g>
<!-- Node8 -->
<g id="node8" class="node"><title>Node8</title>
<g id="a_node8"><a xlink:href="al4san__async_8h.html" target="_top" xlink:title="control/al4san_async.h">
<polygon fill="white" stroke="black" points="325.5,-207 325.5,-226 442.5,-226 442.5,-207 325.5,-207"/>
<text text-anchor="middle" x="384" y="-214" font-family="Helvetica,sans-Serif" font-size="10.00">control/al4san_async.h</text>
</a>
</g>
</g>
<!-- Node7&#45;&gt;Node8 -->
<g id="edge8" class="edge"><title>Node7&#45;&gt;Node8</title>
<path fill="none" stroke="midnightblue" d="M384,-258.317C384,-247.496 384,-234.398 384,-226.009"/>
<polygon fill="midnightblue" stroke="midnightblue" points="380.5,-258.475 384,-268.475 387.5,-258.475 380.5,-258.475"/>
</g>
<!-- Node19 -->
<g id="node19" class="node"><title>Node19</title>
<g id="a_node19"><a xlink:href="al4san__auxiliary_8h.html" target="_top" xlink:title="control/al4san_auxiliary.h">
<polygon fill="white" stroke="black" points="180.5,-207 180.5,-226 307.5,-226 307.5,-207 180.5,-207"/>
<text text-anchor="middle" x="244" y="-214" font-family="Helvetica,sans-Serif" font-size="10.00">control/al4san_auxiliary.h</text>
</a>
</g>
</g>
<!-- Node7&#45;&gt;Node19 -->
<g id="edge23" class="edge"><title>Node7&#45;&gt;Node19</title>
<path fill="none" stroke="midnightblue" d="M354.54,-264.48C327.35,-252.924 287.708,-236.076 264.021,-226.009"/>
<polygon fill="midnightblue" stroke="midnightblue" points="353.369,-267.785 363.941,-268.475 356.107,-261.342 353.369,-267.785"/>
</g>
<!-- Node20 -->
<g id="node20" class="node"><title>Node20</title>
<g id="a_node20"><a xlink:href="al4san__context_8h.html" target="_top" xlink:title="control/al4san_context.h">
<polygon fill="white" stroke="black" points="460.5,-207 460.5,-226 583.5,-226 583.5,-207 460.5,-207"/>
<text text-anchor="middle" x="522" y="-214" font-family="Helvetica,sans-Serif" font-size="10.00">control/al4san_context.h</text>
</a>
</g>
</g>
<!-- Node7&#45;&gt;Node20 -->
<g id="edge29" class="edge"><title>Node7&#45;&gt;Node20</title>
<path fill="none" stroke="midnightblue" d="M413.039,-264.48C439.841,-252.924 478.917,-236.076 502.265,-226.009"/>
<polygon fill="midnightblue" stroke="midnightblue" points="411.569,-261.302 403.772,-268.475 414.341,-267.73 411.569,-261.302"/>
</g>
<!-- Node9 -->
<g id="node9" class="node"><title>Node9</title>
<g id="a_node9"><a xlink:href="al4san__common_8h.html" target="_top" xlink:title="control/al4san_common.h">
<polygon fill="white" stroke="black" points="315,-140 315,-159 443,-159 443,-140 315,-140"/>
<text text-anchor="middle" x="379" y="-147" font-family="Helvetica,sans-Serif" font-size="10.00">control/al4san_common.h</text>
</a>
</g>
</g>
<!-- Node8&#45;&gt;Node9 -->
<g id="edge9" class="edge"><title>Node8&#45;&gt;Node9</title>
<path fill="none" stroke="midnightblue" d="M382.541,-196.537C381.59,-184.17 380.394,-168.62 379.664,-159.127"/>
<polygon fill="midnightblue" stroke="midnightblue" points="379.069,-197.032 383.326,-206.734 386.048,-196.495 379.069,-197.032"/>
</g>
<!-- Node9&#45;&gt;Node3 -->
<g id="edge10" class="edge"><title>Node9&#45;&gt;Node3</title>
<path fill="none" stroke="midnightblue" d="M338.184,-137.254C301.285,-127.069 245.479,-111.617 197,-98 190.176,-96.0833 182.843,-94.0077 175.925,-92.0424"/>
<polygon fill="midnightblue" stroke="midnightblue" points="337.498,-140.696 348.069,-139.982 339.36,-133.948 337.498,-140.696"/>
</g>
<!-- Node9&#45;&gt;Node4 -->
<g id="edge12" class="edge"><title>Node9&#45;&gt;Node4</title>
<path fill="none" stroke="midnightblue" d="M369.67,-130.663C363.113,-118.128 354.63,-101.91 349.513,-92.1273"/>
<polygon fill="midnightblue" stroke="midnightblue" points="366.678,-132.495 374.415,-139.734 372.881,-129.251 366.678,-132.495"/>
</g>
<!-- Node9&#45;&gt;Node5 -->
<g id="edge13" class="edge"><title>Node9&#45;&gt;Node5</title>
<path fill="none" stroke="midnightblue" d="M311.729,-138.404C253.952,-129.289 168.585,-114.761 95,-98 87.4154,-96.2724 79.2828,-94.1408 71.7548,-92.0488"/>
<polygon fill="midnightblue" stroke="midnightblue" points="311.408,-141.896 321.83,-139.987 312.492,-134.981 311.408,-141.896"/>
</g>
<!-- Node9&#45;&gt;Node6 -->
<g id="edge15" class="edge"><title>Node9&#45;&gt;Node6</title>
<path fill="none" stroke="midnightblue" d="M351.883,-135.444C325.144,-122.569 285.034,-103.257 262.001,-92.1672"/>
<polygon fill="midnightblue" stroke="midnightblue" points="350.545,-138.684 361.073,-139.869 353.581,-132.377 350.545,-138.684"/>
</g>
<!-- Node10 -->
<g id="node10" class="node"><title>Node10</title>
<g id="a_node10"><a xlink:href="auxiliary_8c.html" target="_top" xlink:title="control/auxiliary.c">
<polygon fill="white" stroke="black" points="530.5,-73 530.5,-92 623.5,-92 623.5,-73 530.5,-73"/>
<text text-anchor="middle" x="577" y="-80" font-family="Helvetica,sans-Serif" font-size="10.00">control/auxiliary.c</text>
</a>
</g>
</g>
<!-- Node9&#45;&gt;Node10 -->
<g id="edge11" class="edge"><title>Node9&#45;&gt;Node10</title>
<path fill="none" stroke="midnightblue" d="M414.995,-136.683C454.24,-123.8 516.086,-103.497 550.914,-92.0637"/>
<polygon fill="midnightblue" stroke="midnightblue" points="413.702,-133.424 405.293,-139.869 415.886,-140.075 413.702,-133.424"/>
</g>
<!-- Node11 -->
<g id="node11" class="node"><title>Node11</title>
<g id="a_node11"><a xlink:href="al4san__f77_8c.html" target="_top" xlink:title="control/al4san_f77.c">
<polygon fill="white" stroke="black" points="408,-73 408,-92 512,-92 512,-73 408,-73"/>
<text text-anchor="middle" x="460" y="-80" font-family="Helvetica,sans-Serif" font-size="10.00">control/al4san_f77.c</text>
</a>
</g>
</g>
<!-- Node9&#45;&gt;Node11 -->
<g id="edge14" class="edge"><title>Node9&#45;&gt;Node11</title>
<path fill="none" stroke="midnightblue" d="M398.049,-133.213C414.008,-120.407 436.213,-102.588 449.249,-92.1273"/>
<polygon fill="midnightblue" stroke="midnightblue" points="395.533,-130.745 389.924,-139.734 399.914,-136.205 395.533,-130.745"/>
</g>
<!-- Node9&#45;&gt;Node12 -->
<g id="edge16" class="edge"><title>Node9&#45;&gt;Node12</title>
<path fill="none" stroke="midnightblue" d="M432.014,-137.962C489.246,-126.586 580.419,-108.463 641.701,-96.2812"/>
<polygon fill="midnightblue" stroke="midnightblue" points="431.212,-134.553 422.086,-139.936 432.576,-141.419 431.212,-134.553"/>
</g>
<!-- Node13 -->
<g id="node13" class="node"><title>Node13</title>
<g id="a_node13"><a xlink:href="runtime__async_8c.html" target="_top" xlink:title="runtime/starpu/control\l/runtime_async.c">
<polygon fill="white" stroke="black" points="327.5,-0.5 327.5,-30.5 438.5,-30.5 438.5,-0.5 327.5,-0.5"/>
<text text-anchor="start" x="335.5" y="-18.5" font-family="Helvetica,sans-Serif" font-size="10.00">runtime/starpu/control</text>
<text text-anchor="middle" x="383" y="-7.5" font-family="Helvetica,sans-Serif" font-size="10.00">/runtime_async.c</text>
</a>
</g>
</g>
<!-- Node12&#45;&gt;Node13 -->
<g id="edge17" class="edge"><title>Node12&#45;&gt;Node13</title>
<path fill="none" stroke="midnightblue" d="M632.301,-67.0589C632.201,-67.0392 632.1,-67.0196 632,-67 549.788,-50.9465 528.968,-48.2564 447,-31 444.324,-30.4367 441.588,-29.8516 438.826,-29.2537"/>
<polygon fill="midnightblue" stroke="midnightblue" points="631.34,-70.4371 641.826,-68.92 632.683,-63.5671 631.34,-70.4371"/>
</g>
<!-- Node14 -->
<g id="node14" class="node"><title>Node14</title>
<g id="a_node14"><a xlink:href="runtime__context_8c.html" target="_top" xlink:title="runtime/starpu/control\l/runtime_context.c">
<polygon fill="white" stroke="black" points="456.5,-0.5 456.5,-30.5 567.5,-30.5 567.5,-0.5 456.5,-0.5"/>
<text text-anchor="start" x="464.5" y="-18.5" font-family="Helvetica,sans-Serif" font-size="10.00">runtime/starpu/control</text>
<text text-anchor="middle" x="512" y="-7.5" font-family="Helvetica,sans-Serif" font-size="10.00">/runtime_context.c</text>
</a>
</g>
</g>
<!-- Node12&#45;&gt;Node14 -->
<g id="edge18" class="edge"><title>Node12&#45;&gt;Node14</title>
<path fill="none" stroke="midnightblue" d="M654.043,-64.0917C622.726,-53.5988 583.357,-40.4082 554.013,-30.5765"/>
<polygon fill="midnightblue" stroke="midnightblue" points="653.311,-67.5376 663.905,-67.396 655.535,-60.9003 653.311,-67.5376"/>
</g>
<!-- Node15 -->
<g id="node15" class="node"><title>Node15</title>
<g id="a_node15"><a xlink:href="runtime__control_8c.html" target="_top" xlink:title="runtime/starpu/control\l/runtime_control.c">
<polygon fill="white" stroke="black" points="585.5,-0.5 585.5,-30.5 696.5,-30.5 696.5,-0.5 585.5,-0.5"/>
<text text-anchor="start" x="593.5" y="-18.5" font-family="Helvetica,sans-Serif" font-size="10.00">runtime/starpu/control</text>
<text text-anchor="middle" x="641" y="-7.5" font-family="Helvetica,sans-Serif" font-size="10.00">/runtime_control.c</text>
</a>
</g>
</g>
<!-- Node12&#45;&gt;Node15 -->
<g id="edge19" class="edge"><title>Node12&#45;&gt;Node15</title>
<path fill="none" stroke="midnightblue" d="M684.811,-60.3115C675.061,-50.5612 663.759,-39.259 655.077,-30.5765"/>
<polygon fill="midnightblue" stroke="midnightblue" points="682.35,-62.7998 691.896,-67.396 687.3,-57.85 682.35,-62.7998"/>
</g>
<!-- Node16 -->
<g id="node16" class="node"><title>Node16</title>
<g id="a_node16"><a xlink:href="runtime__options_8c.html" target="_top" xlink:title="runtime/starpu/control\l/runtime_options.c">
<polygon fill="white" stroke="black" points="714.5,-0.5 714.5,-30.5 825.5,-30.5 825.5,-0.5 714.5,-0.5"/>
<text text-anchor="start" x="722.5" y="-18.5" font-family="Helvetica,sans-Serif" font-size="10.00">runtime/starpu/control</text>
<text text-anchor="middle" x="770" y="-7.5" font-family="Helvetica,sans-Serif" font-size="10.00">/runtime_options.c</text>
</a>
</g>
</g>
<!-- Node12&#45;&gt;Node16 -->
<g id="edge20" class="edge"><title>Node12&#45;&gt;Node16</title>
<path fill="none" stroke="midnightblue" d="M727.145,-60.0243C736.681,-50.3398 747.675,-39.1739 756.14,-30.5765"/>
<polygon fill="midnightblue" stroke="midnightblue" points="724.409,-57.8146 719.887,-67.396 729.397,-62.7259 724.409,-57.8146"/>
</g>
<!-- Node17 -->
<g id="node17" class="node"><title>Node17</title>
<g id="a_node17"><a xlink:href="runtime__workspace_8c.html" target="_top" xlink:title="runtime/starpu/control\l/runtime_workspace.c">
<polygon fill="white" stroke="black" points="843.5,-0.5 843.5,-30.5 956.5,-30.5 956.5,-0.5 843.5,-0.5"/>
<text text-anchor="start" x="851.5" y="-18.5" font-family="Helvetica,sans-Serif" font-size="10.00">runtime/starpu/control</text>
<text text-anchor="middle" x="900" y="-7.5" font-family="Helvetica,sans-Serif" font-size="10.00">/runtime_workspace.c</text>
</a>
</g>
</g>
<!-- Node12&#45;&gt;Node17 -->
<g id="edge21" class="edge"><title>Node12&#45;&gt;Node17</title>
<path fill="none" stroke="midnightblue" d="M757.957,-64.0917C789.274,-53.5988 828.643,-40.4082 857.987,-30.5765"/>
<polygon fill="midnightblue" stroke="midnightblue" points="756.465,-60.9003 748.095,-67.396 758.689,-67.5376 756.465,-60.9003"/>
</g>
<!-- Node18 -->
<g id="node18" class="node"><title>Node18</title>
<g id="a_node18"><a xlink:href="runtime__task_8c.html" target="_top" xlink:title="runtime/starpu/control\l/runtime_task.c">
<polygon fill="white" stroke="black" points="974.5,-0.5 974.5,-30.5 1085.5,-30.5 1085.5,-0.5 974.5,-0.5"/>
<text text-anchor="start" x="982.5" y="-18.5" font-family="Helvetica,sans-Serif" font-size="10.00">runtime/starpu/control</text>
<text text-anchor="middle" x="1030" y="-7.5" font-family="Helvetica,sans-Serif" font-size="10.00">/runtime_task.c</text>
</a>
</g>
</g>
<!-- Node12&#45;&gt;Node18 -->
<g id="edge22" class="edge"><title>Node12&#45;&gt;Node18</title>
<path fill="none" stroke="midnightblue" d="M780.331,-67.5566C832.162,-57.6995 902.885,-43.9813 965,-31 968.056,-30.3614 971.19,-29.6962 974.352,-29.0171"/>
<polygon fill="midnightblue" stroke="midnightblue" points="779.397,-64.1714 770.225,-69.4752 780.703,-71.0485 779.397,-64.1714"/>
</g>
<!-- Node19&#45;&gt;Node4 -->
<g id="edge26" class="edge"><title>Node19&#45;&gt;Node4</title>
<path fill="none" stroke="midnightblue" d="M256.64,-198.81C269.145,-182.318 288.844,-156.382 306,-134 317.321,-119.23 330.579,-102.097 338.356,-92.0633"/>
<polygon fill="midnightblue" stroke="midnightblue" points="253.746,-196.835 250.496,-206.919 259.325,-201.063 253.746,-196.835"/>
</g>
<!-- Node19&#45;&gt;Node5 -->
<g id="edge27" class="edge"><title>Node19&#45;&gt;Node5</title>
<path fill="none" stroke="midnightblue" d="M170.216,-206.746C139.024,-199.799 104.17,-187.341 79,-165 56.5573,-145.08 47.4552,-108.547 44.3628,-92.0203"/>
<polygon fill="midnightblue" stroke="midnightblue" points="169.695,-210.212 180.197,-208.813 171.115,-203.358 169.695,-210.212"/>
</g>
<!-- Node19&#45;&gt;Node6 -->
<g id="edge28" class="edge"><title>Node19&#45;&gt;Node6</title>
<path fill="none" stroke="midnightblue" d="M244,-196.775C244,-167.746 244,-113.038 244,-92.0212"/>
<polygon fill="midnightblue" stroke="midnightblue" points="240.5,-196.839 244,-206.839 247.5,-196.839 240.5,-196.839"/>
</g>
<!-- Node19&#45;&gt;Node9 -->
<g id="edge24" class="edge"><title>Node19&#45;&gt;Node9</title>
<path fill="none" stroke="midnightblue" d="M271.117,-202.444C297.856,-189.569 337.966,-170.257 360.999,-159.167"/>
<polygon fill="midnightblue" stroke="midnightblue" points="269.419,-199.377 261.927,-206.869 272.455,-205.684 269.419,-199.377"/>
</g>
<!-- Node19&#45;&gt;Node10 -->
<g id="edge25" class="edge"><title>Node19&#45;&gt;Node10</title>
<path fill="none" stroke="midnightblue" d="M296.633,-204.847C348.679,-193.934 424.419,-176.922 452,-165 498.134,-145.06 546.131,-108.538 566.674,-92.0168"/>
<polygon fill="midnightblue" stroke="midnightblue" points="295.637,-201.48 286.561,-206.946 297.064,-208.333 295.637,-201.48"/>
</g>
<!-- Node20&#45;&gt;Node4 -->
<g id="edge31" class="edge"><title>Node20&#45;&gt;Node4</title>
<path fill="none" stroke="midnightblue" d="M510.688,-198.507C498.083,-180.6 476.258,-152.481 452,-134 426.837,-114.829 393.228,-100.448 370.439,-92.0321"/>
<polygon fill="midnightblue" stroke="midnightblue" points="507.859,-200.57 516.404,-206.835 513.631,-196.609 507.859,-200.57"/>
</g>
<!-- Node20&#45;&gt;Node9 -->
<g id="edge30" class="edge"><title>Node20&#45;&gt;Node9</title>
<path fill="none" stroke="midnightblue" d="M493.648,-202.613C465.325,-189.739 422.573,-170.306 398.068,-159.167"/>
<polygon fill="midnightblue" stroke="midnightblue" points="492.459,-205.917 503.011,-206.869 495.355,-199.544 492.459,-205.917"/>
</g>
<!-- Node21&#45;&gt;Node7 -->
<g id="edge33" class="edge"><title>Node21&#45;&gt;Node7</title>
<path fill="none" stroke="midnightblue" d="M384,-313.805C384,-304.91 384,-294.78 384,-287.751"/>
<polygon fill="midnightblue" stroke="midnightblue" points="380.5,-314.083 384,-324.083 387.5,-314.083 380.5,-314.083"/>
</g>
<!-- Node22&#45;&gt;Node12 -->
<g id="edge36" class="edge"><title>Node22&#45;&gt;Node12</title>
<path fill="none" stroke="midnightblue" d="M671.801,-192.484C676.455,-184.047 681.381,-174.288 685,-165 693.913,-142.128 700.172,-114.176 703.421,-97.6623"/>
<polygon fill="midnightblue" stroke="midnightblue" points="668.658,-190.93 666.746,-201.351 674.739,-194.397 668.658,-190.93"/>
</g>
<!-- Node23 -->
<g id="node23" class="node"><title>Node23</title>
<g id="a_node23"><a xlink:href="runtime__task_8h.html" target="_top" xlink:title="runtime/starpu/include\l/runtime_task.h">
<polygon fill="white" stroke="black" points="563.5,-134.5 563.5,-164.5 676.5,-164.5 676.5,-134.5 563.5,-134.5"/>
<text text-anchor="start" x="571.5" y="-152.5" font-family="Helvetica,sans-Serif" font-size="10.00">runtime/starpu/include</text>
<text text-anchor="middle" x="620" y="-141.5" font-family="Helvetica,sans-Serif" font-size="10.00">/runtime_task.h</text>
</a>
</g>
</g>
<!-- Node22&#45;&gt;Node23 -->
<g id="edge37" class="edge"><title>Node22&#45;&gt;Node23</title>
<path fill="none" stroke="midnightblue" d="M644.598,-192.576C639.141,-183.241 633.007,-172.748 628.229,-164.577"/>
<polygon fill="midnightblue" stroke="midnightblue" points="641.686,-194.529 649.755,-201.396 647.729,-190.997 641.686,-194.529"/>
</g>
<!-- Node23&#45;&gt;Node12 -->
<g id="edge38" class="edge"><title>Node23&#45;&gt;Node12</title>
<path fill="none" stroke="midnightblue" d="M646.901,-128.168C660.052,-118.228 675.55,-106.514 687.376,-97.5765"/>
<polygon fill="midnightblue" stroke="midnightblue" points="644.528,-125.574 638.661,-134.396 648.749,-131.158 644.528,-125.574"/>
</g>
</g>
</svg>
        <g id="navigator" transform="translate(0 0)" fill="#404254">
                <rect fill="#f2f5e9" fill-opacity="0.5" stroke="#606060" stroke-width=".5" x="0" y="0" width="60" height="60"/>
                <use id="zoomplus" xlink:href="#zoomPlus" x="17" y="9" onmousedown="handleZoom(evt,'in')"/>
                <use id="zoomminus" xlink:href="#zoomMin" x="42" y="9" onmousedown="handleZoom(evt,'out')"/>
                <use id="reset" xlink:href="#resetDef" x="30" y="36" onmousedown="handleReset()"/>
                <g id="arrowUp" xlink:href="#dirArrow" transform="translate(30 24)" onmousedown="handlePan(0,-1)">
                  <use xlink:href="#rim" fill="#404040">
                        <set attributeName="fill" to="#808080" begin="arrowUp.mouseover" end="arrowUp.mouseout"/>
                  </use>
                  <path fill="none" stroke="white" stroke-width="1.5" d="M0,-3.0v7 M-2.5,-0.5L0,-3.0L2.5,-0.5"/>
                </g>
                <g id="arrowRight" xlink:href="#dirArrow" transform="rotate(90) translate(36 -43)" onmousedown="handlePan(1,0)">
                  <use xlink:href="#rim" fill="#404040">
                        <set attributeName="fill" to="#808080" begin="arrowRight.mouseover" end="arrowRight.mouseout"/>
                  </use>
                  <path fill="none" stroke="white" stroke-width="1.5" d="M0,-3.0v7 M-2.5,-0.5L0,-3.0L2.5,-0.5"/>
                </g>
                <g id="arrowDown" xlink:href="#dirArrow" transform="rotate(180) translate(-30 -48)" onmousedown="handlePan(0,1)">
                  <use xlink:href="#rim" fill="#404040">
                        <set attributeName="fill" to="#808080" begin="arrowDown.mouseover" end="arrowDown.mouseout"/>
                  </use>
                  <path fill="none" stroke="white" stroke-width="1.5" d="M0,-3.0v7 M-2.5,-0.5L0,-3.0L2.5,-0.5"/>
                </g>
                <g id="arrowLeft" xlink:href="#dirArrow" transform="rotate(270) translate(-36 17)" onmousedown="handlePan(-1,0)">
                  <use xlink:href="#rim" fill="#404040">
                        <set attributeName="fill" to="#808080" begin="arrowLeft.mouseover" end="arrowLeft.mouseout"/>
                  </use>
                  <path fill="none" stroke="white" stroke-width="1.5" d="M0,-3.0v7 M-2.5,-0.5L0,-3.0L2.5,-0.5"/>
                </g>
        </g>
        <svg viewBox="0 0 15 15" width="100%" height="30px" preserveAspectRatio="xMaxYMin meet">
         <g id="arrow_out" transform="scale(0.3 0.3)">
          <a xlink:href="config_8h__dep__incl_org.svg" target="_base">
           <rect id="button" ry="5" rx="5" y="6" x="6" height="38" width="38"
                fill="#f2f5e9" fill-opacity="0.5" stroke="#606060" stroke-width="1.0"/>
           <path id="arrow"
             d="M 11.500037,31.436501 C 11.940474,20.09759 22.043105,11.32322 32.158766,21.979434 L 37.068811,17.246167 C 37.068811,17.246167 37.088388,32 37.088388,32 L 22.160133,31.978069 C 22.160133,31.978069 26.997745,27.140456 26.997745,27.140456 C 18.528582,18.264221 13.291696,25.230495 11.500037,31.436501 z"
             style="fill:#404040;"/>
          </a>
         </g>
        </svg>
</svg>
