<?xml version="1.0" encoding="UTF-8" standalone="no"?>
<!DOCTYPE svg PUBLIC "-//W3C//DTD SVG 1.1//EN"
 "http://www.w3.org/Graphics/SVG/1.1/DTD/svg11.dtd">
<!-- Generated by graphviz version 2.38.0 (20140413.2041)
 -->
<!-- Title: control/context.c Pages: 1 -->
<!--zoomable 308 -->
<svg id="main" version="1.1" xmlns="http://www.w3.org/2000/svg" xmlns:xlink="http://www.w3.org/1999/xlink" xml:space="preserve" onload="init(evt)">
<style type="text/css"><![CDATA[
.edge:hover path { stroke: red; }
.edge:hover polygon { stroke: red; fill: red; }
]]></style>
<script type="text/javascript"><![CDATA[
var edges = document.getElementsByTagName('g');
if (edges && edges.length) {
  for (var i=0;i<edges.length;i++) {
    if (edges[i].id.substr(0,4)=='edge') {
      edges[i].setAttribute('class','edge');
    }
  }
}
]]></script>
        <defs>
                <circle id="rim" cx="0" cy="0" r="7"/>
                <circle id="rim2" cx="0" cy="0" r="3.5"/>
                <g id="zoomPlus">
                        <use xlink:href="#rim" fill="#404040">
                                <set attributeName="fill" to="#808080" begin="zoomplus.mouseover" end="zoomplus.mouseout"/>
                        </use>
                        <path d="M-4,0h8M0,-4v8" fill="none" stroke="white" stroke-width="1.5" pointer-events="none"/>
                </g>
                <g id="zoomMin">
                        <use xlink:href="#rim" fill="#404040">
                                <set attributeName="fill" to="#808080" begin="zoomminus.mouseover" end="zoomminus.mouseout"/>
                        </use>
                        <path d="M-4,0h8" fill="none" stroke="white" stroke-width="1.5" pointer-events="none"/>
                </g>
                <g id="dirArrow">
                        <path fill="none" stroke="white" stroke-width="1.5" d="M0,-3.0v7 M-2.5,-0.5L0,-3.0L2.5,-0.5"/>
                </g>
               <g id="resetDef">
                       <use xlink:href="#rim2" fill="#404040">
                               <set attributeName="fill" to="#808080" begin="reset.mouseover" end="reset.mouseout"/>
                       </use>
               </g>
        </defs>

<script type="text/javascript">
var viewWidth = 697;
var viewHeight = 308;
var sectionId = 'dynsection-0';
</script>
<script xlink:href="svgpan.js"/>
<svg id="graph" class="graph">
<g id="viewport">
<title>control/context.c</title>
<polygon fill="white" stroke="none" points="-4,4 -4,-304 693,-304 693,4 -4,4"/>
<!-- Node1 -->
<g id="node1" class="node"><title>Node1</title>
<polygon fill="#bfbfbf" stroke="black" points="255,-280.5 255,-299.5 344,-299.5 344,-280.5 255,-280.5"/>
<text text-anchor="middle" x="299.5" y="-287.5" font-family="Helvetica,sans-Serif" font-size="10.00">control/context.c</text>
</g>
<!-- Node2 -->
<g id="node2" class="node"><title>Node2</title>
<polygon fill="white" stroke="#bfbfbf" points="101.5,-224.5 101.5,-243.5 149.5,-243.5 149.5,-224.5 101.5,-224.5"/>
<text text-anchor="middle" x="125.5" y="-231.5" font-family="Helvetica,sans-Serif" font-size="10.00">stdlib.h</text>
</g>
<!-- Node1&#45;&gt;Node2 -->
<g id="edge1" class="edge"><title>Node1&#45;&gt;Node2</title>
<path fill="none" stroke="midnightblue" d="M271.929,-280.444C241.36,-270.957 192.041,-255.651 159.203,-245.46"/>
<polygon fill="midnightblue" stroke="midnightblue" points="160.168,-242.094 149.58,-242.473 158.093,-248.78 160.168,-242.094"/>
</g>
<!-- Node3 -->
<g id="node3" class="node"><title>Node3</title>
<polygon fill="white" stroke="#bfbfbf" points="168,-224.5 168,-243.5 225,-243.5 225,-224.5 168,-224.5"/>
<text text-anchor="middle" x="196.5" y="-231.5" font-family="Helvetica,sans-Serif" font-size="10.00">pthread.h</text>
</g>
<!-- Node1&#45;&gt;Node3 -->
<g id="edge2" class="edge"><title>Node1&#45;&gt;Node3</title>
<path fill="none" stroke="midnightblue" d="M282.951,-280.324C266.508,-271.703 241.065,-258.364 222.032,-248.386"/>
<polygon fill="midnightblue" stroke="midnightblue" points="223.489,-245.198 213.008,-243.655 220.239,-251.398 223.489,-245.198"/>
</g>
<!-- Node4 -->
<g id="node4" class="node"><title>Node4</title>
<g id="a_node4"><a xlink:href="al4san__common_8h.html" target="_top" xlink:title="control/al4san_common.h">
<polygon fill="white" stroke="black" points="281.5,-224.5 281.5,-243.5 409.5,-243.5 409.5,-224.5 281.5,-224.5"/>
<text text-anchor="middle" x="345.5" y="-231.5" font-family="Helvetica,sans-Serif" font-size="10.00">control/al4san_common.h</text>
</a>
</g>
</g>
<!-- Node1&#45;&gt;Node4 -->
<g id="edge3" class="edge"><title>Node1&#45;&gt;Node4</title>
<path fill="none" stroke="midnightblue" d="M307.096,-280.083C313.727,-272.298 323.521,-260.801 331.558,-251.367"/>
<polygon fill="midnightblue" stroke="midnightblue" points="334.225,-253.633 338.045,-243.751 328.896,-249.094 334.225,-253.633"/>
</g>
<!-- Node8 -->
<g id="node8" class="node"><title>Node8</title>
<g id="a_node8"><a xlink:href="al4san__auxiliary_8h.html" target="_top" xlink:title="control/al4san_auxiliary.h">
<polygon fill="white" stroke="black" points="0,-168.5 0,-187.5 127,-187.5 127,-168.5 0,-168.5"/>
<text text-anchor="middle" x="63.5" y="-175.5" font-family="Helvetica,sans-Serif" font-size="10.00">control/al4san_auxiliary.h</text>
</a>
</g>
</g>
<!-- Node1&#45;&gt;Node8 -->
<g id="edge20" class="edge"><title>Node1&#45;&gt;Node8</title>
<path fill="none" stroke="midnightblue" d="M293.223,-280.402C282.551,-266.417 259.485,-238.818 233.5,-224 203.706,-207.009 167.323,-196.265 135.872,-189.557"/>
<polygon fill="midnightblue" stroke="midnightblue" points="136.346,-186.081 125.849,-187.518 134.95,-192.941 136.346,-186.081"/>
</g>
<!-- Node15 -->
<g id="node15" class="node"><title>Node15</title>
<g id="a_node15"><a xlink:href="al4san__context_8h.html" target="_top" xlink:title="control/al4san_context.h">
<polygon fill="white" stroke="black" points="459,-168.5 459,-187.5 582,-187.5 582,-168.5 459,-168.5"/>
<text text-anchor="middle" x="520.5" y="-175.5" font-family="Helvetica,sans-Serif" font-size="10.00">control/al4san_context.h</text>
</a>
</g>
</g>
<!-- Node1&#45;&gt;Node15 -->
<g id="edge21" class="edge"><title>Node1&#45;&gt;Node15</title>
<path fill="none" stroke="midnightblue" d="M327.117,-280.359C351.681,-272.254 388.286,-259.137 418.5,-244 448.293,-229.074 480.345,-207.675 500.407,-193.564"/>
<polygon fill="midnightblue" stroke="midnightblue" points="502.61,-196.292 508.729,-187.643 498.552,-190.588 502.61,-196.292"/>
</g>
<!-- Node17 -->
<g id="node17" class="node"><title>Node17</title>
<g id="a_node17"><a xlink:href="runtime_8h.html" target="_top" xlink:title="al4san/runtime.h">
<polygon fill="white" stroke="black" points="600,-168.5 600,-187.5 689,-187.5 689,-168.5 600,-168.5"/>
<text text-anchor="middle" x="644.5" y="-175.5" font-family="Helvetica,sans-Serif" font-size="10.00">al4san/runtime.h</text>
</a>
</g>
</g>
<!-- Node1&#45;&gt;Node17 -->
<g id="edge22" class="edge"><title>Node1&#45;&gt;Node17</title>
<path fill="none" stroke="midnightblue" d="M329.103,-280.498C359.612,-271.66 408.511,-257.287 450.5,-244 506.613,-226.244 571.359,-204.243 610.056,-190.93"/>
<polygon fill="midnightblue" stroke="midnightblue" points="611.468,-194.146 619.782,-187.579 609.187,-187.528 611.468,-194.146"/>
</g>
<!-- Node5 -->
<g id="node5" class="node"><title>Node5</title>
<polygon fill="white" stroke="#bfbfbf" points="390,-168.5 390,-187.5 441,-187.5 441,-168.5 390,-168.5"/>
<text text-anchor="middle" x="415.5" y="-175.5" font-family="Helvetica,sans-Serif" font-size="10.00">unistd.h</text>
</g>
<!-- Node4&#45;&gt;Node5 -->
<g id="edge4" class="edge"><title>Node4&#45;&gt;Node5</title>
<path fill="none" stroke="midnightblue" d="M356.747,-224.324C367.297,-216.185 383.301,-203.839 395.942,-194.087"/>
<polygon fill="midnightblue" stroke="midnightblue" points="398.269,-196.713 404.049,-187.834 393.993,-191.171 398.269,-196.713"/>
</g>
<!-- Node6 -->
<g id="node6" class="node"><title>Node6</title>
<polygon fill="white" stroke="#bfbfbf" points="197.5,-0.5 197.5,-19.5 249.5,-19.5 249.5,-0.5 197.5,-0.5"/>
<text text-anchor="middle" x="223.5" y="-7.5" font-family="Helvetica,sans-Serif" font-size="10.00">stdarg.h</text>
</g>
<!-- Node4&#45;&gt;Node6 -->
<g id="edge5" class="edge"><title>Node4&#45;&gt;Node6</title>
<path fill="none" stroke="midnightblue" d="M281.888,-224.446C238.965,-217.219 187.807,-205.262 174.5,-188 136.437,-138.624 185.102,-61.4185 210.217,-27.6984"/>
<polygon fill="midnightblue" stroke="midnightblue" points="213.003,-29.8174 216.307,-19.7511 207.447,-25.5596 213.003,-29.8174"/>
</g>
<!-- Node7 -->
<g id="node7" class="node"><title>Node7</title>
<polygon fill="white" stroke="#bfbfbf" points="319,-168.5 319,-187.5 372,-187.5 372,-168.5 319,-168.5"/>
<text text-anchor="middle" x="345.5" y="-175.5" font-family="Helvetica,sans-Serif" font-size="10.00">al4san.h</text>
</g>
<!-- Node4&#45;&gt;Node7 -->
<g id="edge6" class="edge"><title>Node4&#45;&gt;Node7</title>
<path fill="none" stroke="midnightblue" d="M345.5,-224.083C345.5,-217.006 345.5,-206.861 345.5,-197.986"/>
<polygon fill="midnightblue" stroke="midnightblue" points="349,-197.751 345.5,-187.751 342,-197.751 349,-197.751"/>
</g>
<!-- Node4&#45;&gt;Node8 -->
<g id="edge7" class="edge"><title>Node4&#45;&gt;Node8</title>
<path fill="none" stroke="midnightblue" d="M300.816,-224.444C251.21,-214.944 171.135,-199.611 117.915,-189.42"/>
<polygon fill="midnightblue" stroke="midnightblue" points="118.455,-185.96 107.975,-187.516 117.138,-192.835 118.455,-185.96"/>
</g>
<!-- Node4&#45;&gt;Node15 -->
<g id="edge16" class="edge"><title>Node4&#45;&gt;Node15</title>
<path fill="none" stroke="midnightblue" d="M373.229,-224.444C402.926,-215.28 450.216,-200.688 483.169,-190.519"/>
<polygon fill="midnightblue" stroke="midnightblue" points="484.377,-193.809 492.9,-187.516 482.313,-187.121 484.377,-193.809"/>
</g>
<!-- Node16 -->
<g id="node16" class="node"><title>Node16</title>
<g id="a_node16"><a xlink:href="al4san__async_8h.html" target="_top" xlink:title="control/al4san_async.h">
<polygon fill="white" stroke="black" points="184,-168.5 184,-187.5 301,-187.5 301,-168.5 184,-168.5"/>
<text text-anchor="middle" x="242.5" y="-175.5" font-family="Helvetica,sans-Serif" font-size="10.00">control/al4san_async.h</text>
</a>
</g>
</g>
<!-- Node4&#45;&gt;Node16 -->
<g id="edge18" class="edge"><title>Node4&#45;&gt;Node16</title>
<path fill="none" stroke="midnightblue" d="M328.951,-224.324C312.508,-215.703 287.065,-202.364 268.032,-192.386"/>
<polygon fill="midnightblue" stroke="midnightblue" points="269.489,-189.198 259.008,-187.655 266.239,-195.398 269.489,-189.198"/>
</g>
<!-- Node9 -->
<g id="node9" class="node"><title>Node9</title>
<g id="a_node9"><a xlink:href="struct_8h.html" target="_top" xlink:title="al4san/struct.h">
<polygon fill="white" stroke="black" points="446,-112.5 446,-131.5 527,-131.5 527,-112.5 446,-112.5"/>
<text text-anchor="middle" x="486.5" y="-119.5" font-family="Helvetica,sans-Serif" font-size="10.00">al4san/struct.h</text>
</a>
</g>
</g>
<!-- Node8&#45;&gt;Node9 -->
<g id="edge8" class="edge"><title>Node8&#45;&gt;Node9</title>
<path fill="none" stroke="midnightblue" d="M127.285,-168.857C211.662,-158.086 358.687,-139.317 435.875,-129.463"/>
<polygon fill="midnightblue" stroke="midnightblue" points="436.361,-132.929 445.838,-128.191 435.475,-125.986 436.361,-132.929"/>
</g>
<!-- Node10 -->
<g id="node10" class="node"><title>Node10</title>
<g id="a_node10"><a xlink:href="config_8h.html" target="_top" xlink:title="al4san/config.h">
<polygon fill="white" stroke="black" points="529,-0.5 529,-19.5 612,-19.5 612,-0.5 529,-0.5"/>
<text text-anchor="middle" x="570.5" y="-7.5" font-family="Helvetica,sans-Serif" font-size="10.00">al4san/config.h</text>
</a>
</g>
</g>
<!-- Node9&#45;&gt;Node10 -->
<g id="edge9" class="edge"><title>Node9&#45;&gt;Node10</title>
<path fill="none" stroke="midnightblue" d="M493.091,-112.368C507.015,-94.135 539.629,-51.4257 557.766,-27.6752"/>
<polygon fill="midnightblue" stroke="midnightblue" points="560.652,-29.6633 563.939,-19.5914 555.088,-25.4149 560.652,-29.6633"/>
</g>
<!-- Node11 -->
<g id="node11" class="node"><title>Node11</title>
<g id="a_node11"><a xlink:href="types_8h.html" target="_top" xlink:title="al4san/types.h">
<polygon fill="white" stroke="black" points="398.5,-56.5 398.5,-75.5 478.5,-75.5 478.5,-56.5 398.5,-56.5"/>
<text text-anchor="middle" x="438.5" y="-63.5" font-family="Helvetica,sans-Serif" font-size="10.00">al4san/types.h</text>
</a>
</g>
</g>
<!-- Node9&#45;&gt;Node11 -->
<g id="edge10" class="edge"><title>Node9&#45;&gt;Node11</title>
<path fill="none" stroke="midnightblue" d="M478.574,-112.083C471.654,-104.298 461.435,-92.8015 453.048,-83.3665"/>
<polygon fill="midnightblue" stroke="midnightblue" points="455.538,-80.8999 446.279,-75.7511 450.306,-85.5505 455.538,-80.8999"/>
</g>
<!-- Node11&#45;&gt;Node6 -->
<g id="edge14" class="edge"><title>Node11&#45;&gt;Node6</title>
<path fill="none" stroke="midnightblue" d="M404.433,-56.4435C364.893,-46.5126 299.965,-30.2051 259.585,-20.0632"/>
<polygon fill="midnightblue" stroke="midnightblue" points="260.182,-16.6045 249.631,-17.5631 258.477,-23.3937 260.182,-16.6045"/>
</g>
<!-- Node11&#45;&gt;Node10 -->
<g id="edge11" class="edge"><title>Node11&#45;&gt;Node10</title>
<path fill="none" stroke="midnightblue" d="M459.416,-56.4435C481.236,-47.5171 515.65,-33.4387 540.392,-23.3168"/>
<polygon fill="midnightblue" stroke="midnightblue" points="541.752,-26.5422 549.682,-19.5164 539.101,-20.0634 541.752,-26.5422"/>
</g>
<!-- Node12 -->
<g id="node12" class="node"><title>Node12</title>
<polygon fill="white" stroke="#bfbfbf" points="381.5,-0.5 381.5,-19.5 433.5,-19.5 433.5,-0.5 381.5,-0.5"/>
<text text-anchor="middle" x="407.5" y="-7.5" font-family="Helvetica,sans-Serif" font-size="10.00">stddef.h</text>
</g>
<!-- Node11&#45;&gt;Node12 -->
<g id="edge12" class="edge"><title>Node11&#45;&gt;Node12</title>
<path fill="none" stroke="midnightblue" d="M433.381,-56.083C429.092,-48.6127 422.842,-37.7244 417.558,-28.5199"/>
<polygon fill="midnightblue" stroke="midnightblue" points="420.538,-26.6811 412.524,-19.7511 414.467,-30.1662 420.538,-26.6811"/>
</g>
<!-- Node13 -->
<g id="node13" class="node"><title>Node13</title>
<polygon fill="white" stroke="#bfbfbf" points="452,-0.5 452,-19.5 511,-19.5 511,-0.5 452,-0.5"/>
<text text-anchor="middle" x="481.5" y="-7.5" font-family="Helvetica,sans-Serif" font-size="10.00">inttypes.h</text>
</g>
<!-- Node11&#45;&gt;Node13 -->
<g id="edge13" class="edge"><title>Node11&#45;&gt;Node13</title>
<path fill="none" stroke="midnightblue" d="M445.601,-56.083C451.737,-48.3768 460.77,-37.0333 468.239,-27.6531"/>
<polygon fill="midnightblue" stroke="midnightblue" points="471.04,-29.7542 474.532,-19.7511 465.564,-25.3936 471.04,-29.7542"/>
</g>
<!-- Node14 -->
<g id="node14" class="node"><title>Node14</title>
<polygon fill="white" stroke="#bfbfbf" points="301.5,-0.5 301.5,-19.5 363.5,-19.5 363.5,-0.5 301.5,-0.5"/>
<text text-anchor="middle" x="332.5" y="-7.5" font-family="Helvetica,sans-Serif" font-size="10.00">complex.h</text>
</g>
<!-- Node11&#45;&gt;Node14 -->
<g id="edge15" class="edge"><title>Node11&#45;&gt;Node14</title>
<path fill="none" stroke="midnightblue" d="M421.469,-56.324C404.47,-47.6641 378.124,-34.2424 358.507,-24.249"/>
<polygon fill="midnightblue" stroke="midnightblue" points="359.988,-21.0752 349.488,-19.6545 356.81,-27.3125 359.988,-21.0752"/>
</g>
<!-- Node15&#45;&gt;Node9 -->
<g id="edge17" class="edge"><title>Node15&#45;&gt;Node9</title>
<path fill="none" stroke="midnightblue" d="M514.886,-168.083C510.133,-160.534 503.182,-149.495 497.348,-140.23"/>
<polygon fill="midnightblue" stroke="midnightblue" points="500.3,-138.349 492.01,-131.751 494.376,-142.078 500.3,-138.349"/>
</g>
<!-- Node16&#45;&gt;Node9 -->
<g id="edge19" class="edge"><title>Node16&#45;&gt;Node9</title>
<path fill="none" stroke="midnightblue" d="M281.163,-168.444C323.638,-159.043 391.931,-143.929 437.974,-133.739"/>
<polygon fill="midnightblue" stroke="midnightblue" points="439.011,-137.095 448.018,-131.516 437.498,-130.26 439.011,-137.095"/>
</g>
<!-- Node17&#45;&gt;Node9 -->
<g id="edge24" class="edge"><title>Node17&#45;&gt;Node9</title>
<path fill="none" stroke="midnightblue" d="M619.464,-168.444C592.884,-159.359 550.691,-144.939 520.977,-134.783"/>
<polygon fill="midnightblue" stroke="midnightblue" points="522.013,-131.439 511.418,-131.516 519.749,-138.062 522.013,-131.439"/>
</g>
<!-- Node17&#45;&gt;Node10 -->
<g id="edge23" class="edge"><title>Node17&#45;&gt;Node10</title>
<path fill="none" stroke="midnightblue" d="M640.521,-168.075C628.823,-141.832 594.37,-64.5453 578.576,-29.1165"/>
<polygon fill="midnightblue" stroke="midnightblue" points="581.588,-27.2766 574.32,-19.5681 575.194,-30.1268 581.588,-27.2766"/>
</g>
</g>
</svg>
        <g id="navigator" transform="translate(0 0)" fill="#404254">
                <rect fill="#f2f5e9" fill-opacity="0.5" stroke="#606060" stroke-width=".5" x="0" y="0" width="60" height="60"/>
                <use id="zoomplus" xlink:href="#zoomPlus" x="17" y="9" onmousedown="handleZoom(evt,'in')"/>
                <use id="zoomminus" xlink:href="#zoomMin" x="42" y="9" onmousedown="handleZoom(evt,'out')"/>
                <use id="reset" xlink:href="#resetDef" x="30" y="36" onmousedown="handleReset()"/>
                <g id="arrowUp" xlink:href="#dirArrow" transform="translate(30 24)" onmousedown="handlePan(0,-1)">
                  <use xlink:href="#rim" fill="#404040">
                        <set attributeName="fill" to="#808080" begin="arrowUp.mouseover" end="arrowUp.mouseout"/>
                  </use>
                  <path fill="none" stroke="white" stroke-width="1.5" d="M0,-3.0v7 M-2.5,-0.5L0,-3.0L2.5,-0.5"/>
                </g>
                <g id="arrowRight" xlink:href="#dirArrow" transform="rotate(90) translate(36 -43)" onmousedown="handlePan(1,0)">
                  <use xlink:href="#rim" fill="#404040">
                        <set attributeName="fill" to="#808080" begin="arrowRight.mouseover" end="arrowRight.mouseout"/>
                  </use>
                  <path fill="none" stroke="white" stroke-width="1.5" d="M0,-3.0v7 M-2.5,-0.5L0,-3.0L2.5,-0.5"/>
                </g>
                <g id="arrowDown" xlink:href="#dirArrow" transform="rotate(180) translate(-30 -48)" onmousedown="handlePan(0,1)">
                  <use xlink:href="#rim" fill="#404040">
                        <set attributeName="fill" to="#808080" begin="arrowDown.mouseover" end="arrowDown.mouseout"/>
                  </use>
                  <path fill="none" stroke="white" stroke-width="1.5" d="M0,-3.0v7 M-2.5,-0.5L0,-3.0L2.5,-0.5"/>
                </g>
                <g id="arrowLeft" xlink:href="#dirArrow" transform="rotate(270) translate(-36 17)" onmousedown="handlePan(-1,0)">
                  <use xlink:href="#rim" fill="#404040">
                        <set attributeName="fill" to="#808080" begin="arrowLeft.mouseover" end="arrowLeft.mouseout"/>
                  </use>
                  <path fill="none" stroke="white" stroke-width="1.5" d="M0,-3.0v7 M-2.5,-0.5L0,-3.0L2.5,-0.5"/>
                </g>
        </g>
        <svg viewBox="0 0 15 15" width="100%" height="30px" preserveAspectRatio="xMaxYMin meet">
         <g id="arrow_out" transform="scale(0.3 0.3)">
          <a xlink:href="context_8c__incl_org.svg" target="_base">
           <rect id="button" ry="5" rx="5" y="6" x="6" height="38" width="38"
                fill="#f2f5e9" fill-opacity="0.5" stroke="#606060" stroke-width="1.0"/>
           <path id="arrow"
             d="M 11.500037,31.436501 C 11.940474,20.09759 22.043105,11.32322 32.158766,21.979434 L 37.068811,17.246167 C 37.068811,17.246167 37.088388,32 37.088388,32 L 22.160133,31.978069 C 22.160133,31.978069 26.997745,27.140456 26.997745,27.140456 C 18.528582,18.264221 13.291696,25.230495 11.500037,31.436501 z"
             style="fill:#404040;"/>
          </a>
         </g>
        </svg>
</svg>
