<?xml version="1.0" encoding="UTF-8" standalone="no"?>
<!DOCTYPE svg PUBLIC "-//W3C//DTD SVG 1.1//EN"
 "http://www.w3.org/Graphics/SVG/1.1/DTD/svg11.dtd">
<!-- Generated by graphviz version 2.38.0 (20140413.2041)
 -->
<!-- Title: control/control.c Pages: 1 -->
<!--zoomable 308 -->
<svg id="main" version="1.1" xmlns="http://www.w3.org/2000/svg" xmlns:xlink="http://www.w3.org/1999/xlink" xml:space="preserve" onload="init(evt)">
<style type="text/css"><![CDATA[
.edge:hover path { stroke: red; }
.edge:hover polygon { stroke: red; fill: red; }
]]></style>
<script type="text/javascript"><![CDATA[
var edges = document.getElementsByTagName('g');
if (edges && edges.length) {
  for (var i=0;i<edges.length;i++) {
    if (edges[i].id.substr(0,4)=='edge') {
      edges[i].setAttribute('class','edge');
    }
  }
}
]]></script>
        <defs>
                <circle id="rim" cx="0" cy="0" r="7"/>
                <circle id="rim2" cx="0" cy="0" r="3.5"/>
                <g id="zoomPlus">
                        <use xlink:href="#rim" fill="#404040">
                                <set attributeName="fill" to="#808080" begin="zoomplus.mouseover" end="zoomplus.mouseout"/>
                        </use>
                        <path d="M-4,0h8M0,-4v8" fill="none" stroke="white" stroke-width="1.5" pointer-events="none"/>
                </g>
                <g id="zoomMin">
                        <use xlink:href="#rim" fill="#404040">
                                <set attributeName="fill" to="#808080" begin="zoomminus.mouseover" end="zoomminus.mouseout"/>
                        </use>
                        <path d="M-4,0h8" fill="none" stroke="white" stroke-width="1.5" pointer-events="none"/>
                </g>
                <g id="dirArrow">
                        <path fill="none" stroke="white" stroke-width="1.5" d="M0,-3.0v7 M-2.5,-0.5L0,-3.0L2.5,-0.5"/>
                </g>
               <g id="resetDef">
                       <use xlink:href="#rim2" fill="#404040">
                               <set attributeName="fill" to="#808080" begin="reset.mouseover" end="reset.mouseout"/>
                       </use>
               </g>
        </defs>

<script type="text/javascript">
var viewWidth = 684;
var viewHeight = 308;
var sectionId = 'dynsection-0';
</script>
<script xlink:href="svgpan.js"/>
<svg id="graph" class="graph">
<g id="viewport">
<title>control/control.c</title>
<polygon fill="white" stroke="none" points="-4,4 -4,-304 679.947,-304 679.947,4 -4,4"/>
<!-- Node1 -->
<g id="node1" class="node"><title>Node1</title>
<polygon fill="#bfbfbf" stroke="black" points="304.447,-280.5 304.447,-299.5 390.447,-299.5 390.447,-280.5 304.447,-280.5"/>
<text text-anchor="middle" x="347.447" y="-287.5" font-family="Helvetica,sans-Serif" font-size="10.00">control/control.c</text>
</g>
<!-- Node2 -->
<g id="node2" class="node"><title>Node2</title>
<polygon fill="white" stroke="#bfbfbf" points="153.447,-224.5 153.447,-243.5 199.447,-243.5 199.447,-224.5 153.447,-224.5"/>
<text text-anchor="middle" x="176.447" y="-231.5" font-family="Helvetica,sans-Serif" font-size="10.00">stdio.h</text>
</g>
<!-- Node1&#45;&gt;Node2 -->
<g id="edge1" class="edge"><title>Node1&#45;&gt;Node2</title>
<path fill="none" stroke="midnightblue" d="M320.352,-280.444C290.269,-270.944 241.71,-255.609 209.439,-245.418"/>
<polygon fill="midnightblue" stroke="midnightblue" points="210.167,-241.978 199.577,-242.304 208.059,-248.653 210.167,-241.978"/>
</g>
<!-- Node3 -->
<g id="node3" class="node"><title>Node3</title>
<polygon fill="white" stroke="#bfbfbf" points="217.447,-224.5 217.447,-243.5 265.447,-243.5 265.447,-224.5 217.447,-224.5"/>
<text text-anchor="middle" x="241.447" y="-231.5" font-family="Helvetica,sans-Serif" font-size="10.00">stdlib.h</text>
</g>
<!-- Node1&#45;&gt;Node3 -->
<g id="edge2" class="edge"><title>Node1&#45;&gt;Node3</title>
<path fill="none" stroke="midnightblue" d="M330.416,-280.324C313.417,-271.664 287.071,-258.242 267.454,-248.249"/>
<polygon fill="midnightblue" stroke="midnightblue" points="268.935,-245.075 258.436,-243.655 265.757,-251.312 268.935,-245.075"/>
</g>
<!-- Node4 -->
<g id="node4" class="node"><title>Node4</title>
<g id="a_node4"><a xlink:href="al4san__auxiliary_8h.html" target="_top" xlink:title="control/al4san_auxiliary.h">
<polygon fill="white" stroke="black" points="441.947,-168.5 441.947,-187.5 568.947,-187.5 568.947,-168.5 441.947,-168.5"/>
<text text-anchor="middle" x="505.447" y="-175.5" font-family="Helvetica,sans-Serif" font-size="10.00">control/al4san_auxiliary.h</text>
</a>
</g>
</g>
<!-- Node1&#45;&gt;Node4 -->
<g id="edge3" class="edge"><title>Node1&#45;&gt;Node4</title>
<path fill="none" stroke="midnightblue" d="M362.266,-280.458C377.213,-271.705 400.822,-257.502 420.447,-244 444.037,-227.77 470.033,-207.521 486.987,-193.976"/>
<polygon fill="midnightblue" stroke="midnightblue" points="489.367,-196.554 494.968,-187.561 484.981,-191.098 489.367,-196.554"/>
</g>
<!-- Node12 -->
<g id="node12" class="node"><title>Node12</title>
<g id="a_node12"><a xlink:href="al4san__common_8h.html" target="_top" xlink:title="control/al4san_common.h">
<polygon fill="white" stroke="black" points="283.447,-224.5 283.447,-243.5 411.447,-243.5 411.447,-224.5 283.447,-224.5"/>
<text text-anchor="middle" x="347.447" y="-231.5" font-family="Helvetica,sans-Serif" font-size="10.00">control/al4san_common.h</text>
</a>
</g>
</g>
<!-- Node1&#45;&gt;Node12 -->
<g id="edge12" class="edge"><title>Node1&#45;&gt;Node12</title>
<path fill="none" stroke="midnightblue" d="M347.447,-280.083C347.447,-273.006 347.447,-262.861 347.447,-253.986"/>
<polygon fill="midnightblue" stroke="midnightblue" points="350.947,-253.751 347.447,-243.751 343.947,-253.751 350.947,-253.751"/>
</g>
<!-- Node17 -->
<g id="node17" class="node"><title>Node17</title>
<g id="a_node17"><a xlink:href="runtime_8h.html" target="_top" xlink:title="al4san/runtime.h">
<polygon fill="white" stroke="black" points="586.947,-168.5 586.947,-187.5 675.947,-187.5 675.947,-168.5 586.947,-168.5"/>
<text text-anchor="middle" x="631.447" y="-175.5" font-family="Helvetica,sans-Serif" font-size="10.00">al4san/runtime.h</text>
</a>
</g>
</g>
<!-- Node1&#45;&gt;Node17 -->
<g id="edge21" class="edge"><title>Node1&#45;&gt;Node17</title>
<path fill="none" stroke="midnightblue" d="M369.732,-280.368C419.918,-260.93 541.924,-213.674 599.877,-191.228"/>
<polygon fill="midnightblue" stroke="midnightblue" points="601.205,-194.467 609.266,-187.591 598.676,-187.94 601.205,-194.467"/>
</g>
<!-- Node5 -->
<g id="node5" class="node"><title>Node5</title>
<g id="a_node5"><a xlink:href="struct_8h.html" target="_top" xlink:title="al4san/struct.h">
<polygon fill="white" stroke="black" points="262.947,-112.5 262.947,-131.5 343.947,-131.5 343.947,-112.5 262.947,-112.5"/>
<text text-anchor="middle" x="303.447" y="-119.5" font-family="Helvetica,sans-Serif" font-size="10.00">al4san/struct.h</text>
</a>
</g>
</g>
<!-- Node4&#45;&gt;Node5 -->
<g id="edge4" class="edge"><title>Node4&#45;&gt;Node5</title>
<path fill="none" stroke="midnightblue" d="M473.44,-168.444C438.718,-159.162 383.16,-144.309 345.07,-134.127"/>
<polygon fill="midnightblue" stroke="midnightblue" points="345.87,-130.718 335.305,-131.516 344.062,-137.48 345.87,-130.718"/>
</g>
<!-- Node6 -->
<g id="node6" class="node"><title>Node6</title>
<g id="a_node6"><a xlink:href="config_8h.html" target="_top" xlink:title="al4san/config.h">
<polygon fill="white" stroke="black" points="361.947,-0.5 361.947,-19.5 444.947,-19.5 444.947,-0.5 361.947,-0.5"/>
<text text-anchor="middle" x="403.447" y="-7.5" font-family="Helvetica,sans-Serif" font-size="10.00">al4san/config.h</text>
</a>
</g>
</g>
<!-- Node5&#45;&gt;Node6 -->
<g id="edge5" class="edge"><title>Node5&#45;&gt;Node6</title>
<path fill="none" stroke="midnightblue" d="M311.294,-112.368C328.016,-93.9744 367.382,-50.6712 388.854,-27.0519"/>
<polygon fill="midnightblue" stroke="midnightblue" points="391.5,-29.3452 395.637,-19.5914 386.32,-24.6365 391.5,-29.3452"/>
</g>
<!-- Node7 -->
<g id="node7" class="node"><title>Node7</title>
<g id="a_node7"><a xlink:href="types_8h.html" target="_top" xlink:title="al4san/types.h">
<polygon fill="white" stroke="black" points="232.447,-56.5 232.447,-75.5 312.447,-75.5 312.447,-56.5 232.447,-56.5"/>
<text text-anchor="middle" x="272.447" y="-63.5" font-family="Helvetica,sans-Serif" font-size="10.00">al4san/types.h</text>
</a>
</g>
</g>
<!-- Node5&#45;&gt;Node7 -->
<g id="edge6" class="edge"><title>Node5&#45;&gt;Node7</title>
<path fill="none" stroke="midnightblue" d="M298.328,-112.083C294.04,-104.613 287.789,-93.7244 282.505,-84.5199"/>
<polygon fill="midnightblue" stroke="midnightblue" points="285.485,-82.6811 277.471,-75.7511 279.414,-86.1662 285.485,-82.6811"/>
</g>
<!-- Node7&#45;&gt;Node6 -->
<g id="edge7" class="edge"><title>Node7&#45;&gt;Node6</title>
<path fill="none" stroke="midnightblue" d="M293.204,-56.4435C314.764,-47.5566 348.71,-33.5632 373.241,-23.4514"/>
<polygon fill="midnightblue" stroke="midnightblue" points="374.875,-26.5634 382.787,-19.5164 372.208,-20.0917 374.875,-26.5634"/>
</g>
<!-- Node8 -->
<g id="node8" class="node"><title>Node8</title>
<polygon fill="white" stroke="#bfbfbf" points="133.447,-0.5 133.447,-19.5 185.447,-19.5 185.447,-0.5 133.447,-0.5"/>
<text text-anchor="middle" x="159.447" y="-7.5" font-family="Helvetica,sans-Serif" font-size="10.00">stddef.h</text>
</g>
<!-- Node7&#45;&gt;Node8 -->
<g id="edge8" class="edge"><title>Node7&#45;&gt;Node8</title>
<path fill="none" stroke="midnightblue" d="M254.542,-56.4435C236.193,-47.6751 207.442,-33.9355 186.354,-23.8579"/>
<polygon fill="midnightblue" stroke="midnightblue" points="187.8,-20.6703 177.269,-19.5164 184.782,-26.9862 187.8,-20.6703"/>
</g>
<!-- Node9 -->
<g id="node9" class="node"><title>Node9</title>
<polygon fill="white" stroke="#bfbfbf" points="203.947,-0.5 203.947,-19.5 262.947,-19.5 262.947,-0.5 203.947,-0.5"/>
<text text-anchor="middle" x="233.447" y="-7.5" font-family="Helvetica,sans-Serif" font-size="10.00">inttypes.h</text>
</g>
<!-- Node7&#45;&gt;Node9 -->
<g id="edge9" class="edge"><title>Node7&#45;&gt;Node9</title>
<path fill="none" stroke="midnightblue" d="M266.007,-56.083C260.498,-48.4554 252.416,-37.2645 245.682,-27.9408"/>
<polygon fill="midnightblue" stroke="midnightblue" points="248.46,-25.8087 239.767,-19.7511 242.785,-29.9071 248.46,-25.8087"/>
</g>
<!-- Node10 -->
<g id="node10" class="node"><title>Node10</title>
<polygon fill="white" stroke="#bfbfbf" points="32.4471,-0.5 32.4471,-19.5 84.4471,-19.5 84.4471,-0.5 32.4471,-0.5"/>
<text text-anchor="middle" x="58.4471" y="-7.5" font-family="Helvetica,sans-Serif" font-size="10.00">stdarg.h</text>
</g>
<!-- Node7&#45;&gt;Node10 -->
<g id="edge10" class="edge"><title>Node7&#45;&gt;Node10</title>
<path fill="none" stroke="midnightblue" d="M238.538,-56.4435C199.182,-46.5126 134.556,-30.2051 94.364,-20.0632"/>
<polygon fill="midnightblue" stroke="midnightblue" points="95.0087,-16.6162 84.4562,-17.5631 93.2959,-23.4034 95.0087,-16.6162"/>
</g>
<!-- Node11 -->
<g id="node11" class="node"><title>Node11</title>
<polygon fill="white" stroke="#bfbfbf" points="281.447,-0.5 281.447,-19.5 343.447,-19.5 343.447,-0.5 281.447,-0.5"/>
<text text-anchor="middle" x="312.447" y="-7.5" font-family="Helvetica,sans-Serif" font-size="10.00">complex.h</text>
</g>
<!-- Node7&#45;&gt;Node11 -->
<g id="edge11" class="edge"><title>Node7&#45;&gt;Node11</title>
<path fill="none" stroke="midnightblue" d="M279.052,-56.083C284.702,-48.4554 292.992,-37.2645 299.898,-27.9408"/>
<polygon fill="midnightblue" stroke="midnightblue" points="302.825,-29.87 305.965,-19.7511 297.2,-25.7034 302.825,-29.87"/>
</g>
<!-- Node12&#45;&gt;Node4 -->
<g id="edge16" class="edge"><title>Node12&#45;&gt;Node4</title>
<path fill="none" stroke="midnightblue" d="M372.483,-224.444C399.063,-215.359 441.256,-200.939 470.97,-190.783"/>
<polygon fill="midnightblue" stroke="midnightblue" points="472.198,-194.062 480.529,-187.516 469.934,-187.439 472.198,-194.062"/>
</g>
<!-- Node12&#45;&gt;Node10 -->
<g id="edge14" class="edge"><title>Node12&#45;&gt;Node10</title>
<path fill="none" stroke="midnightblue" d="M283.368,-224.819C187.753,-212.54 18.6345,-190.505 16.4471,-188 -24.1879,-141.467 21.797,-62.7045 45.7541,-28.1339"/>
<polygon fill="midnightblue" stroke="midnightblue" points="48.8722,-29.7902 51.8368,-19.6186 43.1761,-25.7214 48.8722,-29.7902"/>
</g>
<!-- Node13 -->
<g id="node13" class="node"><title>Node13</title>
<polygon fill="white" stroke="#bfbfbf" points="372.947,-168.5 372.947,-187.5 423.947,-187.5 423.947,-168.5 372.947,-168.5"/>
<text text-anchor="middle" x="398.447" y="-175.5" font-family="Helvetica,sans-Serif" font-size="10.00">unistd.h</text>
</g>
<!-- Node12&#45;&gt;Node13 -->
<g id="edge13" class="edge"><title>Node12&#45;&gt;Node13</title>
<path fill="none" stroke="midnightblue" d="M355.869,-224.083C363.295,-216.22 374.299,-204.569 383.259,-195.081"/>
<polygon fill="midnightblue" stroke="midnightblue" points="385.86,-197.424 390.182,-187.751 380.771,-192.618 385.86,-197.424"/>
</g>
<!-- Node14 -->
<g id="node14" class="node"><title>Node14</title>
<polygon fill="white" stroke="#bfbfbf" points="25.9471,-168.5 25.9471,-187.5 78.9471,-187.5 78.9471,-168.5 25.9471,-168.5"/>
<text text-anchor="middle" x="52.4471" y="-175.5" font-family="Helvetica,sans-Serif" font-size="10.00">al4san.h</text>
</g>
<!-- Node12&#45;&gt;Node14 -->
<g id="edge15" class="edge"><title>Node12&#45;&gt;Node14</title>
<path fill="none" stroke="midnightblue" d="M290.388,-224.475C239.811,-216.613 163.751,-204.046 89.1805,-188.249"/>
<polygon fill="midnightblue" stroke="midnightblue" points="89.6588,-184.772 79.1477,-186.101 88.1938,-191.617 89.6588,-184.772"/>
</g>
<!-- Node15 -->
<g id="node15" class="node"><title>Node15</title>
<g id="a_node15"><a xlink:href="al4san__context_8h.html" target="_top" xlink:title="control/al4san_context.h">
<polygon fill="white" stroke="black" points="96.9471,-168.5 96.9471,-187.5 219.947,-187.5 219.947,-168.5 96.9471,-168.5"/>
<text text-anchor="middle" x="158.447" y="-175.5" font-family="Helvetica,sans-Serif" font-size="10.00">control/al4san_context.h</text>
</a>
</g>
</g>
<!-- Node12&#45;&gt;Node15 -->
<g id="edge17" class="edge"><title>Node12&#45;&gt;Node15</title>
<path fill="none" stroke="midnightblue" d="M317.499,-224.444C285.289,-215.241 233.913,-200.562 198.305,-190.388"/>
<polygon fill="midnightblue" stroke="midnightblue" points="198.831,-186.898 188.255,-187.516 196.908,-193.629 198.831,-186.898"/>
</g>
<!-- Node16 -->
<g id="node16" class="node"><title>Node16</title>
<g id="a_node16"><a xlink:href="al4san__async_8h.html" target="_top" xlink:title="control/al4san_async.h">
<polygon fill="white" stroke="black" points="237.947,-168.5 237.947,-187.5 354.947,-187.5 354.947,-168.5 237.947,-168.5"/>
<text text-anchor="middle" x="296.447" y="-175.5" font-family="Helvetica,sans-Serif" font-size="10.00">control/al4san_async.h</text>
</a>
</g>
</g>
<!-- Node12&#45;&gt;Node16 -->
<g id="edge19" class="edge"><title>Node12&#45;&gt;Node16</title>
<path fill="none" stroke="midnightblue" d="M339.025,-224.083C331.599,-216.22 320.595,-204.569 311.635,-195.081"/>
<polygon fill="midnightblue" stroke="midnightblue" points="314.123,-192.618 304.712,-187.751 309.034,-197.424 314.123,-192.618"/>
</g>
<!-- Node15&#45;&gt;Node5 -->
<g id="edge18" class="edge"><title>Node15&#45;&gt;Node5</title>
<path fill="none" stroke="midnightblue" d="M181.423,-168.444C205.604,-159.438 243.865,-145.189 271.093,-135.049"/>
<polygon fill="midnightblue" stroke="midnightblue" points="272.429,-138.286 280.579,-131.516 269.986,-131.727 272.429,-138.286"/>
</g>
<!-- Node16&#45;&gt;Node5 -->
<g id="edge20" class="edge"><title>Node16&#45;&gt;Node5</title>
<path fill="none" stroke="midnightblue" d="M297.603,-168.083C298.531,-160.927 299.865,-150.635 301.024,-141.691"/>
<polygon fill="midnightblue" stroke="midnightblue" points="304.498,-142.118 302.313,-131.751 297.556,-141.218 304.498,-142.118"/>
</g>
<!-- Node17&#45;&gt;Node5 -->
<g id="edge23" class="edge"><title>Node17&#45;&gt;Node5</title>
<path fill="none" stroke="midnightblue" d="M586.917,-169.418C584.051,-168.937 581.209,-168.46 578.447,-168 500.056,-154.93 409.033,-140.104 353.869,-131.158"/>
<polygon fill="midnightblue" stroke="midnightblue" points="354.429,-127.703 343.997,-129.557 353.308,-134.613 354.429,-127.703"/>
</g>
<!-- Node17&#45;&gt;Node6 -->
<g id="edge22" class="edge"><title>Node17&#45;&gt;Node6</title>
<path fill="none" stroke="midnightblue" d="M619.51,-168.309C582.573,-141.416 469.858,-59.3518 423.591,-25.6665"/>
<polygon fill="midnightblue" stroke="midnightblue" points="425.411,-22.6616 415.266,-19.6051 421.29,-28.3206 425.411,-22.6616"/>
</g>
</g>
</svg>
        <g id="navigator" transform="translate(0 0)" fill="#404254">
                <rect fill="#f2f5e9" fill-opacity="0.5" stroke="#606060" stroke-width=".5" x="0" y="0" width="60" height="60"/>
                <use id="zoomplus" xlink:href="#zoomPlus" x="17" y="9" onmousedown="handleZoom(evt,'in')"/>
                <use id="zoomminus" xlink:href="#zoomMin" x="42" y="9" onmousedown="handleZoom(evt,'out')"/>
                <use id="reset" xlink:href="#resetDef" x="30" y="36" onmousedown="handleReset()"/>
                <g id="arrowUp" xlink:href="#dirArrow" transform="translate(30 24)" onmousedown="handlePan(0,-1)">
                  <use xlink:href="#rim" fill="#404040">
                        <set attributeName="fill" to="#808080" begin="arrowUp.mouseover" end="arrowUp.mouseout"/>
                  </use>
                  <path fill="none" stroke="white" stroke-width="1.5" d="M0,-3.0v7 M-2.5,-0.5L0,-3.0L2.5,-0.5"/>
                </g>
                <g id="arrowRight" xlink:href="#dirArrow" transform="rotate(90) translate(36 -43)" onmousedown="handlePan(1,0)">
                  <use xlink:href="#rim" fill="#404040">
                        <set attributeName="fill" to="#808080" begin="arrowRight.mouseover" end="arrowRight.mouseout"/>
                  </use>
                  <path fill="none" stroke="white" stroke-width="1.5" d="M0,-3.0v7 M-2.5,-0.5L0,-3.0L2.5,-0.5"/>
                </g>
                <g id="arrowDown" xlink:href="#dirArrow" transform="rotate(180) translate(-30 -48)" onmousedown="handlePan(0,1)">
                  <use xlink:href="#rim" fill="#404040">
                        <set attributeName="fill" to="#808080" begin="arrowDown.mouseover" end="arrowDown.mouseout"/>
                  </use>
                  <path fill="none" stroke="white" stroke-width="1.5" d="M0,-3.0v7 M-2.5,-0.5L0,-3.0L2.5,-0.5"/>
                </g>
                <g id="arrowLeft" xlink:href="#dirArrow" transform="rotate(270) translate(-36 17)" onmousedown="handlePan(-1,0)">
                  <use xlink:href="#rim" fill="#404040">
                        <set attributeName="fill" to="#808080" begin="arrowLeft.mouseover" end="arrowLeft.mouseout"/>
                  </use>
                  <path fill="none" stroke="white" stroke-width="1.5" d="M0,-3.0v7 M-2.5,-0.5L0,-3.0L2.5,-0.5"/>
                </g>
        </g>
        <svg viewBox="0 0 15 15" width="100%" height="30px" preserveAspectRatio="xMaxYMin meet">
         <g id="arrow_out" transform="scale(0.3 0.3)">
          <a xlink:href="control_8c__incl_org.svg" target="_base">
           <rect id="button" ry="5" rx="5" y="6" x="6" height="38" width="38"
                fill="#f2f5e9" fill-opacity="0.5" stroke="#606060" stroke-width="1.0"/>
           <path id="arrow"
             d="M 11.500037,31.436501 C 11.940474,20.09759 22.043105,11.32322 32.158766,21.979434 L 37.068811,17.246167 C 37.068811,17.246167 37.088388,32 37.088388,32 L 22.160133,31.978069 C 22.160133,31.978069 26.997745,27.140456 26.997745,27.140456 C 18.528582,18.264221 13.291696,25.230495 11.500037,31.436501 z"
             style="fill:#404040;"/>
          </a>
         </g>
        </svg>
</svg>
