<?xml version="1.0" encoding="UTF-8" standalone="no"?>
<!DOCTYPE svg PUBLIC "-//W3C//DTD SVG 1.1//EN"
 "http://www.w3.org/Graphics/SVG/1.1/DTD/svg11.dtd">
<!-- Generated by graphviz version 2.38.0 (20140413.2041)
 -->
<!-- Title: runtime/starpu Pages: 1 -->
<svg width="254pt" height="159pt"
 viewBox="0.00 0.00 254.00 159.00" xmlns="http://www.w3.org/2000/svg" xmlns:xlink="http://www.w3.org/1999/xlink">
<g id="graph0" class="graph" transform="scale(1 1) rotate(0) translate(4 155)">
<title>runtime/starpu</title>
<polygon fill="white" stroke="none" points="-4,4 -4,-155 250,-155 250,4 -4,4"/>
<g id="clust1" class="cluster"><title>clusterdir_cb031e414f281a658b23dddb30bb9d2c</title>
<g id="a_clust1"><a xlink:href="dir_cb031e414f281a658b23dddb30bb9d2c.html" target="_top" xlink:title="runtime">
<polygon fill="#ddddee" stroke="black" points="8,-56 8,-143 238,-143 238,-56 8,-56"/>
<text text-anchor="middle" x="123" y="-131" font-family="Helvetica,sans-Serif" font-size="10.00">runtime</text>
</a>
</g>
</g>
<g id="clust2" class="cluster"><title>clusterdir_0ac3cb231e6a6d6bfe151e4b6b9b63ac</title>
<g id="a_clust2"><a xlink:href="dir_0ac3cb231e6a6d6bfe151e4b6b9b63ac.html" target="_top">
<polygon fill="#eeeeff" stroke="black" points="16,-64 16,-116 230,-116 230,-64 16,-64"/>
</a>
</g>
</g>
<!-- dir_0ac3cb231e6a6d6bfe151e4b6b9b63ac -->
<g id="node1" class="node"><title>dir_0ac3cb231e6a6d6bfe151e4b6b9b63ac</title>
<text text-anchor="middle" x="195" y="-87.5" font-family="Helvetica,sans-Serif" font-size="10.00">starpu</text>
</g>
<!-- dir_b60a5aaffef755185841967678f6e0dc -->
<g id="node2" class="node"><title>dir_b60a5aaffef755185841967678f6e0dc</title>
<g id="a_node2"><a xlink:href="dir_b60a5aaffef755185841967678f6e0dc.html" target="_top" xlink:title="control">
<polygon fill="white" stroke="black" points="150,-108 96,-108 96,-72 150,-72 150,-108"/>
<text text-anchor="middle" x="123" y="-87.5" font-family="Helvetica,sans-Serif" font-size="10.00">control</text>
</a>
</g>
</g>
<!-- dir_4fef79e7177ba769987a8da36c892c5f -->
<g id="node4" class="node"><title>dir_4fef79e7177ba769987a8da36c892c5f</title>
<g id="a_node4"><a xlink:href="dir_4fef79e7177ba769987a8da36c892c5f.html" target="_top" xlink:title="build">
<polygon fill="white" stroke="red" points="114,-36 60,-36 60,-0 114,-0 114,-36"/>
<text text-anchor="middle" x="87" y="-15.5" font-family="Helvetica,sans-Serif" font-size="10.00">build</text>
</a>
</g>
</g>
<!-- dir_b60a5aaffef755185841967678f6e0dc&#45;&gt;dir_4fef79e7177ba769987a8da36c892c5f -->
<g id="edge2" class="edge"><title>dir_b60a5aaffef755185841967678f6e0dc&#45;&gt;dir_4fef79e7177ba769987a8da36c892c5f</title>
<path fill="none" stroke="black" d="M114.101,-71.6966C110.003,-63.7284 105.051,-54.0995 100.507,-45.2641"/>
<polygon fill="black" stroke="black" points="103.483,-43.3965 95.7965,-36.1043 97.2575,-46.598 103.483,-43.3965"/>
<g id="a_edge2&#45;headlabel"><a xlink:href="dir_000011_000000.html" target="_top" xlink:title="6">
<text text-anchor="middle" x="107.651" y="-42.7946" font-family="Helvetica,sans-Serif" font-size="10.00">6</text>
</a>
</g>
</g>
<!-- dir_16fbd8aa95d2dc6edbe445d620361a50 -->
<g id="node3" class="node"><title>dir_16fbd8aa95d2dc6edbe445d620361a50</title>
<g id="a_node3"><a xlink:href="dir_16fbd8aa95d2dc6edbe445d620361a50.html" target="_top" xlink:title="include">
<polygon fill="white" stroke="black" points="78,-108 24,-108 24,-72 78,-72 78,-108"/>
<text text-anchor="middle" x="51" y="-87.5" font-family="Helvetica,sans-Serif" font-size="10.00">include</text>
</a>
</g>
</g>
<!-- dir_16fbd8aa95d2dc6edbe445d620361a50&#45;&gt;dir_4fef79e7177ba769987a8da36c892c5f -->
<g id="edge3" class="edge"><title>dir_16fbd8aa95d2dc6edbe445d620361a50&#45;&gt;dir_4fef79e7177ba769987a8da36c892c5f</title>
<path fill="none" stroke="black" d="M53.9832,-71.6966C57.294,-63.6436 62.0975,-53.8945 67.0908,-44.9824"/>
<polygon fill="black" stroke="black" points="70.2591,-46.4991 72.3085,-36.1043 64.2242,-42.9523 70.2591,-46.4991"/>
<g id="a_edge3&#45;headlabel"><a xlink:href="dir_000012_000000.html" target="_top" xlink:title="1">
<text text-anchor="middle" x="70.8857" y="-48.5367" font-family="Helvetica,sans-Serif" font-size="10.00">1</text>
</a>
</g>
</g>
<!-- dir_4fef79e7177ba769987a8da36c892c5f&#45;&gt;dir_16fbd8aa95d2dc6edbe445d620361a50 -->
<g id="edge1" class="edge"><title>dir_4fef79e7177ba769987a8da36c892c5f&#45;&gt;dir_16fbd8aa95d2dc6edbe445d620361a50</title>
<path fill="none" stroke="black" d="M84.0985,-36.1043C80.8124,-44.1291 76.0229,-53.871 71.0328,-62.7967"/>
<polygon fill="black" stroke="black" points="67.8533,-61.2998 65.8146,-71.6966 73.8919,-64.8403 67.8533,-61.2998"/>
<g id="a_edge1&#45;headlabel"><a xlink:href="dir_000000_000012.html" target="_top" xlink:title="2">
<text text-anchor="middle" x="67.222" y="-54.2628" font-family="Helvetica,sans-Serif" font-size="10.00">2</text>
</a>
</g>
</g>
</g>
</svg>
