<?xml version="1.0" encoding="UTF-8" standalone="no"?>
<!DOCTYPE svg PUBLIC "-//W3C//DTD SVG 1.1//EN"
 "http://www.w3.org/Graphics/SVG/1.1/DTD/svg11.dtd">
<!-- Generated by graphviz version 2.38.0 (20140413.2041)
 -->
<!-- Title: build/runtime/starpu/include Pages: 1 -->
<svg width="161pt" height="223pt"
 viewBox="0.00 0.00 161.00 223.00" xmlns="http://www.w3.org/2000/svg" xmlns:xlink="http://www.w3.org/1999/xlink">
<g id="graph0" class="graph" transform="scale(1 1) rotate(0) translate(4 219)">
<title>build/runtime/starpu/include</title>
<polygon fill="white" stroke="none" points="-4,4 -4,-219 157,-219 157,4 -4,4"/>
<g id="clust1" class="cluster"><title>clusterdir_632aad49a12d08cd3dd78cd3444999ef</title>
<g id="a_clust1"><a xlink:href="dir_632aad49a12d08cd3dd78cd3444999ef.html" target="_top" xlink:title="starpu">
<polygon fill="#ddddee" stroke="black" points="64,-136 64,-207 134,-207 134,-136 64,-136"/>
<text text-anchor="middle" x="99" y="-195" font-family="Helvetica,sans-Serif" font-size="10.00">starpu</text>
</a>
</g>
</g>
<!-- dir_cb757dba2e5c333ae9d164cc401c0424 -->
<g id="node1" class="node"><title>dir_cb757dba2e5c333ae9d164cc401c0424</title>
<g id="a_node1"><a xlink:href="dir_cb757dba2e5c333ae9d164cc401c0424.html" target="_top" xlink:title="include">
<polygon fill="#eeeeff" stroke="black" points="126,-180 72,-180 72,-144 126,-144 126,-180"/>
<text text-anchor="middle" x="99" y="-159.5" font-family="Helvetica,sans-Serif" font-size="10.00">include</text>
</a>
</g>
</g>
<!-- dir_56ea320f36428fc096e6ea8f45d8dae0 -->
<g id="node2" class="node"><title>dir_56ea320f36428fc096e6ea8f45d8dae0</title>
<g id="a_node2"><a xlink:href="dir_56ea320f36428fc096e6ea8f45d8dae0.html" target="_top" xlink:title="control">
<polygon fill="none" stroke="black" points="54,-108 0,-108 0,-72 54,-72 54,-108"/>
<text text-anchor="middle" x="27" y="-87.5" font-family="Helvetica,sans-Serif" font-size="10.00">control</text>
</a>
</g>
</g>
<!-- dir_cb757dba2e5c333ae9d164cc401c0424&#45;&gt;dir_56ea320f36428fc096e6ea8f45d8dae0 -->
<g id="edge1" class="edge"><title>dir_cb757dba2e5c333ae9d164cc401c0424&#45;&gt;dir_56ea320f36428fc096e6ea8f45d8dae0</title>
<path fill="none" stroke="black" d="M81.2022,-143.697C72.396,-135.135 61.6179,-124.656 51.9989,-115.304"/>
<polygon fill="black" stroke="black" points="54.2028,-112.566 44.593,-108.104 49.3232,-117.585 54.2028,-112.566"/>
<g id="a_edge1&#45;headlabel"><a xlink:href="dir_000005_000006.html" target="_top" xlink:title="1">
<text text-anchor="middle" x="58.7593" y="-110.536" font-family="Helvetica,sans-Serif" font-size="10.00">1</text>
</a>
</g>
</g>
<!-- dir_cb031e414f281a658b23dddb30bb9d2c -->
<g id="node3" class="node"><title>dir_cb031e414f281a658b23dddb30bb9d2c</title>
<g id="a_node3"><a xlink:href="dir_cb031e414f281a658b23dddb30bb9d2c.html" target="_top" xlink:title="runtime">
<polygon fill="white" stroke="red" points="126,-108 72,-108 72,-72 126,-72 126,-108"/>
<text text-anchor="middle" x="99" y="-87.5" font-family="Helvetica,sans-Serif" font-size="10.00">runtime</text>
</a>
</g>
</g>
<!-- dir_cb757dba2e5c333ae9d164cc401c0424&#45;&gt;dir_cb031e414f281a658b23dddb30bb9d2c -->
<g id="edge2" class="edge"><title>dir_cb757dba2e5c333ae9d164cc401c0424&#45;&gt;dir_cb031e414f281a658b23dddb30bb9d2c</title>
<path fill="none" stroke="black" d="M99,-143.697C99,-135.983 99,-126.712 99,-118.112"/>
<polygon fill="black" stroke="black" points="102.5,-118.104 99,-108.104 95.5001,-118.104 102.5,-118.104"/>
<g id="a_edge2&#45;headlabel"><a xlink:href="dir_000005_000009.html" target="_top" xlink:title="2">
<text text-anchor="middle" x="105.339" y="-119.199" font-family="Helvetica,sans-Serif" font-size="10.00">2</text>
</a>
</g>
</g>
<!-- dir_8f2980731aba7ec7b9fcae5764f196e3 -->
<g id="node4" class="node"><title>dir_8f2980731aba7ec7b9fcae5764f196e3</title>
<g id="a_node4"><a xlink:href="dir_8f2980731aba7ec7b9fcae5764f196e3.html" target="_top" xlink:title="include">
<polygon fill="white" stroke="red" points="153,-36 99,-36 99,-0 153,-0 153,-36"/>
<text text-anchor="middle" x="126" y="-15.5" font-family="Helvetica,sans-Serif" font-size="10.00">include</text>
</a>
</g>
</g>
<!-- dir_cb757dba2e5c333ae9d164cc401c0424&#45;&gt;dir_8f2980731aba7ec7b9fcae5764f196e3 -->
<g id="edge3" class="edge"><title>dir_cb757dba2e5c333ae9d164cc401c0424&#45;&gt;dir_8f2980731aba7ec7b9fcae5764f196e3</title>
<path fill="none" stroke="black" d="M114.61,-143.774C122.373,-134.03 130.946,-121.184 135,-108 141.22,-87.7736 138.269,-63.865 134.147,-45.9241"/>
<polygon fill="black" stroke="black" points="137.51,-44.9471 131.646,-36.1232 130.728,-46.6782 137.51,-44.9471"/>
<g id="a_edge3&#45;headlabel"><a xlink:href="dir_000005_000001.html" target="_top" xlink:title="1">
<text text-anchor="middle" x="141.15" y="-45.228" font-family="Helvetica,sans-Serif" font-size="10.00">1</text>
</a>
</g>
</g>
<!-- dir_cb031e414f281a658b23dddb30bb9d2c&#45;&gt;dir_8f2980731aba7ec7b9fcae5764f196e3 -->
<g id="edge4" class="edge"><title>dir_cb031e414f281a658b23dddb30bb9d2c&#45;&gt;dir_8f2980731aba7ec7b9fcae5764f196e3</title>
<path fill="none" stroke="black" d="M105.674,-71.6966C108.715,-63.8132 112.383,-54.3042 115.761,-45.5464"/>
<polygon fill="black" stroke="black" points="119.069,-46.6939 119.403,-36.1043 112.538,-44.1748 119.069,-46.6939"/>
<g id="a_edge4&#45;headlabel"><a xlink:href="dir_000009_000001.html" target="_top" xlink:title="1">
<text text-anchor="middle" x="120.425" y="-48.5695" font-family="Helvetica,sans-Serif" font-size="10.00">1</text>
</a>
</g>
</g>
</g>
</svg>
