<?xml version="1.0" encoding="UTF-8" standalone="no"?>
<!DOCTYPE svg PUBLIC "-//W3C//DTD SVG 1.1//EN"
 "http://www.w3.org/Graphics/SVG/1.1/DTD/svg11.dtd">
<!-- Generated by graphviz version 2.38.0 (20140413.2041)
 -->
<!-- Title: build/runtime/starpu Pages: 1 -->
<svg width="236pt" height="178pt"
 viewBox="0.00 0.00 236.00 178.06" xmlns="http://www.w3.org/2000/svg" xmlns:xlink="http://www.w3.org/1999/xlink">
<g id="graph0" class="graph" transform="scale(1 1) rotate(0) translate(4 174.055)">
<title>build/runtime/starpu</title>
<polygon fill="white" stroke="none" points="-4,4 -4,-174.055 232,-174.055 232,4 -4,4"/>
<g id="clust1" class="cluster"><title>clusterdir_aa68fee61e426fc1ccba1fb50d587257</title>
<g id="a_clust1"><a xlink:href="dir_aa68fee61e426fc1ccba1fb50d587257.html" target="_top" xlink:title="runtime">
<polygon fill="#ddddee" stroke="black" points="8,-56 8,-143 166,-143 166,-56 8,-56"/>
<text text-anchor="middle" x="87" y="-131" font-family="Helvetica,sans-Serif" font-size="10.00">runtime</text>
</a>
</g>
</g>
<g id="clust2" class="cluster"><title>clusterdir_632aad49a12d08cd3dd78cd3444999ef</title>
<g id="a_clust2"><a xlink:href="dir_632aad49a12d08cd3dd78cd3444999ef.html" target="_top">
<polygon fill="#eeeeff" stroke="black" points="16,-64 16,-116 158,-116 158,-64 16,-64"/>
</a>
</g>
</g>
<!-- dir_632aad49a12d08cd3dd78cd3444999ef -->
<g id="node1" class="node"><title>dir_632aad49a12d08cd3dd78cd3444999ef</title>
<text text-anchor="middle" x="123" y="-87.5" font-family="Helvetica,sans-Serif" font-size="10.00">starpu</text>
</g>
<!-- dir_cb757dba2e5c333ae9d164cc401c0424 -->
<g id="node2" class="node"><title>dir_cb757dba2e5c333ae9d164cc401c0424</title>
<g id="a_node2"><a xlink:href="dir_cb757dba2e5c333ae9d164cc401c0424.html" target="_top" xlink:title="include">
<polygon fill="white" stroke="black" points="78,-108 24,-108 24,-72 78,-72 78,-108"/>
<text text-anchor="middle" x="51" y="-87.5" font-family="Helvetica,sans-Serif" font-size="10.00">include</text>
</a>
</g>
</g>
<!-- dir_56ea320f36428fc096e6ea8f45d8dae0 -->
<g id="node3" class="node"><title>dir_56ea320f36428fc096e6ea8f45d8dae0</title>
<g id="a_node3"><a xlink:href="dir_56ea320f36428fc096e6ea8f45d8dae0.html" target="_top" xlink:title="control">
<polygon fill="none" stroke="black" points="78,-36 24,-36 24,-0 78,-0 78,-36"/>
<text text-anchor="middle" x="51" y="-15.5" font-family="Helvetica,sans-Serif" font-size="10.00">control</text>
</a>
</g>
</g>
<!-- dir_cb757dba2e5c333ae9d164cc401c0424&#45;&gt;dir_56ea320f36428fc096e6ea8f45d8dae0 -->
<g id="edge1" class="edge"><title>dir_cb757dba2e5c333ae9d164cc401c0424&#45;&gt;dir_56ea320f36428fc096e6ea8f45d8dae0</title>
<path fill="none" stroke="black" d="M51,-71.6966C51,-63.9827 51,-54.7125 51,-46.1124"/>
<polygon fill="black" stroke="black" points="54.5001,-46.1043 51,-36.1043 47.5001,-46.1044 54.5001,-46.1043"/>
<g id="a_edge1&#45;headlabel"><a xlink:href="dir_000005_000006.html" target="_top" xlink:title="1">
<text text-anchor="middle" x="57.3393" y="-47.199" font-family="Helvetica,sans-Serif" font-size="10.00">1</text>
</a>
</g>
</g>
<!-- dir_cb031e414f281a658b23dddb30bb9d2c -->
<g id="node4" class="node"><title>dir_cb031e414f281a658b23dddb30bb9d2c</title>
<g id="a_node4"><a xlink:href="dir_cb031e414f281a658b23dddb30bb9d2c.html" target="_top" xlink:title="runtime">
<polygon fill="white" stroke="red" points="228,-108 174,-108 174,-72 228,-72 228,-108"/>
<text text-anchor="middle" x="201" y="-87.5" font-family="Helvetica,sans-Serif" font-size="10.00">runtime</text>
</a>
</g>
</g>
<!-- dir_cb757dba2e5c333ae9d164cc401c0424&#45;&gt;dir_cb031e414f281a658b23dddb30bb9d2c -->
<g id="edge2" class="edge"><title>dir_cb757dba2e5c333ae9d164cc401c0424&#45;&gt;dir_cb031e414f281a658b23dddb30bb9d2c</title>
<path fill="none" stroke="black" d="M56.7294,-108.038C63.2342,-125.135 75.6695,-149.816 96,-161 118.196,-173.211 130.626,-172.881 153,-161 170.303,-151.812 182.505,-133.292 190.276,-117.471"/>
<polygon fill="black" stroke="black" points="193.594,-118.629 194.548,-108.077 187.222,-115.731 193.594,-118.629"/>
<g id="a_edge2&#45;headlabel"><a xlink:href="dir_000005_000009.html" target="_top" xlink:title="2">
<text text-anchor="middle" x="194.691" y="-120.576" font-family="Helvetica,sans-Serif" font-size="10.00">2</text>
</a>
</g>
</g>
<!-- dir_8f2980731aba7ec7b9fcae5764f196e3 -->
<g id="node5" class="node"><title>dir_8f2980731aba7ec7b9fcae5764f196e3</title>
<g id="a_node5"><a xlink:href="dir_8f2980731aba7ec7b9fcae5764f196e3.html" target="_top" xlink:title="include">
<polygon fill="white" stroke="red" points="189,-36 135,-36 135,-0 189,-0 189,-36"/>
<text text-anchor="middle" x="162" y="-15.5" font-family="Helvetica,sans-Serif" font-size="10.00">include</text>
</a>
</g>
</g>
<!-- dir_cb757dba2e5c333ae9d164cc401c0424&#45;&gt;dir_8f2980731aba7ec7b9fcae5764f196e3 -->
<g id="edge3" class="edge"><title>dir_cb757dba2e5c333ae9d164cc401c0424&#45;&gt;dir_8f2980731aba7ec7b9fcae5764f196e3</title>
<path fill="none" stroke="black" d="M67.7377,-71.8281C73.541,-66.3865 80.2828,-60.5967 87,-56 98.9353,-47.8324 112.937,-40.4191 125.591,-34.4097"/>
<polygon fill="black" stroke="black" points="127.33,-37.4621 134.948,-30.0986 124.401,-31.1044 127.33,-37.4621"/>
<g id="a_edge3&#45;headlabel"><a xlink:href="dir_000005_000001.html" target="_top" xlink:title="1">
<text text-anchor="middle" x="125.253" y="-39.045" font-family="Helvetica,sans-Serif" font-size="10.00">1</text>
</a>
</g>
</g>
<!-- dir_cb031e414f281a658b23dddb30bb9d2c&#45;&gt;dir_cb757dba2e5c333ae9d164cc401c0424 -->
<g id="edge4" class="edge"><title>dir_cb031e414f281a658b23dddb30bb9d2c&#45;&gt;dir_cb757dba2e5c333ae9d164cc401c0424</title>
<path fill="none" stroke="black" d="M194.548,-108.077C187.35,-125.203 173.894,-149.905 153,-161 130.626,-172.881 118.196,-173.211 96,-161 79.1638,-151.738 67.7421,-133.221 60.619,-117.419"/>
<polygon fill="black" stroke="black" points="63.7928,-115.935 56.7294,-108.038 57.3266,-118.616 63.7928,-115.935"/>
<g id="a_edge4&#45;headlabel"><a xlink:href="dir_000009_000005.html" target="_top" xlink:title="6">
<text text-anchor="middle" x="67.7923" y="-115.668" font-family="Helvetica,sans-Serif" font-size="10.00">6</text>
</a>
</g>
</g>
<!-- dir_cb031e414f281a658b23dddb30bb9d2c&#45;&gt;dir_8f2980731aba7ec7b9fcae5764f196e3 -->
<g id="edge5" class="edge"><title>dir_cb031e414f281a658b23dddb30bb9d2c&#45;&gt;dir_8f2980731aba7ec7b9fcae5764f196e3</title>
<path fill="none" stroke="black" d="M191.36,-71.6966C186.873,-63.6436 181.441,-53.8945 176.476,-44.9824"/>
<polygon fill="black" stroke="black" points="179.454,-43.1366 171.53,-36.1043 173.339,-46.5435 179.454,-43.1366"/>
<g id="a_edge5&#45;headlabel"><a xlink:href="dir_000009_000001.html" target="_top" xlink:title="1">
<text text-anchor="middle" x="183.684" y="-42.3948" font-family="Helvetica,sans-Serif" font-size="10.00">1</text>
</a>
</g>
</g>
</g>
</svg>
