<?xml version="1.0" encoding="UTF-8" standalone="no"?>
<!DOCTYPE svg PUBLIC "-//W3C//DTD SVG 1.1//EN"
 "http://www.w3.org/Graphics/SVG/1.1/DTD/svg11.dtd">
<!-- Generated by graphviz version 2.38.0 (20140413.2041)
 -->
<!-- Title: build Pages: 1 -->
<svg width="276pt" height="148pt"
 viewBox="0.00 0.00 276.00 148.00" xmlns="http://www.w3.org/2000/svg" xmlns:xlink="http://www.w3.org/1999/xlink">
<g id="graph0" class="graph" transform="scale(1 1) rotate(0) translate(4 144)">
<title>build</title>
<polygon fill="white" stroke="none" points="-4,4 -4,-144 272,-144 272,4 -4,4"/>
<g id="clust1" class="cluster"><title>clusterdir_4fef79e7177ba769987a8da36c892c5f</title>
<g id="a_clust1"><a xlink:href="dir_4fef79e7177ba769987a8da36c892c5f.html" target="_top">
<polygon fill="#eeeeff" stroke="black" points="64,-8 64,-132 206,-132 206,-8 64,-8"/>
</a>
</g>
</g>
<!-- dir_4fef79e7177ba769987a8da36c892c5f -->
<g id="node1" class="node"><title>dir_4fef79e7177ba769987a8da36c892c5f</title>
<text text-anchor="middle" x="171" y="-103.5" font-family="Helvetica,sans-Serif" font-size="10.00">build</text>
</g>
<!-- dir_8f2980731aba7ec7b9fcae5764f196e3 -->
<g id="node2" class="node"><title>dir_8f2980731aba7ec7b9fcae5764f196e3</title>
<g id="a_node2"><a xlink:href="dir_8f2980731aba7ec7b9fcae5764f196e3.html" target="_top" xlink:title="include">
<polygon fill="white" stroke="red" points="126,-52 72,-52 72,-16 126,-16 126,-52"/>
<text text-anchor="middle" x="99" y="-31.5" font-family="Helvetica,sans-Serif" font-size="10.00">include</text>
</a>
</g>
</g>
<!-- dir_aa68fee61e426fc1ccba1fb50d587257 -->
<g id="node3" class="node"><title>dir_aa68fee61e426fc1ccba1fb50d587257</title>
<g id="a_node3"><a xlink:href="dir_aa68fee61e426fc1ccba1fb50d587257.html" target="_top" xlink:title="runtime">
<polygon fill="white" stroke="red" points="126,-124 72,-124 72,-88 126,-88 126,-124"/>
<text text-anchor="middle" x="99" y="-103.5" font-family="Helvetica,sans-Serif" font-size="10.00">runtime</text>
</a>
</g>
</g>
<!-- dir_aa68fee61e426fc1ccba1fb50d587257&#45;&gt;dir_8f2980731aba7ec7b9fcae5764f196e3 -->
<g id="edge5" class="edge"><title>dir_aa68fee61e426fc1ccba1fb50d587257&#45;&gt;dir_8f2980731aba7ec7b9fcae5764f196e3</title>
<path fill="none" stroke="black" d="M99,-87.6966C99,-79.9827 99,-70.7125 99,-62.1124"/>
<polygon fill="black" stroke="black" points="102.5,-62.1043 99,-52.1043 95.5001,-62.1044 102.5,-62.1043"/>
<g id="a_edge5&#45;headlabel"><a xlink:href="dir_000003_000001.html" target="_top" xlink:title="1">
<text text-anchor="middle" x="105.339" y="-63.199" font-family="Helvetica,sans-Serif" font-size="10.00">1</text>
</a>
</g>
</g>
<!-- dir_56ea320f36428fc096e6ea8f45d8dae0 -->
<g id="node4" class="node"><title>dir_56ea320f36428fc096e6ea8f45d8dae0</title>
<g id="a_node4"><a xlink:href="dir_56ea320f36428fc096e6ea8f45d8dae0.html" target="_top" xlink:title="control">
<polygon fill="none" stroke="black" points="268,-52 214,-52 214,-16 268,-16 268,-52"/>
<text text-anchor="middle" x="241" y="-31.5" font-family="Helvetica,sans-Serif" font-size="10.00">control</text>
</a>
</g>
</g>
<!-- dir_aa68fee61e426fc1ccba1fb50d587257&#45;&gt;dir_56ea320f36428fc096e6ea8f45d8dae0 -->
<g id="edge3" class="edge"><title>dir_aa68fee61e426fc1ccba1fb50d587257&#45;&gt;dir_56ea320f36428fc096e6ea8f45d8dae0</title>
<path fill="none" stroke="black" d="M126.232,-92.0952C151.129,-80.2845 186.453,-63.4918 204.822,-54.4939"/>
<polygon fill="black" stroke="black" points="206.606,-57.5158 213.997,-49.9245 203.485,-51.25 206.606,-57.5158"/>
<g id="a_edge3&#45;headlabel"><a xlink:href="dir_000003_000006.html" target="_top" xlink:title="1">
<text text-anchor="middle" x="204.654" y="-59.1599" font-family="Helvetica,sans-Serif" font-size="10.00">1</text>
</a>
</g>
</g>
<!-- dir_cb031e414f281a658b23dddb30bb9d2c -->
<g id="node5" class="node"><title>dir_cb031e414f281a658b23dddb30bb9d2c</title>
<g id="a_node5"><a xlink:href="dir_cb031e414f281a658b23dddb30bb9d2c.html" target="_top" xlink:title="runtime">
<polygon fill="white" stroke="red" points="54,-124 0,-124 0,-88 54,-88 54,-124"/>
<text text-anchor="middle" x="27" y="-103.5" font-family="Helvetica,sans-Serif" font-size="10.00">runtime</text>
</a>
</g>
</g>
<!-- dir_aa68fee61e426fc1ccba1fb50d587257&#45;&gt;dir_cb031e414f281a658b23dddb30bb9d2c -->
<g id="edge4" class="edge"><title>dir_aa68fee61e426fc1ccba1fb50d587257&#45;&gt;dir_cb031e414f281a658b23dddb30bb9d2c</title>
<path fill="none" stroke="black" d="M71.7495,-106C69.293,-106 66.8366,-106 64.3801,-106"/>
<polygon fill="black" stroke="black" points="64.2813,-102.5 54.2812,-106 64.2812,-109.5 64.2813,-102.5"/>
<g id="a_edge4&#45;headlabel"><a xlink:href="dir_000003_000009.html" target="_top" xlink:title="2">
<text text-anchor="middle" x="67.8759" y="-97.1607" font-family="Helvetica,sans-Serif" font-size="10.00">2</text>
</a>
</g>
</g>
<!-- dir_cb031e414f281a658b23dddb30bb9d2c&#45;&gt;dir_8f2980731aba7ec7b9fcae5764f196e3 -->
<g id="edge1" class="edge"><title>dir_cb031e414f281a658b23dddb30bb9d2c&#45;&gt;dir_8f2980731aba7ec7b9fcae5764f196e3</title>
<path fill="none" stroke="black" d="M44.7978,-87.6966C53.604,-79.135 64.3821,-68.6562 74.0011,-59.3045"/>
<polygon fill="black" stroke="black" points="76.6768,-61.5846 81.407,-52.1043 71.7972,-56.5657 76.6768,-61.5846"/>
<g id="a_edge1&#45;headlabel"><a xlink:href="dir_000009_000001.html" target="_top" xlink:title="1">
<text text-anchor="middle" x="76.0787" y="-63.6261" font-family="Helvetica,sans-Serif" font-size="10.00">1</text>
</a>
</g>
</g>
<!-- dir_cb031e414f281a658b23dddb30bb9d2c&#45;&gt;dir_aa68fee61e426fc1ccba1fb50d587257 -->
<g id="edge2" class="edge"><title>dir_cb031e414f281a658b23dddb30bb9d2c&#45;&gt;dir_aa68fee61e426fc1ccba1fb50d587257</title>
<path fill="none" stroke="black" d="M54.2812,-106C56.7377,-106 59.1942,-106 61.6507,-106"/>
<polygon fill="black" stroke="black" points="61.7495,-109.5 71.7495,-106 61.7495,-102.5 61.7495,-109.5"/>
<g id="a_edge2&#45;headlabel"><a xlink:href="dir_000009_000003.html" target="_top" xlink:title="6">
<text text-anchor="middle" x="58.1549" y="-109.839" font-family="Helvetica,sans-Serif" font-size="10.00">6</text>
</a>
</g>
</g>
</g>
</svg>
