<?xml version="1.0" encoding="UTF-8" standalone="no"?>
<!DOCTYPE svg PUBLIC "-//W3C//DTD SVG 1.1//EN"
 "http://www.w3.org/Graphics/SVG/1.1/DTD/svg11.dtd">
<!-- Generated by graphviz version 2.38.0 (20140413.2041)
 -->
<!-- Title: include/al4san/runtime.h Pages: 1 -->
<svg width="390pt" height="196pt"
 viewBox="0.00 0.00 389.50 196.00" xmlns="http://www.w3.org/2000/svg" xmlns:xlink="http://www.w3.org/1999/xlink">
<g id="graph0" class="graph" transform="scale(1 1) rotate(0) translate(4 192)">
<title>include/al4san/runtime.h</title>
<polygon fill="white" stroke="none" points="-4,4 -4,-192 385.5,-192 385.5,4 -4,4"/>
<!-- Node1 -->
<g id="node1" class="node"><title>Node1</title>
<polygon fill="#bfbfbf" stroke="black" points="14.5,-168.5 14.5,-187.5 136.5,-187.5 136.5,-168.5 14.5,-168.5"/>
<text text-anchor="middle" x="75.5" y="-175.5" font-family="Helvetica,sans-Serif" font-size="10.00">include/al4san/runtime.h</text>
</g>
<!-- Node2 -->
<g id="node2" class="node"><title>Node2</title>
<g id="a_node2"><a xlink:href="config_8h.html" target="_top" xlink:title="al4san/config.h">
<polygon fill="white" stroke="black" points="0,-0.5 0,-19.5 83,-19.5 83,-0.5 0,-0.5"/>
<text text-anchor="middle" x="41.5" y="-7.5" font-family="Helvetica,sans-Serif" font-size="10.00">al4san/config.h</text>
</a>
</g>
</g>
<!-- Node1&#45;&gt;Node2 -->
<g id="edge1" class="edge"><title>Node1&#45;&gt;Node2</title>
<path fill="none" stroke="midnightblue" d="M72.1941,-168.497C68.8237,-159.54 63.655,-144.962 60.5,-132 51.8135,-96.3111 46.199,-53.6951 43.4657,-29.7485"/>
<polygon fill="midnightblue" stroke="midnightblue" points="46.9227,-29.1642 42.3545,-19.6048 39.9643,-29.9265 46.9227,-29.1642"/>
</g>
<!-- Node3 -->
<g id="node3" class="node"><title>Node3</title>
<g id="a_node3"><a xlink:href="struct_8h.html" target="_top" xlink:title="al4san/struct.h">
<polygon fill="white" stroke="black" points="70,-112.5 70,-131.5 151,-131.5 151,-112.5 70,-112.5"/>
<text text-anchor="middle" x="110.5" y="-119.5" font-family="Helvetica,sans-Serif" font-size="10.00">al4san/struct.h</text>
</a>
</g>
</g>
<!-- Node1&#45;&gt;Node3 -->
<g id="edge2" class="edge"><title>Node1&#45;&gt;Node3</title>
<path fill="none" stroke="midnightblue" d="M81.2795,-168.083C86.1724,-160.534 93.3274,-149.495 99.3326,-140.23"/>
<polygon fill="midnightblue" stroke="midnightblue" points="102.326,-142.046 104.828,-131.751 96.452,-138.239 102.326,-142.046"/>
</g>
<!-- Node3&#45;&gt;Node2 -->
<g id="edge3" class="edge"><title>Node3&#45;&gt;Node2</title>
<path fill="none" stroke="midnightblue" d="M105.086,-112.368C93.7491,-94.2957 67.3288,-52.1764 52.3564,-28.3074"/>
<polygon fill="midnightblue" stroke="midnightblue" points="55.168,-26.2029 46.8892,-19.5914 49.2381,-29.9226 55.168,-26.2029"/>
</g>
<!-- Node4 -->
<g id="node4" class="node"><title>Node4</title>
<g id="a_node4"><a xlink:href="types_8h.html" target="_top" xlink:title="al4san/types.h">
<polygon fill="white" stroke="black" points="147.5,-56.5 147.5,-75.5 227.5,-75.5 227.5,-56.5 147.5,-56.5"/>
<text text-anchor="middle" x="187.5" y="-63.5" font-family="Helvetica,sans-Serif" font-size="10.00">al4san/types.h</text>
</a>
</g>
</g>
<!-- Node3&#45;&gt;Node4 -->
<g id="edge4" class="edge"><title>Node3&#45;&gt;Node4</title>
<path fill="none" stroke="midnightblue" d="M122.871,-112.324C134.658,-104.058 152.632,-91.4527 166.636,-81.6322"/>
<polygon fill="midnightblue" stroke="midnightblue" points="168.982,-84.2619 175.159,-75.6545 164.962,-78.5307 168.982,-84.2619"/>
</g>
<!-- Node4&#45;&gt;Node2 -->
<g id="edge5" class="edge"><title>Node4&#45;&gt;Node2</title>
<path fill="none" stroke="midnightblue" d="M164.366,-56.4435C140.018,-47.4381 101.493,-33.1891 74.077,-23.049"/>
<polygon fill="midnightblue" stroke="midnightblue" points="75.1191,-19.7028 64.5259,-19.5164 72.6908,-26.2681 75.1191,-19.7028"/>
</g>
<!-- Node5 -->
<g id="node5" class="node"><title>Node5</title>
<polygon fill="white" stroke="#bfbfbf" points="101.5,-0.5 101.5,-19.5 153.5,-19.5 153.5,-0.5 101.5,-0.5"/>
<text text-anchor="middle" x="127.5" y="-7.5" font-family="Helvetica,sans-Serif" font-size="10.00">stddef.h</text>
</g>
<!-- Node4&#45;&gt;Node5 -->
<g id="edge6" class="edge"><title>Node4&#45;&gt;Node5</title>
<path fill="none" stroke="midnightblue" d="M177.86,-56.324C168.99,-48.3414 155.625,-36.3128 144.892,-26.6529"/>
<polygon fill="midnightblue" stroke="midnightblue" points="147.09,-23.922 137.315,-19.8339 142.407,-29.1251 147.09,-23.922"/>
</g>
<!-- Node6 -->
<g id="node6" class="node"><title>Node6</title>
<polygon fill="white" stroke="#bfbfbf" points="172,-0.5 172,-19.5 231,-19.5 231,-0.5 172,-0.5"/>
<text text-anchor="middle" x="201.5" y="-7.5" font-family="Helvetica,sans-Serif" font-size="10.00">inttypes.h</text>
</g>
<!-- Node4&#45;&gt;Node6 -->
<g id="edge7" class="edge"><title>Node4&#45;&gt;Node6</title>
<path fill="none" stroke="midnightblue" d="M189.812,-56.083C191.667,-48.9272 194.335,-38.6353 196.654,-29.6911"/>
<polygon fill="midnightblue" stroke="midnightblue" points="200.109,-30.3094 199.231,-19.7511 193.334,-28.5527 200.109,-30.3094"/>
</g>
<!-- Node7 -->
<g id="node7" class="node"><title>Node7</title>
<polygon fill="white" stroke="#bfbfbf" points="249.5,-0.5 249.5,-19.5 301.5,-19.5 301.5,-0.5 249.5,-0.5"/>
<text text-anchor="middle" x="275.5" y="-7.5" font-family="Helvetica,sans-Serif" font-size="10.00">stdarg.h</text>
</g>
<!-- Node4&#45;&gt;Node7 -->
<g id="edge8" class="edge"><title>Node4&#45;&gt;Node7</title>
<path fill="none" stroke="midnightblue" d="M201.639,-56.324C215.366,-47.9002 236.436,-34.9709 252.564,-25.0741"/>
<polygon fill="midnightblue" stroke="midnightblue" points="254.704,-27.8678 261.396,-19.6545 251.043,-21.9016 254.704,-27.8678"/>
</g>
<!-- Node8 -->
<g id="node8" class="node"><title>Node8</title>
<polygon fill="white" stroke="#bfbfbf" points="319.5,-0.5 319.5,-19.5 381.5,-19.5 381.5,-0.5 319.5,-0.5"/>
<text text-anchor="middle" x="350.5" y="-7.5" font-family="Helvetica,sans-Serif" font-size="10.00">complex.h</text>
</g>
<!-- Node4&#45;&gt;Node8 -->
<g id="edge9" class="edge"><title>Node4&#45;&gt;Node8</title>
<path fill="none" stroke="midnightblue" d="M213.328,-56.4435C240.749,-47.3591 284.277,-32.9388 314.932,-22.7831"/>
<polygon fill="midnightblue" stroke="midnightblue" points="316.401,-25.9837 324.793,-19.5164 314.2,-19.3389 316.401,-25.9837"/>
</g>
</g>
</svg>
