<?xml version="1.0" encoding="UTF-8" standalone="no"?>
<!DOCTYPE svg PUBLIC "-//W3C//DTD SVG 1.1//EN"
 "http://www.w3.org/Graphics/SVG/1.1/DTD/svg11.dtd">
<!-- Generated by graphviz version 2.38.0 (20140413.2041)
 -->
<!-- Title: include/al4san/runtime.h Pages: 1 -->
<svg width="397pt" height="84pt"
 viewBox="0.00 0.00 396.50 84.00" xmlns="http://www.w3.org/2000/svg" xmlns:xlink="http://www.w3.org/1999/xlink">
<g id="graph0" class="graph" transform="scale(1 1) rotate(0) translate(4 80)">
<title>include/al4san/runtime.h</title>
<polygon fill="white" stroke="none" points="-4,4 -4,-80 392.5,-80 392.5,4 -4,4"/>
<!-- Node1 -->
<g id="node1" class="node"><title>Node1</title>
<polygon fill="#bfbfbf" stroke="black" points="137.5,-56.5 137.5,-75.5 259.5,-75.5 259.5,-56.5 137.5,-56.5"/>
<text text-anchor="middle" x="198.5" y="-63.5" font-family="Helvetica,sans-Serif" font-size="10.00">include/al4san/runtime.h</text>
</g>
<!-- Node2 -->
<g id="node2" class="node"><title>Node2</title>
<g id="a_node2"><a xlink:href="async_8c.html" target="_top" xlink:title="control/async.c">
<polygon fill="white" stroke="black" points="0,-0.5 0,-19.5 83,-19.5 83,-0.5 0,-0.5"/>
<text text-anchor="middle" x="41.5" y="-7.5" font-family="Helvetica,sans-Serif" font-size="10.00">control/async.c</text>
</a>
</g>
</g>
<!-- Node1&#45;&gt;Node2 -->
<g id="edge1" class="edge"><title>Node1&#45;&gt;Node2</title>
<path fill="none" stroke="midnightblue" d="M164.111,-53.172C134.548,-43.0039 92.6272,-28.5852 66.2607,-19.5164"/>
<polygon fill="midnightblue" stroke="midnightblue" points="163.028,-56.5007 173.623,-56.4435 165.305,-49.8813 163.028,-56.5007"/>
</g>
<!-- Node3 -->
<g id="node3" class="node"><title>Node3</title>
<g id="a_node3"><a xlink:href="context_8c.html" target="_top" xlink:title="control/context.c">
<polygon fill="white" stroke="black" points="101,-0.5 101,-19.5 190,-19.5 190,-0.5 101,-0.5"/>
<text text-anchor="middle" x="145.5" y="-7.5" font-family="Helvetica,sans-Serif" font-size="10.00">control/context.c</text>
</a>
</g>
</g>
<!-- Node1&#45;&gt;Node3 -->
<g id="edge2" class="edge"><title>Node1&#45;&gt;Node3</title>
<path fill="none" stroke="midnightblue" d="M182.519,-48.7175C173.178,-39.1997 161.754,-27.5608 154.089,-19.7511"/>
<polygon fill="midnightblue" stroke="midnightblue" points="180.246,-51.3978 189.748,-56.083 185.241,-46.4945 180.246,-51.3978"/>
</g>
<!-- Node4 -->
<g id="node4" class="node"><title>Node4</title>
<g id="a_node4"><a xlink:href="control_8c.html" target="_top" xlink:title="control/control.c">
<polygon fill="white" stroke="black" points="208.5,-0.5 208.5,-19.5 294.5,-19.5 294.5,-0.5 208.5,-0.5"/>
<text text-anchor="middle" x="251.5" y="-7.5" font-family="Helvetica,sans-Serif" font-size="10.00">control/control.c</text>
</a>
</g>
</g>
<!-- Node1&#45;&gt;Node4 -->
<g id="edge3" class="edge"><title>Node1&#45;&gt;Node4</title>
<path fill="none" stroke="midnightblue" d="M214.481,-48.7175C223.822,-39.1997 235.246,-27.5608 242.911,-19.7511"/>
<polygon fill="midnightblue" stroke="midnightblue" points="211.759,-46.4945 207.252,-56.083 216.754,-51.3978 211.759,-46.4945"/>
</g>
<!-- Node5 -->
<g id="node5" class="node"><title>Node5</title>
<g id="a_node5"><a xlink:href="task_8c.html" target="_top" xlink:title="control/task.c">
<polygon fill="white" stroke="black" points="312.5,-0.5 312.5,-19.5 388.5,-19.5 388.5,-0.5 312.5,-0.5"/>
<text text-anchor="middle" x="350.5" y="-7.5" font-family="Helvetica,sans-Serif" font-size="10.00">control/task.c</text>
</a>
</g>
</g>
<!-- Node1&#45;&gt;Node5 -->
<g id="edge4" class="edge"><title>Node1&#45;&gt;Node5</title>
<path fill="none" stroke="midnightblue" d="M232.168,-53.0392C260.768,-42.8786 301.112,-28.5457 326.528,-19.5164"/>
<polygon fill="midnightblue" stroke="midnightblue" points="230.836,-49.7978 222.585,-56.4435 233.18,-56.3939 230.836,-49.7978"/>
</g>
</g>
</svg>
