<?xml version="1.0" encoding="UTF-8" standalone="no"?>
<!DOCTYPE svg PUBLIC "-//W3C//DTD SVG 1.1//EN"
 "http://www.w3.org/Graphics/SVG/1.1/DTD/svg11.dtd">
<!-- Generated by graphviz version 2.38.0 (20140413.2041)
 -->
<!-- Title: runtime/starpu/control/runtime_task.c Pages: 1 -->
<svg width="1042pt" height="375pt"
 viewBox="0.00 0.00 1041.50 375.00" xmlns="http://www.w3.org/2000/svg" xmlns:xlink="http://www.w3.org/1999/xlink">
<g id="graph0" class="graph" transform="scale(1 1) rotate(0) translate(4 371)">
<title>runtime/starpu/control/runtime_task.c</title>
<polygon fill="white" stroke="none" points="-4,4 -4,-371 1037.5,-371 1037.5,4 -4,4"/>
<!-- Node1 -->
<g id="node1" class="node"><title>Node1</title>
<polygon fill="#bfbfbf" stroke="black" points="132,-336.5 132,-366.5 243,-366.5 243,-336.5 132,-336.5"/>
<text text-anchor="start" x="140" y="-354.5" font-family="Helvetica,sans-Serif" font-size="10.00">runtime/starpu/control</text>
<text text-anchor="middle" x="187.5" y="-343.5" font-family="Helvetica,sans-Serif" font-size="10.00">/runtime_task.c</text>
</g>
<!-- Node2 -->
<g id="node2" class="node"><title>Node2</title>
<polygon fill="white" stroke="#bfbfbf" points="73.5,-280.5 73.5,-299.5 119.5,-299.5 119.5,-280.5 73.5,-280.5"/>
<text text-anchor="middle" x="96.5" y="-287.5" font-family="Helvetica,sans-Serif" font-size="10.00">stdio.h</text>
</g>
<!-- Node1&#45;&gt;Node2 -->
<g id="edge1" class="edge"><title>Node1&#45;&gt;Node2</title>
<path fill="none" stroke="midnightblue" d="M165.934,-336.399C151.62,-327.04 132.888,-314.792 118.489,-305.377"/>
<polygon fill="midnightblue" stroke="midnightblue" points="120.026,-302.201 109.741,-299.658 116.196,-308.06 120.026,-302.201"/>
</g>
<!-- Node3 -->
<g id="node3" class="node"><title>Node3</title>
<polygon fill="white" stroke="#bfbfbf" points="137.5,-280.5 137.5,-299.5 185.5,-299.5 185.5,-280.5 137.5,-280.5"/>
<text text-anchor="middle" x="161.5" y="-287.5" font-family="Helvetica,sans-Serif" font-size="10.00">stdlib.h</text>
</g>
<!-- Node1&#45;&gt;Node3 -->
<g id="edge2" class="edge"><title>Node1&#45;&gt;Node3</title>
<path fill="none" stroke="midnightblue" d="M181.338,-336.399C177.755,-328.199 173.203,-317.781 169.363,-308.994"/>
<polygon fill="midnightblue" stroke="midnightblue" points="172.495,-307.42 165.283,-299.658 166.08,-310.223 172.495,-307.42"/>
</g>
<!-- Node4 -->
<g id="node4" class="node"><title>Node4</title>
<g id="a_node4"><a xlink:href="al4san__runtime_8h.html" target="_top" xlink:title="AL4SAN StarPU runtime main header. ">
<polygon fill="white" stroke="black" points="684,-280.5 684,-299.5 775,-299.5 775,-280.5 684,-280.5"/>
<text text-anchor="middle" x="729.5" y="-287.5" font-family="Helvetica,sans-Serif" font-size="10.00">al4san_runtime.h</text>
</a>
</g>
</g>
<!-- Node1&#45;&gt;Node4 -->
<g id="edge3" class="edge"><title>Node1&#45;&gt;Node4</title>
<path fill="none" stroke="midnightblue" d="M243.209,-344.384C347.258,-332.962 569.97,-308.513 673.92,-297.101"/>
<polygon fill="midnightblue" stroke="midnightblue" points="674.343,-300.576 683.901,-296.006 673.579,-293.618 674.343,-300.576"/>
</g>
<!-- Node12 -->
<g id="node12" class="node"><title>Node12</title>
<polygon fill="white" stroke="#bfbfbf" points="227.5,-0.5 227.5,-19.5 279.5,-19.5 279.5,-0.5 227.5,-0.5"/>
<text text-anchor="middle" x="253.5" y="-7.5" font-family="Helvetica,sans-Serif" font-size="10.00">stdarg.h</text>
</g>
<!-- Node1&#45;&gt;Node12 -->
<g id="edge30" class="edge"><title>Node1&#45;&gt;Node12</title>
<path fill="none" stroke="midnightblue" d="M192.887,-336.148C200.503,-314.536 213.5,-272.202 213.5,-235 213.5,-235 213.5,-235 213.5,-121 213.5,-86.6168 230.974,-49.6307 242.823,-28.503"/>
<polygon fill="midnightblue" stroke="midnightblue" points="245.924,-30.1332 247.938,-19.7315 239.877,-26.6071 245.924,-30.1332"/>
</g>
<!-- Node5 -->
<g id="node5" class="node"><title>Node5</title>
<g id="a_node5"><a xlink:href="config_8h.html" target="_top" xlink:title="al4san/config.h">
<polygon fill="white" stroke="black" points="751,-0.5 751,-19.5 834,-19.5 834,-0.5 751,-0.5"/>
<text text-anchor="middle" x="792.5" y="-7.5" font-family="Helvetica,sans-Serif" font-size="10.00">al4san/config.h</text>
</a>
</g>
</g>
<!-- Node4&#45;&gt;Node5 -->
<g id="edge4" class="edge"><title>Node4&#45;&gt;Node5</title>
<path fill="none" stroke="midnightblue" d="M775.081,-286.403C822.04,-282.267 896.373,-271.574 954.5,-244 995.58,-224.513 1033.5,-224.468 1033.5,-179 1033.5,-179 1033.5,-179 1033.5,-121 1033.5,-38.4775 915.112,-17.5962 844.288,-12.4876"/>
<polygon fill="midnightblue" stroke="midnightblue" points="844.407,-8.98813 834.204,-11.8429 843.96,-15.9739 844.407,-8.98813"/>
</g>
<!-- Node6 -->
<g id="node6" class="node"><title>Node6</title>
<polygon fill="white" stroke="#bfbfbf" points="841.5,-168.5 841.5,-187.5 893.5,-187.5 893.5,-168.5 841.5,-168.5"/>
<text text-anchor="middle" x="867.5" y="-175.5" font-family="Helvetica,sans-Serif" font-size="10.00">starpu.h</text>
</g>
<!-- Node4&#45;&gt;Node6 -->
<g id="edge5" class="edge"><title>Node4&#45;&gt;Node6</title>
<path fill="none" stroke="midnightblue" d="M721.544,-280.197C710.511,-266.886 693.331,-241.355 706.5,-224 710.364,-218.909 785.159,-199.513 831.428,-187.912"/>
<polygon fill="midnightblue" stroke="midnightblue" points="832.54,-191.242 841.393,-185.423 830.843,-184.451 832.54,-191.242"/>
</g>
<!-- Node7 -->
<g id="node7" class="node"><title>Node7</title>
<polygon fill="white" stroke="#bfbfbf" points="416,-224.5 416,-243.5 507,-243.5 507,-224.5 416,-224.5"/>
<text text-anchor="middle" x="461.5" y="-231.5" font-family="Helvetica,sans-Serif" font-size="10.00">starpu_profiling.h</text>
</g>
<!-- Node4&#45;&gt;Node7 -->
<g id="edge6" class="edge"><title>Node4&#45;&gt;Node7</title>
<path fill="none" stroke="midnightblue" d="M687.035,-280.444C640.087,-270.984 564.424,-255.738 513.846,-245.547"/>
<polygon fill="midnightblue" stroke="midnightblue" points="514.261,-242.061 503.767,-243.516 512.878,-248.923 514.261,-242.061"/>
</g>
<!-- Node8 -->
<g id="node8" class="node"><title>Node8</title>
<g id="a_node8"><a xlink:href="runtime__task_8h.html" target="_top" xlink:title="runtime_task.h">
<polygon fill="white" stroke="black" points="844,-224.5 844,-243.5 925,-243.5 925,-224.5 844,-224.5"/>
<text text-anchor="middle" x="884.5" y="-231.5" font-family="Helvetica,sans-Serif" font-size="10.00">runtime_task.h</text>
</a>
</g>
</g>
<!-- Node4&#45;&gt;Node8 -->
<g id="edge7" class="edge"><title>Node4&#45;&gt;Node8</title>
<path fill="none" stroke="midnightblue" d="M754.06,-280.444C780.023,-271.399 821.168,-257.064 850.297,-246.916"/>
<polygon fill="midnightblue" stroke="midnightblue" points="851.763,-250.112 860.055,-243.516 849.46,-243.501 851.763,-250.112"/>
</g>
<!-- Node9 -->
<g id="node9" class="node"><title>Node9</title>
<g id="a_node9"><a xlink:href="runtime__codelet_8h_source.html" target="_top" xlink:title="runtime_codelet.h">
<polygon fill="white" stroke="black" points="911.5,-168.5 911.5,-187.5 1005.5,-187.5 1005.5,-168.5 911.5,-168.5"/>
<text text-anchor="middle" x="958.5" y="-175.5" font-family="Helvetica,sans-Serif" font-size="10.00">runtime_codelet.h</text>
</a>
</g>
</g>
<!-- Node4&#45;&gt;Node9 -->
<g id="edge28" class="edge"><title>Node4&#45;&gt;Node9</title>
<path fill="none" stroke="midnightblue" d="M775.454,-284.064C828.408,-277.512 911.146,-264.343 934.5,-244 947.945,-232.289 953.866,-212.35 956.469,-197.636"/>
<polygon fill="midnightblue" stroke="midnightblue" points="959.95,-198.017 957.882,-187.626 953.019,-197.038 959.95,-198.017"/>
</g>
<!-- Node10 -->
<g id="node10" class="node"><title>Node10</title>
<g id="a_node10"><a xlink:href="al4san__common_8h.html" target="_top" xlink:title="control/al4san_common.h">
<polygon fill="white" stroke="black" points="525.5,-224.5 525.5,-243.5 653.5,-243.5 653.5,-224.5 525.5,-224.5"/>
<text text-anchor="middle" x="589.5" y="-231.5" font-family="Helvetica,sans-Serif" font-size="10.00">control/al4san_common.h</text>
</a>
</g>
</g>
<!-- Node4&#45;&gt;Node10 -->
<g id="edge11" class="edge"><title>Node4&#45;&gt;Node10</title>
<path fill="none" stroke="midnightblue" d="M707.317,-280.444C684.072,-271.478 647.351,-257.314 621.085,-247.183"/>
<polygon fill="midnightblue" stroke="midnightblue" points="622.169,-243.85 611.58,-243.516 619.65,-250.381 622.169,-243.85"/>
</g>
<!-- Node22 -->
<g id="node22" class="node"><title>Node22</title>
<g id="a_node22"><a xlink:href="runtime__workspace_8h.html" target="_top" xlink:title="Al4san StarPU workspace header. ">
<polygon fill="white" stroke="black" points="715.5,-224.5 715.5,-243.5 825.5,-243.5 825.5,-224.5 715.5,-224.5"/>
<text text-anchor="middle" x="770.5" y="-231.5" font-family="Helvetica,sans-Serif" font-size="10.00">runtime_workspace.h</text>
</a>
</g>
</g>
<!-- Node4&#45;&gt;Node22 -->
<g id="edge29" class="edge"><title>Node4&#45;&gt;Node22</title>
<path fill="none" stroke="midnightblue" d="M736.27,-280.083C742.062,-272.455 750.558,-261.264 757.638,-251.941"/>
<polygon fill="midnightblue" stroke="midnightblue" points="760.596,-253.832 763.856,-243.751 755.021,-249.599 760.596,-253.832"/>
</g>
<!-- Node8&#45;&gt;Node6 -->
<g id="edge8" class="edge"><title>Node8&#45;&gt;Node6</title>
<path fill="none" stroke="midnightblue" d="M881.693,-224.083C879.415,-216.849 876.129,-206.409 873.292,-197.397"/>
<polygon fill="midnightblue" stroke="midnightblue" points="876.596,-196.239 870.255,-187.751 869.919,-198.341 876.596,-196.239"/>
</g>
<!-- Node8&#45;&gt;Node9 -->
<g id="edge9" class="edge"><title>Node8&#45;&gt;Node9</title>
<path fill="none" stroke="midnightblue" d="M896.389,-224.324C907.65,-216.107 924.787,-203.602 938.209,-193.807"/>
<polygon fill="midnightblue" stroke="midnightblue" points="940.38,-196.556 946.394,-187.834 936.253,-190.901 940.38,-196.556"/>
</g>
<!-- Node9&#45;&gt;Node5 -->
<g id="edge10" class="edge"><title>Node9&#45;&gt;Node5</title>
<path fill="none" stroke="midnightblue" d="M949.575,-168.075C922.767,-141.267 842.69,-61.1902 808.385,-26.8851"/>
<polygon fill="midnightblue" stroke="midnightblue" points="810.614,-24.1643 801.068,-19.5681 805.664,-29.1141 810.614,-24.1643"/>
</g>
<!-- Node11 -->
<g id="node11" class="node"><title>Node11</title>
<polygon fill="white" stroke="#bfbfbf" points="242,-168.5 242,-187.5 293,-187.5 293,-168.5 242,-168.5"/>
<text text-anchor="middle" x="267.5" y="-175.5" font-family="Helvetica,sans-Serif" font-size="10.00">unistd.h</text>
</g>
<!-- Node10&#45;&gt;Node11 -->
<g id="edge12" class="edge"><title>Node10&#45;&gt;Node11</title>
<path fill="none" stroke="midnightblue" d="M525.382,-224.924C469.077,-217.39 384.795,-205.046 303.011,-188.151"/>
<polygon fill="midnightblue" stroke="midnightblue" points="303.557,-184.689 293.052,-186.068 302.124,-191.541 303.557,-184.689"/>
</g>
<!-- Node10&#45;&gt;Node12 -->
<g id="edge13" class="edge"><title>Node10&#45;&gt;Node12</title>
<path fill="none" stroke="midnightblue" d="M653.558,-227.512C706.649,-221.478 776.122,-209.629 793.5,-188 799.067,-181.071 798.615,-175.27 793.5,-168 733.774,-83.1016 400.699,-30.9202 289.585,-15.6795"/>
<polygon fill="midnightblue" stroke="midnightblue" points="289.921,-12.1931 279.542,-14.32 288.982,-19.1298 289.921,-12.1931"/>
</g>
<!-- Node13 -->
<g id="node13" class="node"><title>Node13</title>
<polygon fill="white" stroke="#bfbfbf" points="311,-168.5 311,-187.5 364,-187.5 364,-168.5 311,-168.5"/>
<text text-anchor="middle" x="337.5" y="-175.5" font-family="Helvetica,sans-Serif" font-size="10.00">al4san.h</text>
</g>
<!-- Node10&#45;&gt;Node13 -->
<g id="edge14" class="edge"><title>Node10&#45;&gt;Node13</title>
<path fill="none" stroke="midnightblue" d="M545.312,-224.472C503.514,-216.263 438.796,-203.188 374.17,-188.314"/>
<polygon fill="midnightblue" stroke="midnightblue" points="374.753,-184.856 364.221,-186.01 373.173,-191.676 374.753,-184.856"/>
</g>
<!-- Node14 -->
<g id="node14" class="node"><title>Node14</title>
<g id="a_node14"><a xlink:href="al4san__auxiliary_8h.html" target="_top" xlink:title="control/al4san_auxiliary.h">
<polygon fill="white" stroke="black" points="382,-168.5 382,-187.5 509,-187.5 509,-168.5 382,-168.5"/>
<text text-anchor="middle" x="445.5" y="-175.5" font-family="Helvetica,sans-Serif" font-size="10.00">control/al4san_auxiliary.h</text>
</a>
</g>
</g>
<!-- Node10&#45;&gt;Node14 -->
<g id="edge15" class="edge"><title>Node10&#45;&gt;Node14</title>
<path fill="none" stroke="midnightblue" d="M566.683,-224.444C542.668,-215.438 504.671,-201.189 477.631,-191.049"/>
<polygon fill="midnightblue" stroke="midnightblue" points="478.803,-187.751 468.21,-187.516 476.345,-194.305 478.803,-187.751"/>
</g>
<!-- Node20 -->
<g id="node20" class="node"><title>Node20</title>
<g id="a_node20"><a xlink:href="al4san__context_8h.html" target="_top" xlink:title="control/al4san_context.h">
<polygon fill="white" stroke="black" points="527,-168.5 527,-187.5 650,-187.5 650,-168.5 527,-168.5"/>
<text text-anchor="middle" x="588.5" y="-175.5" font-family="Helvetica,sans-Serif" font-size="10.00">control/al4san_context.h</text>
</a>
</g>
</g>
<!-- Node10&#45;&gt;Node20 -->
<g id="edge24" class="edge"><title>Node10&#45;&gt;Node20</title>
<path fill="none" stroke="midnightblue" d="M589.335,-224.083C589.204,-217.006 589.016,-206.861 588.852,-197.986"/>
<polygon fill="midnightblue" stroke="midnightblue" points="592.347,-197.685 588.662,-187.751 585.348,-197.814 592.347,-197.685"/>
</g>
<!-- Node21 -->
<g id="node21" class="node"><title>Node21</title>
<g id="a_node21"><a xlink:href="al4san__async_8h.html" target="_top" xlink:title="control/al4san_async.h">
<polygon fill="white" stroke="black" points="668,-168.5 668,-187.5 785,-187.5 785,-168.5 668,-168.5"/>
<text text-anchor="middle" x="726.5" y="-175.5" font-family="Helvetica,sans-Serif" font-size="10.00">control/al4san_async.h</text>
</a>
</g>
</g>
<!-- Node10&#45;&gt;Node21 -->
<g id="edge26" class="edge"><title>Node10&#45;&gt;Node21</title>
<path fill="none" stroke="midnightblue" d="M611.208,-224.444C633.855,-215.517 669.572,-201.439 695.252,-191.317"/>
<polygon fill="midnightblue" stroke="midnightblue" points="696.874,-194.44 704.894,-187.516 694.307,-187.927 696.874,-194.44"/>
</g>
<!-- Node15 -->
<g id="node15" class="node"><title>Node15</title>
<g id="a_node15"><a xlink:href="struct_8h.html" target="_top" xlink:title="al4san/struct.h">
<polygon fill="white" stroke="black" points="548,-112.5 548,-131.5 629,-131.5 629,-112.5 548,-112.5"/>
<text text-anchor="middle" x="588.5" y="-119.5" font-family="Helvetica,sans-Serif" font-size="10.00">al4san/struct.h</text>
</a>
</g>
</g>
<!-- Node14&#45;&gt;Node15 -->
<g id="edge16" class="edge"><title>Node14&#45;&gt;Node15</title>
<path fill="none" stroke="midnightblue" d="M468.159,-168.444C491.902,-159.478 529.409,-145.314 556.238,-135.183"/>
<polygon fill="midnightblue" stroke="midnightblue" points="557.829,-138.324 565.947,-131.516 555.356,-131.775 557.829,-138.324"/>
</g>
<!-- Node15&#45;&gt;Node5 -->
<g id="edge17" class="edge"><title>Node15&#45;&gt;Node5</title>
<path fill="none" stroke="midnightblue" d="M604.508,-112.368C639.961,-93.2515 725.312,-47.229 767.721,-24.361"/>
<polygon fill="midnightblue" stroke="midnightblue" points="769.426,-27.4183 776.567,-19.5914 766.104,-21.2569 769.426,-27.4183"/>
</g>
<!-- Node16 -->
<g id="node16" class="node"><title>Node16</title>
<g id="a_node16"><a xlink:href="types_8h.html" target="_top" xlink:title="al4san/types.h">
<polygon fill="white" stroke="black" points="105.5,-56.5 105.5,-75.5 185.5,-75.5 185.5,-56.5 105.5,-56.5"/>
<text text-anchor="middle" x="145.5" y="-63.5" font-family="Helvetica,sans-Serif" font-size="10.00">al4san/types.h</text>
</a>
</g>
</g>
<!-- Node15&#45;&gt;Node16 -->
<g id="edge18" class="edge"><title>Node15&#45;&gt;Node16</title>
<path fill="none" stroke="midnightblue" d="M547.618,-116.017C466.233,-106.096 284.187,-83.9054 195.702,-73.1194"/>
<polygon fill="midnightblue" stroke="midnightblue" points="195.994,-69.6292 185.644,-71.8934 195.147,-76.5777 195.994,-69.6292"/>
</g>
<!-- Node16&#45;&gt;Node5 -->
<g id="edge19" class="edge"><title>Node16&#45;&gt;Node5</title>
<path fill="none" stroke="midnightblue" d="M185.973,-61.6221C298.584,-52.2232 615.508,-25.7721 740.695,-15.3238"/>
<polygon fill="midnightblue" stroke="midnightblue" points="741.115,-18.8009 750.79,-14.4812 740.533,-11.8252 741.115,-18.8009"/>
</g>
<!-- Node16&#45;&gt;Node12 -->
<g id="edge22" class="edge"><title>Node16&#45;&gt;Node12</title>
<path fill="none" stroke="midnightblue" d="M162.852,-56.324C180.172,-47.6641 207.015,-34.2424 227.002,-24.249"/>
<polygon fill="midnightblue" stroke="midnightblue" points="228.812,-27.2572 236.191,-19.6545 225.681,-20.9962 228.812,-27.2572"/>
</g>
<!-- Node17 -->
<g id="node17" class="node"><title>Node17</title>
<polygon fill="white" stroke="#bfbfbf" points="157.5,-0.5 157.5,-19.5 209.5,-19.5 209.5,-0.5 157.5,-0.5"/>
<text text-anchor="middle" x="183.5" y="-7.5" font-family="Helvetica,sans-Serif" font-size="10.00">stddef.h</text>
</g>
<!-- Node16&#45;&gt;Node17 -->
<g id="edge20" class="edge"><title>Node16&#45;&gt;Node17</title>
<path fill="none" stroke="midnightblue" d="M151.775,-56.083C157.142,-48.4554 165.018,-37.2645 171.579,-27.9408"/>
<polygon fill="midnightblue" stroke="midnightblue" points="174.449,-29.9434 177.342,-19.7511 168.725,-25.9149 174.449,-29.9434"/>
</g>
<!-- Node18 -->
<g id="node18" class="node"><title>Node18</title>
<polygon fill="white" stroke="#bfbfbf" points="0,-0.5 0,-19.5 59,-19.5 59,-0.5 0,-0.5"/>
<text text-anchor="middle" x="29.5" y="-7.5" font-family="Helvetica,sans-Serif" font-size="10.00">inttypes.h</text>
</g>
<!-- Node16&#45;&gt;Node18 -->
<g id="edge21" class="edge"><title>Node16&#45;&gt;Node18</title>
<path fill="none" stroke="midnightblue" d="M127.119,-56.4435C108.284,-47.6751 78.7688,-33.9355 57.1207,-23.8579"/>
<polygon fill="midnightblue" stroke="midnightblue" points="58.3375,-20.5637 47.7946,-19.5164 55.3833,-26.9098 58.3375,-20.5637"/>
</g>
<!-- Node19 -->
<g id="node19" class="node"><title>Node19</title>
<polygon fill="white" stroke="#bfbfbf" points="77.5,-0.5 77.5,-19.5 139.5,-19.5 139.5,-0.5 77.5,-0.5"/>
<text text-anchor="middle" x="108.5" y="-7.5" font-family="Helvetica,sans-Serif" font-size="10.00">complex.h</text>
</g>
<!-- Node16&#45;&gt;Node19 -->
<g id="edge23" class="edge"><title>Node16&#45;&gt;Node19</title>
<path fill="none" stroke="midnightblue" d="M139.39,-56.083C134.218,-48.5341 126.654,-37.4948 120.306,-28.2298"/>
<polygon fill="midnightblue" stroke="midnightblue" points="123.036,-26.0221 114.496,-19.7511 117.261,-29.9787 123.036,-26.0221"/>
</g>
<!-- Node20&#45;&gt;Node15 -->
<g id="edge25" class="edge"><title>Node20&#45;&gt;Node15</title>
<path fill="none" stroke="midnightblue" d="M588.5,-168.083C588.5,-161.006 588.5,-150.861 588.5,-141.986"/>
<polygon fill="midnightblue" stroke="midnightblue" points="592,-141.751 588.5,-131.751 585,-141.751 592,-141.751"/>
</g>
<!-- Node21&#45;&gt;Node15 -->
<g id="edge27" class="edge"><title>Node21&#45;&gt;Node15</title>
<path fill="none" stroke="midnightblue" d="M704.633,-168.444C681.721,-159.478 645.525,-145.314 619.634,-135.183"/>
<polygon fill="midnightblue" stroke="midnightblue" points="620.852,-131.901 610.264,-131.516 618.301,-138.42 620.852,-131.901"/>
</g>
</g>
</svg>
