<?xml version="1.0" encoding="UTF-8" standalone="no"?>
<!DOCTYPE svg PUBLIC "-//W3C//DTD SVG 1.1//EN"
 "http://www.w3.org/Graphics/SVG/1.1/DTD/svg11.dtd">
<!-- Generated by graphviz version 2.38.0 (20140413.2041)
 -->
<!-- Title: al4san_option_s Pages: 1 -->
<svg width="178pt" height="162pt"
 viewBox="0.00 0.00 178.00 162.00" xmlns="http://www.w3.org/2000/svg" xmlns:xlink="http://www.w3.org/1999/xlink">
<g id="graph0" class="graph" transform="scale(1 1) rotate(0) translate(4 158)">
<title>al4san_option_s</title>
<polygon fill="white" stroke="none" points="-4,4 -4,-158 174,-158 174,4 -4,4"/>
<!-- Node1 -->
<g id="node1" class="node"><title>Node1</title>
<polygon fill="#bfbfbf" stroke="black" points="3,-0.5 3,-19.5 90,-19.5 90,-0.5 3,-0.5"/>
<text text-anchor="middle" x="46.5" y="-7.5" font-family="Helvetica,sans-Serif" font-size="10.00">al4san_option_s</text>
</g>
<!-- Node2 -->
<g id="node2" class="node"><title>Node2</title>
<g id="a_node2"><a xlink:href="structal4san__sequence__s.html" target="_top" xlink:title="al4san_sequence_s">
<polygon fill="white" stroke="black" points="67,-67.5 67,-86.5 170,-86.5 170,-67.5 67,-67.5"/>
<text text-anchor="middle" x="118.5" y="-74.5" font-family="Helvetica,sans-Serif" font-size="10.00">al4san_sequence_s</text>
</a>
</g>
</g>
<!-- Node2&#45;&gt;Node1 -->
<g id="edge1" class="edge"><title>Node2&#45;&gt;Node1</title>
<path fill="none" stroke="#9a32cd" stroke-dasharray="5,2" d="M101.172,-60.3564C87.0168,-47.5777 67.5368,-29.9915 56.0564,-19.6273"/>
<polygon fill="#9a32cd" stroke="#9a32cd" points="99.0217,-63.1307 108.79,-67.2338 103.712,-57.9348 99.0217,-63.1307"/>
<text text-anchor="middle" x="109.5" y="-41" font-family="Helvetica,sans-Serif" font-size="10.00"> sequence</text>
</g>
<!-- Node3 -->
<g id="node3" class="node"><title>Node3</title>
<g id="a_node3"><a xlink:href="structal4san__request__s.html" target="_top" xlink:title="al4san_request_s">
<polygon fill="white" stroke="black" points="-7.10543e-15,-134.5 -7.10543e-15,-153.5 93,-153.5 93,-134.5 -7.10543e-15,-134.5"/>
<text text-anchor="middle" x="46.5" y="-141.5" font-family="Helvetica,sans-Serif" font-size="10.00">al4san_request_s</text>
</a>
</g>
</g>
<!-- Node3&#45;&gt;Node1 -->
<g id="edge3" class="edge"><title>Node3&#45;&gt;Node1</title>
<path fill="none" stroke="#9a32cd" stroke-dasharray="5,2" d="M35.5693,-125.442C27.3963,-110.212 18.3008,-87.4583 22.5,-67 26.1155,-49.3855 35.5127,-30.4705 41.4184,-19.7498"/>
<polygon fill="#9a32cd" stroke="#9a32cd" points="32.6296,-127.351 40.6578,-134.265 38.6934,-123.854 32.6296,-127.351"/>
<text text-anchor="middle" x="40.5" y="-74.5" font-family="Helvetica,sans-Serif" font-size="10.00"> request</text>
</g>
<!-- Node3&#45;&gt;Node2 -->
<g id="edge2" class="edge"><title>Node3&#45;&gt;Node2</title>
<path fill="none" stroke="#9a32cd" stroke-dasharray="5,2" d="M63.8283,-127.356C77.9832,-114.578 97.4632,-96.9915 108.944,-86.6273"/>
<polygon fill="#9a32cd" stroke="#9a32cd" points="61.2876,-124.935 56.2102,-134.234 65.9783,-130.131 61.2876,-124.935"/>
<text text-anchor="middle" x="104.5" y="-108" font-family="Helvetica,sans-Serif" font-size="10.00"> request</text>
</g>
</g>
</svg>
