<?xml version="1.0" encoding="UTF-8" standalone="no"?>
<!DOCTYPE svg PUBLIC "-//W3C//DTD SVG 1.1//EN"
 "http://www.w3.org/Graphics/SVG/1.1/DTD/svg11.dtd">
<!-- Generated by graphviz version 2.38.0 (20140413.2041)
 -->
<!-- Title: include/al4san/types.h Pages: 1 -->
<svg width="858pt" height="330pt"
 viewBox="0.00 0.00 858.00 330.00" xmlns="http://www.w3.org/2000/svg" xmlns:xlink="http://www.w3.org/1999/xlink">
<g id="graph0" class="graph" transform="scale(1 1) rotate(0) translate(4 326)">
<title>include/al4san/types.h</title>
<polygon fill="white" stroke="none" points="-4,4 -4,-326 854,-326 854,4 -4,4"/>
<!-- Node1 -->
<g id="node1" class="node"><title>Node1</title>
<polygon fill="#bfbfbf" stroke="black" points="173.5,-302.5 173.5,-321.5 287.5,-321.5 287.5,-302.5 173.5,-302.5"/>
<text text-anchor="middle" x="230.5" y="-309.5" font-family="Helvetica,sans-Serif" font-size="10.00">include/al4san/types.h</text>
</g>
<!-- Node2 -->
<g id="node2" class="node"><title>Node2</title>
<g id="a_node2"><a xlink:href="struct_8h.html" target="_top" xlink:title="include/al4san/struct.h">
<polygon fill="white" stroke="black" points="173,-246.5 173,-265.5 288,-265.5 288,-246.5 173,-246.5"/>
<text text-anchor="middle" x="230.5" y="-253.5" font-family="Helvetica,sans-Serif" font-size="10.00">include/al4san/struct.h</text>
</a>
</g>
</g>
<!-- Node1&#45;&gt;Node2 -->
<g id="edge1" class="edge"><title>Node1&#45;&gt;Node2</title>
<path fill="none" stroke="midnightblue" d="M230.5,-291.805C230.5,-282.91 230.5,-272.78 230.5,-265.751"/>
<polygon fill="midnightblue" stroke="midnightblue" points="227,-292.083 230.5,-302.083 234,-292.083 227,-292.083"/>
</g>
<!-- Node3 -->
<g id="node3" class="node"><title>Node3</title>
<g id="a_node3"><a xlink:href="runtime_8h.html" target="_top" xlink:title="include/al4san/runtime.h">
<polygon fill="white" stroke="black" points="105.5,-134.5 105.5,-153.5 227.5,-153.5 227.5,-134.5 105.5,-134.5"/>
<text text-anchor="middle" x="166.5" y="-141.5" font-family="Helvetica,sans-Serif" font-size="10.00">include/al4san/runtime.h</text>
</a>
</g>
</g>
<!-- Node2&#45;&gt;Node3 -->
<g id="edge2" class="edge"><title>Node2&#45;&gt;Node3</title>
<path fill="none" stroke="midnightblue" d="M162.942,-250.134C135.9,-244.47 107.243,-232.968 90.5,-210 72.909,-185.868 113.264,-164.822 141.64,-153.608"/>
<polygon fill="midnightblue" stroke="midnightblue" points="162.336,-253.581 172.807,-251.968 163.615,-246.699 162.336,-253.581"/>
</g>
<!-- Node8 -->
<g id="node8" class="node"><title>Node8</title>
<g id="a_node8"><a xlink:href="al4san__async_8h.html" target="_top" xlink:title="control/al4san_async.h">
<polygon fill="white" stroke="black" points="241,-190.5 241,-209.5 358,-209.5 358,-190.5 241,-190.5"/>
<text text-anchor="middle" x="299.5" y="-197.5" font-family="Helvetica,sans-Serif" font-size="10.00">control/al4san_async.h</text>
</a>
</g>
</g>
<!-- Node2&#45;&gt;Node8 -->
<g id="edge7" class="edge"><title>Node2&#45;&gt;Node8</title>
<path fill="none" stroke="midnightblue" d="M249.538,-240.101C261.956,-230.382 277.743,-218.027 288.212,-209.834"/>
<polygon fill="midnightblue" stroke="midnightblue" points="247.304,-237.405 241.586,-246.324 251.618,-242.917 247.304,-237.405"/>
</g>
<!-- Node19 -->
<g id="node19" class="node"><title>Node19</title>
<g id="a_node19"><a xlink:href="al4san__auxiliary_8h.html" target="_top" xlink:title="control/al4san_auxiliary.h">
<polygon fill="white" stroke="black" points="376,-190.5 376,-209.5 503,-209.5 503,-190.5 376,-190.5"/>
<text text-anchor="middle" x="439.5" y="-197.5" font-family="Helvetica,sans-Serif" font-size="10.00">control/al4san_auxiliary.h</text>
</a>
</g>
</g>
<!-- Node2&#45;&gt;Node19 -->
<g id="edge22" class="edge"><title>Node2&#45;&gt;Node19</title>
<path fill="none" stroke="midnightblue" d="M273.484,-243.894C312.952,-233.697 370.6,-218.802 406.538,-209.516"/>
<polygon fill="midnightblue" stroke="midnightblue" points="272.423,-240.553 263.617,-246.444 274.174,-247.331 272.423,-240.553"/>
</g>
<!-- Node20 -->
<g id="node20" class="node"><title>Node20</title>
<g id="a_node20"><a xlink:href="al4san__context_8h.html" target="_top" xlink:title="control/al4san_context.h">
<polygon fill="white" stroke="black" points="100,-190.5 100,-209.5 223,-209.5 223,-190.5 100,-190.5"/>
<text text-anchor="middle" x="161.5" y="-197.5" font-family="Helvetica,sans-Serif" font-size="10.00">control/al4san_context.h</text>
</a>
</g>
</g>
<!-- Node2&#45;&gt;Node20 -->
<g id="edge28" class="edge"><title>Node2&#45;&gt;Node20</title>
<path fill="none" stroke="midnightblue" d="M211.462,-240.101C199.044,-230.382 183.257,-218.027 172.788,-209.834"/>
<polygon fill="midnightblue" stroke="midnightblue" points="209.382,-242.917 219.414,-246.324 213.696,-237.405 209.382,-242.917"/>
</g>
<!-- Node4 -->
<g id="node4" class="node"><title>Node4</title>
<g id="a_node4"><a xlink:href="async_8c.html" target="_top" xlink:title="control/async.c">
<polygon fill="white" stroke="black" points="107,-73 107,-92 190,-92 190,-73 107,-73"/>
<text text-anchor="middle" x="148.5" y="-80" font-family="Helvetica,sans-Serif" font-size="10.00">control/async.c</text>
</a>
</g>
</g>
<!-- Node3&#45;&gt;Node4 -->
<g id="edge3" class="edge"><title>Node3&#45;&gt;Node4</title>
<path fill="none" stroke="midnightblue" d="M160.951,-124.657C157.658,-113.772 153.639,-100.486 151.074,-92.0091"/>
<polygon fill="midnightblue" stroke="midnightblue" points="157.675,-125.917 163.921,-134.475 164.375,-123.89 157.675,-125.917"/>
</g>
<!-- Node5 -->
<g id="node5" class="node"><title>Node5</title>
<g id="a_node5"><a xlink:href="context_8c.html" target="_top" xlink:title="control/context.c">
<polygon fill="white" stroke="black" points="0,-73 0,-92 89,-92 89,-73 0,-73"/>
<text text-anchor="middle" x="44.5" y="-80" font-family="Helvetica,sans-Serif" font-size="10.00">control/context.c</text>
</a>
</g>
</g>
<!-- Node3&#45;&gt;Node5 -->
<g id="edge4" class="edge"><title>Node3&#45;&gt;Node5</title>
<path fill="none" stroke="midnightblue" d="M139.887,-130.021C116.227,-118.482 82.3166,-101.943 61.9472,-92.0091"/>
<polygon fill="midnightblue" stroke="midnightblue" points="138.498,-133.237 149.02,-134.475 141.567,-126.946 138.498,-133.237"/>
</g>
<!-- Node6 -->
<g id="node6" class="node"><title>Node6</title>
<g id="a_node6"><a xlink:href="control_8c.html" target="_top" xlink:title="control/control.c">
<polygon fill="white" stroke="black" points="208.5,-73 208.5,-92 294.5,-92 294.5,-73 208.5,-73"/>
<text text-anchor="middle" x="251.5" y="-80" font-family="Helvetica,sans-Serif" font-size="10.00">control/control.c</text>
</a>
</g>
</g>
<!-- Node3&#45;&gt;Node6 -->
<g id="edge5" class="edge"><title>Node3&#45;&gt;Node6</title>
<path fill="none" stroke="midnightblue" d="M187.053,-128.613C203.401,-117.169 225.72,-101.546 239.344,-92.0091"/>
<polygon fill="midnightblue" stroke="midnightblue" points="184.864,-125.873 178.678,-134.475 188.878,-131.608 184.864,-125.873"/>
</g>
<!-- Node7 -->
<g id="node7" class="node"><title>Node7</title>
<g id="a_node7"><a xlink:href="task_8c.html" target="_top" xlink:title="control/task.c">
<polygon fill="white" stroke="black" points="312.5,-73 312.5,-92 388.5,-92 388.5,-73 312.5,-73"/>
<text text-anchor="middle" x="350.5" y="-80" font-family="Helvetica,sans-Serif" font-size="10.00">control/task.c</text>
</a>
</g>
</g>
<!-- Node3&#45;&gt;Node7 -->
<g id="edge6" class="edge"><title>Node3&#45;&gt;Node7</title>
<path fill="none" stroke="midnightblue" d="M202.432,-131.381C238.197,-119.815 292.236,-102.341 324.186,-92.0091"/>
<polygon fill="midnightblue" stroke="midnightblue" points="201.301,-128.068 192.863,-134.475 203.455,-134.728 201.301,-128.068"/>
</g>
<!-- Node9 -->
<g id="node9" class="node"><title>Node9</title>
<g id="a_node9"><a xlink:href="al4san__common_8h.html" target="_top" xlink:title="control/al4san_common.h">
<polygon fill="white" stroke="black" points="283.5,-134.5 283.5,-153.5 411.5,-153.5 411.5,-134.5 283.5,-134.5"/>
<text text-anchor="middle" x="347.5" y="-141.5" font-family="Helvetica,sans-Serif" font-size="10.00">control/al4san_common.h</text>
</a>
</g>
</g>
<!-- Node8&#45;&gt;Node9 -->
<g id="edge8" class="edge"><title>Node8&#45;&gt;Node9</title>
<path fill="none" stroke="midnightblue" d="M314.228,-182.431C322.64,-172.967 332.849,-161.483 339.721,-153.751"/>
<polygon fill="midnightblue" stroke="midnightblue" points="311.454,-180.284 307.426,-190.083 316.686,-184.934 311.454,-180.284"/>
</g>
<!-- Node9&#45;&gt;Node4 -->
<g id="edge9" class="edge"><title>Node9&#45;&gt;Node4</title>
<path fill="none" stroke="midnightblue" d="M309.133,-131.529C270.458,-119.965 211.661,-102.385 176.959,-92.0091"/>
<polygon fill="midnightblue" stroke="midnightblue" points="308.405,-134.964 318.988,-134.475 310.41,-128.257 308.405,-134.964"/>
</g>
<!-- Node9&#45;&gt;Node5 -->
<g id="edge11" class="edge"><title>Node9&#45;&gt;Node5</title>
<path fill="none" stroke="midnightblue" d="M281.952,-132.839C231.335,-124.598 159.671,-112.071 97.5,-98 89.7775,-96.2522 81.4913,-94.1136 73.8187,-92.0212"/>
<polygon fill="midnightblue" stroke="midnightblue" points="281.673,-136.339 292.104,-134.48 282.79,-129.429 281.673,-136.339"/>
</g>
<!-- Node9&#45;&gt;Node6 -->
<g id="edge12" class="edge"><title>Node9&#45;&gt;Node6</title>
<path fill="none" stroke="midnightblue" d="M325.052,-129.087C306.525,-117.604 280.83,-101.678 265.229,-92.0091"/>
<polygon fill="midnightblue" stroke="midnightblue" points="323.402,-132.182 333.746,-134.475 327.09,-126.232 323.402,-132.182"/>
</g>
<!-- Node9&#45;&gt;Node7 -->
<g id="edge14" class="edge"><title>Node9&#45;&gt;Node7</title>
<path fill="none" stroke="midnightblue" d="M348.442,-124.317C348.988,-113.496 349.648,-100.398 350.071,-92.0091"/>
<polygon fill="midnightblue" stroke="midnightblue" points="344.938,-124.312 347.93,-134.475 351.929,-124.664 344.938,-124.312"/>
</g>
<!-- Node10 -->
<g id="node10" class="node"><title>Node10</title>
<g id="a_node10"><a xlink:href="auxiliary_8c.html" target="_top" xlink:title="control/auxiliary.c">
<polygon fill="white" stroke="black" points="675,-73 675,-92 768,-92 768,-73 675,-73"/>
<text text-anchor="middle" x="721.5" y="-80" font-family="Helvetica,sans-Serif" font-size="10.00">control/auxiliary.c</text>
</a>
</g>
</g>
<!-- Node9&#45;&gt;Node10 -->
<g id="edge10" class="edge"><title>Node9&#45;&gt;Node10</title>
<path fill="none" stroke="midnightblue" d="M421.617,-134.911C486.323,-127.28 582.584,-114.546 665.5,-98 673.871,-96.3294 682.857,-94.1697 691.127,-92.0298"/>
<polygon fill="midnightblue" stroke="midnightblue" points="421.037,-131.455 411.51,-136.092 421.849,-138.408 421.037,-131.455"/>
</g>
<!-- Node11 -->
<g id="node11" class="node"><title>Node11</title>
<g id="a_node11"><a xlink:href="al4san__f77_8c.html" target="_top" xlink:title="control/al4san_f77.c">
<polygon fill="white" stroke="black" points="552.5,-73 552.5,-92 656.5,-92 656.5,-73 552.5,-73"/>
<text text-anchor="middle" x="604.5" y="-80" font-family="Helvetica,sans-Serif" font-size="10.00">control/al4san_f77.c</text>
</a>
</g>
</g>
<!-- Node9&#45;&gt;Node11 -->
<g id="edge13" class="edge"><title>Node9&#45;&gt;Node11</title>
<path fill="none" stroke="midnightblue" d="M395.029,-132.195C434.736,-123.143 492.834,-109.838 543.5,-98 551.662,-96.093 560.433,-94.0214 568.707,-92.0567"/>
<polygon fill="midnightblue" stroke="midnightblue" points="394.067,-128.825 385.094,-134.459 395.622,-135.65 394.067,-128.825"/>
</g>
<!-- Node12 -->
<g id="node12" class="node"><title>Node12</title>
<g id="a_node12"><a xlink:href="al4san__runtime_8h.html" target="_top" xlink:title="AL4SAN StarPU runtime main header. ">
<polygon fill="white" stroke="black" points="406.5,-67.5 406.5,-97.5 534.5,-97.5 534.5,-67.5 406.5,-67.5"/>
<text text-anchor="start" x="414.5" y="-85.5" font-family="Helvetica,sans-Serif" font-size="10.00">build/runtime/starpu</text>
<text text-anchor="middle" x="470.5" y="-74.5" font-family="Helvetica,sans-Serif" font-size="10.00">/include/al4san_runtime.h</text>
</a>
</g>
</g>
<!-- Node9&#45;&gt;Node12 -->
<g id="edge15" class="edge"><title>Node9&#45;&gt;Node12</title>
<path fill="none" stroke="midnightblue" d="M374.23,-130.07C394.084,-120.465 421.138,-107.378 441.511,-97.523"/>
<polygon fill="midnightblue" stroke="midnightblue" points="372.601,-126.97 365.123,-134.475 375.649,-133.271 372.601,-126.97"/>
</g>
<!-- Node13 -->
<g id="node13" class="node"><title>Node13</title>
<g id="a_node13"><a xlink:href="runtime__async_8c.html" target="_top" xlink:title="runtime/starpu/control\l/runtime_async.c">
<polygon fill="white" stroke="black" points="92,-0.5 92,-30.5 203,-30.5 203,-0.5 92,-0.5"/>
<text text-anchor="start" x="100" y="-18.5" font-family="Helvetica,sans-Serif" font-size="10.00">runtime/starpu/control</text>
<text text-anchor="middle" x="147.5" y="-7.5" font-family="Helvetica,sans-Serif" font-size="10.00">/runtime_async.c</text>
</a>
</g>
</g>
<!-- Node12&#45;&gt;Node13 -->
<g id="edge16" class="edge"><title>Node12&#45;&gt;Node13</title>
<path fill="none" stroke="midnightblue" d="M396.504,-66.8149C313.232,-50.5924 290.845,-47.6626 211.5,-31 208.824,-30.4381 206.087,-29.854 203.325,-29.257"/>
<polygon fill="midnightblue" stroke="midnightblue" points="395.924,-70.2677 406.409,-68.7513 397.267,-63.3977 395.924,-70.2677"/>
</g>
<!-- Node14 -->
<g id="node14" class="node"><title>Node14</title>
<g id="a_node14"><a xlink:href="runtime__context_8c.html" target="_top" xlink:title="runtime/starpu/control\l/runtime_context.c">
<polygon fill="white" stroke="black" points="221,-0.5 221,-30.5 332,-30.5 332,-0.5 221,-0.5"/>
<text text-anchor="start" x="229" y="-18.5" font-family="Helvetica,sans-Serif" font-size="10.00">runtime/starpu/control</text>
<text text-anchor="middle" x="276.5" y="-7.5" font-family="Helvetica,sans-Serif" font-size="10.00">/runtime_context.c</text>
</a>
</g>
</g>
<!-- Node12&#45;&gt;Node14 -->
<g id="edge17" class="edge"><title>Node12&#45;&gt;Node14</title>
<path fill="none" stroke="midnightblue" d="M418.543,-64.0917C387.226,-53.5988 347.857,-40.4082 318.513,-30.5765"/>
<polygon fill="midnightblue" stroke="midnightblue" points="417.811,-67.5376 428.405,-67.396 420.035,-60.9003 417.811,-67.5376"/>
</g>
<!-- Node15 -->
<g id="node15" class="node"><title>Node15</title>
<g id="a_node15"><a xlink:href="runtime__control_8c.html" target="_top" xlink:title="runtime/starpu/control\l/runtime_control.c">
<polygon fill="white" stroke="black" points="350,-0.5 350,-30.5 461,-30.5 461,-0.5 350,-0.5"/>
<text text-anchor="start" x="358" y="-18.5" font-family="Helvetica,sans-Serif" font-size="10.00">runtime/starpu/control</text>
<text text-anchor="middle" x="405.5" y="-7.5" font-family="Helvetica,sans-Serif" font-size="10.00">/runtime_control.c</text>
</a>
</g>
</g>
<!-- Node12&#45;&gt;Node15 -->
<g id="edge18" class="edge"><title>Node12&#45;&gt;Node15</title>
<path fill="none" stroke="midnightblue" d="M449.311,-60.3115C439.561,-50.5612 428.259,-39.259 419.577,-30.5765"/>
<polygon fill="midnightblue" stroke="midnightblue" points="446.85,-62.7998 456.396,-67.396 451.8,-57.85 446.85,-62.7998"/>
</g>
<!-- Node16 -->
<g id="node16" class="node"><title>Node16</title>
<g id="a_node16"><a xlink:href="runtime__options_8c.html" target="_top" xlink:title="runtime/starpu/control\l/runtime_options.c">
<polygon fill="white" stroke="black" points="479,-0.5 479,-30.5 590,-30.5 590,-0.5 479,-0.5"/>
<text text-anchor="start" x="487" y="-18.5" font-family="Helvetica,sans-Serif" font-size="10.00">runtime/starpu/control</text>
<text text-anchor="middle" x="534.5" y="-7.5" font-family="Helvetica,sans-Serif" font-size="10.00">/runtime_options.c</text>
</a>
</g>
</g>
<!-- Node12&#45;&gt;Node16 -->
<g id="edge19" class="edge"><title>Node12&#45;&gt;Node16</title>
<path fill="none" stroke="midnightblue" d="M491.645,-60.0243C501.181,-50.3398 512.175,-39.1739 520.64,-30.5765"/>
<polygon fill="midnightblue" stroke="midnightblue" points="488.909,-57.8146 484.387,-67.396 493.897,-62.7259 488.909,-57.8146"/>
</g>
<!-- Node17 -->
<g id="node17" class="node"><title>Node17</title>
<g id="a_node17"><a xlink:href="runtime__workspace_8c.html" target="_top" xlink:title="runtime/starpu/control\l/runtime_workspace.c">
<polygon fill="white" stroke="black" points="608,-0.5 608,-30.5 721,-30.5 721,-0.5 608,-0.5"/>
<text text-anchor="start" x="616" y="-18.5" font-family="Helvetica,sans-Serif" font-size="10.00">runtime/starpu/control</text>
<text text-anchor="middle" x="664.5" y="-7.5" font-family="Helvetica,sans-Serif" font-size="10.00">/runtime_workspace.c</text>
</a>
</g>
</g>
<!-- Node12&#45;&gt;Node17 -->
<g id="edge20" class="edge"><title>Node12&#45;&gt;Node17</title>
<path fill="none" stroke="midnightblue" d="M522.457,-64.0917C553.774,-53.5988 593.143,-40.4082 622.487,-30.5765"/>
<polygon fill="midnightblue" stroke="midnightblue" points="520.965,-60.9003 512.595,-67.396 523.189,-67.5376 520.965,-60.9003"/>
</g>
<!-- Node18 -->
<g id="node18" class="node"><title>Node18</title>
<g id="a_node18"><a xlink:href="runtime__task_8c.html" target="_top" xlink:title="runtime/starpu/control\l/runtime_task.c">
<polygon fill="white" stroke="black" points="739,-0.5 739,-30.5 850,-30.5 850,-0.5 739,-0.5"/>
<text text-anchor="start" x="747" y="-18.5" font-family="Helvetica,sans-Serif" font-size="10.00">runtime/starpu/control</text>
<text text-anchor="middle" x="794.5" y="-7.5" font-family="Helvetica,sans-Serif" font-size="10.00">/runtime_task.c</text>
</a>
</g>
</g>
<!-- Node12&#45;&gt;Node18 -->
<g id="edge21" class="edge"><title>Node12&#45;&gt;Node18</title>
<path fill="none" stroke="midnightblue" d="M544.543,-66.8074C628.214,-50.5564 650.735,-47.7092 730.5,-31 733.176,-30.4394 735.913,-29.8565 738.676,-29.2603"/>
<polygon fill="midnightblue" stroke="midnightblue" points="543.735,-63.3989 534.59,-68.7476 545.075,-70.2696 543.735,-63.3989"/>
</g>
<!-- Node19&#45;&gt;Node5 -->
<g id="edge25" class="edge"><title>Node19&#45;&gt;Node5</title>
<path fill="none" stroke="midnightblue" d="M365.621,-189.669C265.671,-176.994 99.3915,-155.705 96.5,-154 71.6097,-139.32 55.0221,-107.596 48.1236,-92.2145"/>
<polygon fill="midnightblue" stroke="midnightblue" points="365.314,-193.158 375.674,-190.943 366.194,-186.213 365.314,-193.158"/>
</g>
<!-- Node19&#45;&gt;Node6 -->
<g id="edge26" class="edge"><title>Node19&#45;&gt;Node6</title>
<path fill="none" stroke="midnightblue" d="M378.204,-188.555C337.778,-180.519 289.599,-168.375 274.5,-154 256.97,-137.31 252.783,-107.113 251.796,-92.2475"/>
<polygon fill="midnightblue" stroke="midnightblue" points="377.54,-191.991 388.023,-190.458 378.872,-185.119 377.54,-191.991"/>
</g>
<!-- Node19&#45;&gt;Node7 -->
<g id="edge27" class="edge"><title>Node19&#45;&gt;Node7</title>
<path fill="none" stroke="midnightblue" d="M437.293,-179.977C434.939,-166.192 430.146,-147.653 420.5,-134 407.097,-115.03 384.263,-100.519 368.331,-92.021"/>
<polygon fill="midnightblue" stroke="midnightblue" points="433.877,-180.819 438.75,-190.227 440.808,-179.834 433.877,-180.819"/>
</g>
<!-- Node19&#45;&gt;Node9 -->
<g id="edge23" class="edge"><title>Node19&#45;&gt;Node9</title>
<path fill="none" stroke="midnightblue" d="M415.95,-185.177C399.021,-175.241 376.717,-162.149 362.245,-153.655"/>
<polygon fill="midnightblue" stroke="midnightblue" points="414.323,-188.28 424.719,-190.324 417.866,-182.243 414.323,-188.28"/>
</g>
<!-- Node19&#45;&gt;Node10 -->
<g id="edge24" class="edge"><title>Node19&#45;&gt;Node10</title>
<path fill="none" stroke="midnightblue" d="M470.006,-186.505C527.615,-162.91 651.057,-112.352 700.443,-92.1245"/>
<polygon fill="midnightblue" stroke="midnightblue" points="468.623,-183.29 460.696,-190.319 471.276,-189.767 468.623,-183.29"/>
</g>
<!-- Node20&#45;&gt;Node5 -->
<g id="edge30" class="edge"><title>Node20&#45;&gt;Node5</title>
<path fill="none" stroke="midnightblue" d="M115.131,-187.104C96.7049,-180.219 76.7773,-169.706 63.5,-154 48.2784,-135.994 45.1457,-106.936 44.5706,-92.3919"/>
<polygon fill="midnightblue" stroke="midnightblue" points="113.991,-190.413 124.586,-190.381 116.284,-183.799 113.991,-190.413"/>
</g>
<!-- Node20&#45;&gt;Node9 -->
<g id="edge29" class="edge"><title>Node20&#45;&gt;Node9</title>
<path fill="none" stroke="midnightblue" d="M200.878,-187.568C235.966,-177.381 286.521,-162.703 318.166,-153.516"/>
<polygon fill="midnightblue" stroke="midnightblue" points="199.6,-184.294 190.972,-190.444 201.552,-191.017 199.6,-184.294"/>
</g>
</g>
</svg>
