<?xml version="1.0" encoding="UTF-8" standalone="no"?>
<!DOCTYPE svg PUBLIC "-//W3C//DTD SVG 1.1//EN"
 "http://www.w3.org/Graphics/SVG/1.1/DTD/svg11.dtd">
<!-- Generated by graphviz version 2.38.0 (20140413.2041)
 -->
<!-- Title: include/al4san/types.h Pages: 1 -->
<svg width="390pt" height="84pt"
 viewBox="0.00 0.00 389.50 84.00" xmlns="http://www.w3.org/2000/svg" xmlns:xlink="http://www.w3.org/1999/xlink">
<g id="graph0" class="graph" transform="scale(1 1) rotate(0) translate(4 80)">
<title>include/al4san/types.h</title>
<polygon fill="white" stroke="none" points="-4,4 -4,-80 385.5,-80 385.5,4 -4,4"/>
<!-- Node1 -->
<g id="node1" class="node"><title>Node1</title>
<polygon fill="#bfbfbf" stroke="black" points="144.5,-56.5 144.5,-75.5 258.5,-75.5 258.5,-56.5 144.5,-56.5"/>
<text text-anchor="middle" x="201.5" y="-63.5" font-family="Helvetica,sans-Serif" font-size="10.00">include/al4san/types.h</text>
</g>
<!-- Node2 -->
<g id="node2" class="node"><title>Node2</title>
<g id="a_node2"><a xlink:href="config_8h.html" target="_top" xlink:title="al4san/config.h">
<polygon fill="white" stroke="black" points="0,-0.5 0,-19.5 83,-19.5 83,-0.5 0,-0.5"/>
<text text-anchor="middle" x="41.5" y="-7.5" font-family="Helvetica,sans-Serif" font-size="10.00">al4san/config.h</text>
</a>
</g>
</g>
<!-- Node1&#45;&gt;Node2 -->
<g id="edge1" class="edge"><title>Node1&#45;&gt;Node2</title>
<path fill="none" stroke="midnightblue" d="M176.148,-56.4435C149.231,-47.3591 106.504,-32.9388 76.413,-22.7831"/>
<polygon fill="midnightblue" stroke="midnightblue" points="77.328,-19.3981 66.7339,-19.5164 75.0895,-26.0305 77.328,-19.3981"/>
</g>
<!-- Node3 -->
<g id="node3" class="node"><title>Node3</title>
<polygon fill="white" stroke="#bfbfbf" points="101.5,-0.5 101.5,-19.5 153.5,-19.5 153.5,-0.5 101.5,-0.5"/>
<text text-anchor="middle" x="127.5" y="-7.5" font-family="Helvetica,sans-Serif" font-size="10.00">stddef.h</text>
</g>
<!-- Node1&#45;&gt;Node3 -->
<g id="edge2" class="edge"><title>Node1&#45;&gt;Node3</title>
<path fill="none" stroke="midnightblue" d="M189.611,-56.324C178.35,-48.1066 161.213,-35.6017 147.791,-25.8069"/>
<polygon fill="midnightblue" stroke="midnightblue" points="149.747,-22.9014 139.606,-19.8339 145.62,-28.5559 149.747,-22.9014"/>
</g>
<!-- Node4 -->
<g id="node4" class="node"><title>Node4</title>
<polygon fill="white" stroke="#bfbfbf" points="172,-0.5 172,-19.5 231,-19.5 231,-0.5 172,-0.5"/>
<text text-anchor="middle" x="201.5" y="-7.5" font-family="Helvetica,sans-Serif" font-size="10.00">inttypes.h</text>
</g>
<!-- Node1&#45;&gt;Node4 -->
<g id="edge3" class="edge"><title>Node1&#45;&gt;Node4</title>
<path fill="none" stroke="midnightblue" d="M201.5,-56.083C201.5,-49.0059 201.5,-38.8611 201.5,-29.9865"/>
<polygon fill="midnightblue" stroke="midnightblue" points="205,-29.751 201.5,-19.7511 198,-29.7511 205,-29.751"/>
</g>
<!-- Node5 -->
<g id="node5" class="node"><title>Node5</title>
<polygon fill="white" stroke="#bfbfbf" points="249.5,-0.5 249.5,-19.5 301.5,-19.5 301.5,-0.5 249.5,-0.5"/>
<text text-anchor="middle" x="275.5" y="-7.5" font-family="Helvetica,sans-Serif" font-size="10.00">stdarg.h</text>
</g>
<!-- Node1&#45;&gt;Node5 -->
<g id="edge4" class="edge"><title>Node1&#45;&gt;Node5</title>
<path fill="none" stroke="midnightblue" d="M213.389,-56.324C224.65,-48.1066 241.787,-35.6017 255.209,-25.8069"/>
<polygon fill="midnightblue" stroke="midnightblue" points="257.38,-28.5559 263.394,-19.8339 253.253,-22.9014 257.38,-28.5559"/>
</g>
<!-- Node6 -->
<g id="node6" class="node"><title>Node6</title>
<polygon fill="white" stroke="#bfbfbf" points="319.5,-0.5 319.5,-19.5 381.5,-19.5 381.5,-0.5 319.5,-0.5"/>
<text text-anchor="middle" x="350.5" y="-7.5" font-family="Helvetica,sans-Serif" font-size="10.00">complex.h</text>
</g>
<!-- Node1&#45;&gt;Node6 -->
<g id="edge5" class="edge"><title>Node1&#45;&gt;Node6</title>
<path fill="none" stroke="midnightblue" d="M225.109,-56.4435C249.958,-47.4381 289.274,-33.1891 317.254,-23.049"/>
<polygon fill="midnightblue" stroke="midnightblue" points="318.792,-26.2144 327.001,-19.5164 316.407,-19.6332 318.792,-26.2144"/>
</g>
</g>
</svg>
